<?xml version="1.0" encoding="utf-8"?>
<!-- Generator: Adobe Illustrator 19.1.0, SVG Export Plug-In . SVG Version: 6.00 Build 0)  -->
<svg version="1.0" xmlns="http://www.w3.org/2000/svg" xmlns:xlink="http://www.w3.org/1999/xlink" x="0px" y="0px"
	 viewBox="0 0 200 200" style="enable-background:new 0 0 200 200;" xml:space="preserve">
<style type="text/css">
	.st0{fill:#C69C6D;}
	.st1{opacity:0.1;}
	.st2{fill:#222120;}
	.st3{fill:#F8EC7F;}
	.st4{opacity:0.1;fill:#010202;}
</style>
<g id="award">
	<g>
		<path class="st0" d="M191,98.8c0,50.3-40.7,91-91,91h0c-50.3,0-91-40.7-91-91v0c0-50.3,40.7-91,91-91h0
			C150.3,7.8,191,48.6,191,98.8L191,98.8z"/>
	</g>
	<g class="st1">
		<path class="st2" d="M163.8,33.9L163.8,33.9c35.8,35.3,36.3,92.9,1,128.7l0,0c-35.3,35.8-92.9,36.3-128.7,1l0,0"/>
	</g>
	<circle class="st3" cx="100" cy="96.8" r="55"/>
	<circle class="st0" cx="100" cy="96.8" r="42.5"/>
	<circle class="st4" cx="100" cy="96.8" r="42.5"/>
	<polygon class="st3" points="100.1,54.4 112.5,79.6 140.3,83.6 120.2,103.2 124.9,130.8 100.1,117.8 75.3,130.8 80.1,103.2 
		60,83.6 87.7,79.6 	"/>
</g>
<g id="Layer_2">
</g>
</svg>
