<?xml version="1.0" encoding="utf-8"?>
<!-- Generator: Adobe Illustrator 20.0.0, SVG Export Plug-In . SVG Version: 6.00 Build 0)  -->
<svg version="1.1" id="Layer_1" xmlns="http://www.w3.org/2000/svg" xmlns:xlink="http://www.w3.org/1999/xlink" x="0px" y="0px"
	 viewBox="0 0 374.8 89" style="enable-background:new 0 0 374.8 89;" xml:space="preserve">
<style type="text/css">
	.st0{fill:none;}
	.st1{fill:#FFFFFF;}
</style>
<g>
	<line class="st0" x1="28" y1="82.4" x2="28" y2="2.5"/>
	<line class="st0" x1="362.6" y1="2.5" x2="362.6" y2="82.4"/>
	<line class="st0" x1="28" y1="82.4" x2="28" y2="2.5"/>
	<line class="st0" x1="362.6" y1="2.5" x2="362.6" y2="82.4"/>
	<line class="st0" x1="28" y1="82.4" x2="28" y2="2.5"/>
	<line class="st0" x1="362.6" y1="2.5" x2="362.6" y2="82.4"/>
	<line class="st0" x1="28" y1="82.4" x2="28" y2="2.5"/>
	<line class="st0" x1="362.6" y1="2.5" x2="362.6" y2="82.4"/>
	<line class="st0" x1="28" y1="82.4" x2="28" y2="2.5"/>
	<line class="st0" x1="362.6" y1="2.5" x2="362.6" y2="82.4"/>
	<line class="st0" x1="28" y1="82.4" x2="28" y2="2.5"/>
	<line class="st0" x1="362.6" y1="2.5" x2="362.6" y2="82.4"/>
	<line class="st0" x1="28" y1="82.4" x2="28" y2="2.5"/>
	<line class="st0" x1="362.6" y1="2.5" x2="362.6" y2="82.4"/>
	<line class="st0" x1="28" y1="82.4" x2="28" y2="2.5"/>
	<line class="st0" x1="362.6" y1="2.5" x2="362.6" y2="82.4"/>
	<line class="st0" x1="28" y1="82.4" x2="28" y2="2.5"/>
	<line class="st0" x1="362.6" y1="2.5" x2="362.6" y2="82.4"/>
	<line class="st0" x1="28" y1="82.4" x2="28" y2="2.5"/>
	<line class="st0" x1="362.6" y1="2.5" x2="362.6" y2="82.4"/>
	<line class="st0" x1="28" y1="82.4" x2="28" y2="2.5"/>
	<line class="st0" x1="362.6" y1="2.5" x2="362.6" y2="82.4"/>
	<line class="st0" x1="28" y1="82.4" x2="28" y2="2.5"/>
	<line class="st0" x1="362.6" y1="2.5" x2="362.6" y2="82.4"/>
	<line class="st0" x1="28" y1="82.4" x2="28" y2="2.5"/>
	<line class="st0" x1="362.6" y1="2.5" x2="362.6" y2="82.4"/>
	<line class="st0" x1="28" y1="82.4" x2="28" y2="2.5"/>
	<line class="st0" x1="362.6" y1="2.5" x2="362.6" y2="82.4"/>
	<line class="st0" x1="28" y1="82.4" x2="28" y2="2.5"/>
	<line class="st0" x1="362.6" y1="2.5" x2="362.6" y2="82.4"/>
	<line class="st0" x1="28" y1="82.4" x2="28" y2="2.5"/>
	<line class="st0" x1="362.6" y1="2.5" x2="362.6" y2="82.4"/>
	<path class="st1" d="M62.4,57c0,3.9-0.5,7.4-1.5,10.5s-2.5,5.8-4.5,8S52,79.4,49,80.6s-6.4,1.8-10.3,1.8c-1.8,0-3.6-0.1-5.3-0.3
		c-1.7-0.2-3.5-0.5-5.4-1l0.7-7.6c0.1-0.7,0.3-1.3,0.8-1.7c0.5-0.4,1.2-0.6,2.1-0.6c0.6,0,1.3,0.1,2.2,0.3c0.9,0.2,2.1,0.3,3.5,0.3
		c1.9,0,3.6-0.3,5-0.8c1.5-0.5,2.7-1.4,3.7-2.5s1.7-2.6,2.2-4.5c0.5-1.8,0.7-4.1,0.7-6.7V12.5h13.4L62.4,57L62.4,57z"/>
	<line class="st0" x1="28" y1="82.4" x2="28" y2="2.5"/>
	<line class="st0" x1="362.6" y1="2.5" x2="362.6" y2="82.4"/>
	<line class="st0" x1="28" y1="82.4" x2="28" y2="2.5"/>
	<line class="st0" x1="362.6" y1="2.5" x2="362.6" y2="82.4"/>
	<line class="st0" x1="28" y1="82.4" x2="28" y2="2.5"/>
	<line class="st0" x1="362.6" y1="2.5" x2="362.6" y2="82.4"/>
	<line class="st0" x1="28" y1="82.4" x2="28" y2="2.5"/>
	<line class="st0" x1="362.6" y1="2.5" x2="362.6" y2="82.4"/>
	<line class="st0" x1="28" y1="82.4" x2="28" y2="2.5"/>
	<line class="st0" x1="362.6" y1="2.5" x2="362.6" y2="82.4"/>
	<line class="st0" x1="28" y1="82.4" x2="28" y2="2.5"/>
	<line class="st0" x1="362.6" y1="2.5" x2="362.6" y2="82.4"/>
	<path class="st1" d="M98.1,31.8c3.8,0,7.3,0.6,10.4,1.8s5.8,2.9,8,5c2.2,2.2,3.9,4.8,5.1,7.9c1.2,3.1,1.8,6.6,1.8,10.5
		s-0.6,7.4-1.8,10.5c-1.2,3.1-2.9,5.8-5.1,8s-4.8,3.9-8,5.1c-3.1,1.2-6.6,1.8-10.4,1.8s-7.3-0.6-10.4-1.8c-3.1-1.2-5.8-2.9-8-5.1
		s-3.9-4.9-5.1-8s-1.8-6.6-1.8-10.5s0.6-7.3,1.8-10.5c1.2-3.1,2.9-5.8,5.1-7.9c2.2-2.2,4.9-3.8,8-5C90.8,32.4,94.3,31.8,98.1,31.8
		 M98.1,73.2c4.3,0,7.4-1.4,9.5-4.1c2-2.7,3.1-6.8,3.1-12c0-5.3-1-9.3-3.1-12.1c-2-2.8-5.2-4.2-9.5-4.2s-7.5,1.4-9.6,4.2
		s-3.1,6.8-3.1,12.1c0,5.3,1,9.3,3.1,12C90.6,71.9,93.8,73.2,98.1,73.2"/>
	<line class="st0" x1="28" y1="82.4" x2="28" y2="2.5"/>
	<line class="st0" x1="362.6" y1="2.5" x2="362.6" y2="82.4"/>
	<line class="st0" x1="28" y1="82.4" x2="28" y2="2.5"/>
	<line class="st0" x1="362.6" y1="2.5" x2="362.6" y2="82.4"/>
	<line class="st0" x1="28" y1="82.4" x2="28" y2="2.5"/>
	<line class="st0" x1="362.6" y1="2.5" x2="362.6" y2="82.4"/>
	<line class="st0" x1="28" y1="82.4" x2="28" y2="2.5"/>
	<line class="st0" x1="362.6" y1="2.5" x2="362.6" y2="82.4"/>
	<line class="st0" x1="28" y1="82.4" x2="28" y2="2.5"/>
	<line class="st0" x1="362.6" y1="2.5" x2="362.6" y2="82.4"/>
	<path class="st1" d="M148,18.3c0,1-0.2,2-0.6,2.9c-0.4,0.9-1,1.7-1.7,2.3c-0.7,0.7-1.6,1.2-2.5,1.6c-1,0.4-2,0.6-3.1,0.6
		s-2.1-0.2-3-0.6c-0.9-0.4-1.8-0.9-2.5-1.6c-0.7-0.7-1.3-1.4-1.7-2.3c-0.4-0.9-0.6-1.8-0.6-2.9c0-1.1,0.2-2,0.6-3
		c0.4-0.9,1-1.7,1.7-2.4c0.7-0.7,1.5-1.2,2.5-1.6s2-0.6,3-0.6c1.1,0,2.1,0.2,3.1,0.6s1.8,0.9,2.5,1.6s1.3,1.5,1.7,2.4
		C147.7,16.3,148,17.2,148,18.3 M146.1,81.6h-12.3v-49h12.3V81.6z"/>
	<line class="st0" x1="28" y1="82.4" x2="28" y2="2.5"/>
	<line class="st0" x1="362.6" y1="2.5" x2="362.6" y2="82.4"/>
	<line class="st0" x1="28" y1="82.4" x2="28" y2="2.5"/>
	<line class="st0" x1="362.6" y1="2.5" x2="362.6" y2="82.4"/>
	<line class="st0" x1="28" y1="82.4" x2="28" y2="2.5"/>
	<line class="st0" x1="362.6" y1="2.5" x2="362.6" y2="82.4"/>
	<line class="st0" x1="28" y1="82.4" x2="28" y2="2.5"/>
	<line class="st0" x1="362.6" y1="2.5" x2="362.6" y2="82.4"/>
	<path class="st1" d="M160,81.6v-49h7.5c1.6,0,2.6,0.7,3.1,2.1l0.8,3.9c1-1,2.1-1.9,3.3-2.8c1.1-0.8,2.4-1.5,3.6-2.1
		c1.3-0.6,2.7-1.1,4.1-1.4c1.5-0.3,3.1-0.5,4.8-0.5c2.8,0,5.3,0.5,7.4,1.4c2.2,0.9,4,2.2,5.4,3.8s2.5,3.6,3.3,5.9
		c0.7,2.3,1.1,4.8,1.1,7.5v31.2h-12.3V50.4c0-3-0.7-5.3-2.2-7c-1.4-1.6-3.6-2.5-6.5-2.5c-2.1,0-4.1,0.5-6,1.4s-3.6,2.2-5.3,3.8v35.5
		C172.1,81.6,160,81.6,160,81.6z"/>
	<line class="st0" x1="28" y1="82.4" x2="28" y2="2.5"/>
	<line class="st0" x1="362.6" y1="2.5" x2="362.6" y2="82.4"/>
	<line class="st0" x1="28" y1="82.4" x2="28" y2="2.5"/>
	<line class="st0" x1="362.6" y1="2.5" x2="362.6" y2="82.4"/>
	<line class="st0" x1="28" y1="82.4" x2="28" y2="2.5"/>
	<line class="st0" x1="362.6" y1="2.5" x2="362.6" y2="82.4"/>
	<line class="st0" x1="28" y1="82.4" x2="28" y2="2.5"/>
	<line class="st0" x1="362.6" y1="2.5" x2="362.6" y2="82.4"/>
	<line class="st0" x1="28" y1="82.4" x2="28" y2="2.5"/>
	<line class="st0" x1="362.6" y1="2.5" x2="362.6" y2="82.4"/>
	<line class="st0" x1="28" y1="82.4" x2="28" y2="2.5"/>
	<line class="st0" x1="362.6" y1="2.5" x2="362.6" y2="82.4"/>
	<path class="st1" d="M238.6,31.8c3.8,0,7.3,0.6,10.4,1.8c3.1,1.2,5.8,2.9,8,5c2.2,2.2,3.9,4.8,5.1,7.9c1.2,3.1,1.8,6.6,1.8,10.5
		s-0.6,7.4-1.8,10.5c-1.2,3.1-2.9,5.8-5.1,8c-2.2,2.2-4.8,3.9-8,5.1c-3.1,1.2-6.6,1.8-10.4,1.8c-3.8,0-7.3-0.6-10.4-1.8
		c-3.1-1.2-5.8-2.9-8-5.1s-3.9-4.9-5.1-8c-1.2-3.1-1.8-6.6-1.8-10.5s0.6-7.3,1.8-10.5c1.2-3.1,2.9-5.8,5.1-7.9c2.2-2.2,4.9-3.8,8-5
		C231.3,32.4,234.8,31.8,238.6,31.8 M238.6,73.2c4.3,0,7.4-1.4,9.5-4.1c2-2.7,3.1-6.8,3.1-12c0-5.3-1-9.3-3.1-12.1
		c-2-2.8-5.2-4.2-9.5-4.2s-7.5,1.4-9.6,4.2s-3.1,6.8-3.1,12.1c0,5.3,1,9.3,3.1,12C231.1,71.9,234.3,73.2,238.6,73.2"/>
	<line class="st0" x1="28" y1="82.4" x2="28" y2="2.5"/>
	<line class="st0" x1="362.6" y1="2.5" x2="362.6" y2="82.4"/>
	<line class="st0" x1="28" y1="82.4" x2="28" y2="2.5"/>
	<line class="st0" x1="362.6" y1="2.5" x2="362.6" y2="82.4"/>
	<line class="st0" x1="28" y1="82.4" x2="28" y2="2.5"/>
	<line class="st0" x1="362.6" y1="2.5" x2="362.6" y2="82.4"/>
	<line class="st0" x1="28" y1="82.4" x2="28" y2="2.5"/>
	<line class="st0" x1="362.6" y1="2.5" x2="362.6" y2="82.4"/>
	<path class="st1" d="M303.9,42.1c-0.3,0.5-0.7,0.9-1,1.1c-0.4,0.2-0.8,0.3-1.4,0.3s-1.2-0.2-1.9-0.5c-0.7-0.3-1.5-0.7-2.4-1.1
		c-0.9-0.4-1.9-0.8-3.1-1.1c-1.1-0.3-2.5-0.5-4.1-0.5c-2.4,0-4.3,0.5-5.7,1.5c-1.4,1-2.1,2.3-2.1,3.9c0,1,0.4,1.9,1.1,2.6
		c0.7,0.7,1.7,1.3,2.8,1.9c1.2,0.5,2.5,1,4,1.5c1.5,0.4,3,0.9,4.6,1.4s3.1,1.1,4.6,1.7c1.5,0.7,2.8,1.5,4,2.5s2.1,2.2,2.8,3.6
		c0.7,1.4,1.1,3.1,1.1,5.1c0,2.4-0.4,4.5-1.3,6.5s-2.2,3.7-3.9,5.2c-1.7,1.5-3.9,2.6-6.4,3.4s-5.5,1.2-8.8,1.2
		c-1.8,0-3.5-0.2-5.2-0.5s-3.3-0.7-4.8-1.3c-1.5-0.5-3-1.2-4.3-1.9c-1.3-0.7-2.5-1.5-3.5-2.4l2.8-4.5c0.4-0.5,0.8-1,1.3-1.2
		c0.5-0.3,1.1-0.4,1.9-0.4s1.5,0.2,2.2,0.6s1.5,0.9,2.4,1.3c0.9,0.5,2,0.9,3.2,1.3s2.8,0.6,4.6,0.6c1.5,0,2.7-0.2,3.8-0.5
		c1-0.3,1.9-0.8,2.6-1.3s1.2-1.2,1.5-1.9c0.3-0.7,0.5-1.5,0.5-2.2c0-1.1-0.4-2.1-1.1-2.8c-0.7-0.7-1.7-1.4-2.8-1.9
		c-1.2-0.5-2.5-1-4-1.5c-1.5-0.4-3.1-0.9-4.6-1.4c-1.6-0.5-3.1-1.1-4.6-1.8c-1.5-0.7-2.9-1.6-4-2.6c-1.2-1.1-2.1-2.3-2.8-3.9
		c-0.7-1.5-1.1-3.4-1.1-5.5c0-2,0.4-3.9,1.2-5.7c0.8-1.8,2.1-3.4,3.7-4.8c1.6-1.4,3.6-2.4,6-3.3c2.4-0.8,5.2-1.2,8.4-1.2
		c3.5,0,6.7,0.6,9.6,1.7c2.9,1.1,5.3,2.6,7.2,4.4L303.9,42.1z"/>
	<line class="st0" x1="28" y1="82.4" x2="28" y2="2.5"/>
	<line class="st0" x1="362.6" y1="2.5" x2="362.6" y2="82.4"/>
	<line class="st0" x1="28" y1="82.4" x2="28" y2="2.5"/>
	<line class="st0" x1="362.6" y1="2.5" x2="362.6" y2="82.4"/>
	<line class="st0" x1="28" y1="82.4" x2="28" y2="2.5"/>
	<line class="st0" x1="362.6" y1="2.5" x2="362.6" y2="82.4"/>
	<line class="st0" x1="28" y1="82.4" x2="28" y2="2.5"/>
	<line class="st0" x1="362.6" y1="2.5" x2="362.6" y2="82.4"/>
	<line class="st0" x1="28" y1="82.4" x2="28" y2="2.5"/>
	<line class="st0" x1="362.6" y1="2.5" x2="362.6" y2="82.4"/>
	<path class="st1" d="M339.6,2.6c4.9-0.1,8.9,3.7,8.9,8.5"/>
	<path class="st1" d="M348.5,11.1c0,4.7-4,8.5-8.9,8.5s-8.9-3.8-8.9-8.5s4-8.5,8.9-8.5"/>
	<line class="st0" x1="28" y1="82.4" x2="28" y2="2.5"/>
	<line class="st0" x1="362.6" y1="2.5" x2="362.6" y2="82.4"/>
	<line class="st0" x1="28" y1="82.4" x2="28" y2="2.5"/>
	<line class="st0" x1="362.6" y1="2.5" x2="362.6" y2="82.4"/>
	<line class="st0" x1="28" y1="82.4" x2="28" y2="2.5"/>
	<line class="st0" x1="362.6" y1="2.5" x2="362.6" y2="82.4"/>
	<line class="st0" x1="28" y1="82.4" x2="28" y2="2.5"/>
	<line class="st0" x1="362.6" y1="2.5" x2="362.6" y2="82.4"/>
	<line class="st0" x1="28" y1="82.4" x2="28" y2="2.5"/>
	<line class="st0" x1="362.6" y1="2.5" x2="362.6" y2="82.4"/>
	<path class="st1" d="M348.5,38.1c0,4.7-4,8.5-8.9,8.5s-8.9-3.8-8.9-8.5s4-8.5,8.9-8.5S348.5,33.4,348.5,38.1"/>
	<line class="st0" x1="28" y1="82.4" x2="28" y2="2.5"/>
	<line class="st0" x1="362.6" y1="2.5" x2="362.6" y2="82.4"/>
	<line class="st0" x1="28" y1="82.4" x2="28" y2="2.5"/>
	<line class="st0" x1="362.6" y1="2.5" x2="362.6" y2="82.4"/>
	<line class="st0" x1="28" y1="82.4" x2="28" y2="2.5"/>
	<line class="st0" x1="362.6" y1="2.5" x2="362.6" y2="82.4"/>
	<line class="st0" x1="28" y1="82.4" x2="28" y2="2.5"/>
	<line class="st0" x1="362.6" y1="2.5" x2="362.6" y2="82.4"/>
	<line class="st0" x1="28" y1="82.4" x2="28" y2="2.5"/>
	<line class="st0" x1="362.6" y1="2.5" x2="362.6" y2="82.4"/>
	<path class="st1" d="M353.7,33.1c-4.9,0-8.9-3.8-8.9-8.5s4-8.5,8.9-8.5s8.9,3.8,8.9,8.5S358.6,33.1,353.7,33.1"/>
	<line class="st0" x1="28" y1="82.4" x2="28" y2="2.5"/>
	<line class="st0" x1="362.6" y1="2.5" x2="362.6" y2="82.4"/>
	<line class="st0" x1="28" y1="82.4" x2="28" y2="2.5"/>
	<line class="st0" x1="362.6" y1="2.5" x2="362.6" y2="82.4"/>
	<line class="st0" x1="28" y1="82.4" x2="28" y2="2.5"/>
	<line class="st0" x1="362.6" y1="2.5" x2="362.6" y2="82.4"/>
	<line class="st0" x1="28" y1="82.4" x2="28" y2="2.5"/>
	<line class="st0" x1="362.6" y1="2.5" x2="362.6" y2="82.4"/>
	<line class="st0" x1="28" y1="82.4" x2="28" y2="2.5"/>
	<line class="st0" x1="362.6" y1="2.5" x2="362.6" y2="82.4"/>
	<path class="st1" d="M325.4,33.1c-4.9,0-8.9-3.8-8.9-8.5s4-8.5,8.9-8.5s8.9,3.8,8.9,8.5C334.4,29.3,330.4,33.1,325.4,33.1"/>
</g>
</svg>
