<?xml version="1.0" encoding="utf-8"?>
<!-- Generator: Adobe Illustrator 16.0.0, SVG Export Plug-In . SVG Version: 6.00 Build 0)  -->
<!DOCTYPE svg PUBLIC "-//W3C//DTD SVG 1.1//EN" "http://www.w3.org/Graphics/SVG/1.1/DTD/svg11.dtd">
<svg version="1.1" id="Layer_1" xmlns="http://www.w3.org/2000/svg" xmlns:xlink="http://www.w3.org/1999/xlink" x="0px" y="0px"
	 width="136.833px" height="136.833px" viewBox="0 0 136.833 136.833" style="enable-background:new 0 0 136.833 136.833;"
	 xml:space="preserve">
<style type="text/css">
<![CDATA[
	.st0{fill:#473D2E;}
	.st1{opacity:0.25;fill:#EFEFEF;}
	.st2{fill:#7B6854;}
	.st3{fill:#AAAAAA;}
	.st4{fill:#48B15A;}
	.st5{fill:#49A0AE;}
	.st6{fill:#AD2728;}
	.st7{fill:none;stroke:#888887;stroke-miterlimit:10;}
	.st8{fill-rule:evenodd;clip-rule:evenodd;fill:#3F3F3E;}
	.st9{fill-rule:evenodd;clip-rule:evenodd;fill:#3F7D92;}
	.st10{fill:#AEACAC;}
	.st11{fill:#E58E8F;}
	.st12{fill:#4ABC96;}
	.st13{fill:#E5E65D;}
	.st14{fill:#4B4A4B;}
	.st15{fill:#E6E768;}
	.st16{fill:#E79E2D;}
	.st17{fill:#E7E7E7;}
	.st18{fill:#E84849;}
	.st19{fill:#E8E7E7;}
	.st20{fill:#4E4E4E;}
	.st21{fill:#E9E4B1;}
	.st22{fill:#E9E9EA;}
	.st23{fill:#80702C;}
	.st24{fill:#807F7F;}
	.st25{fill:#818282;}
	.st26{fill:#82725A;}
	.st27{opacity:0.15;}
	.st28{fill:#83CECA;}
	.st29{fill:#B3DCE2;}
	.st30{fill:#1A3940;}
	.st31{fill:#B5B6B6;}
	.st32{fill:#B6E2EB;}
	.st33{fill:#886A29;}
	.st34{fill:#EBEDEF;}
	.st35{fill:#EBF6F9;}
	.st36{fill-rule:evenodd;clip-rule:evenodd;fill:#7D8880;}
	.st37{fill:#B9B9BA;}
	.st38{fill:#EDC92C;}
	.st39{fill:#504A2A;}
	.st40{fill:#EFC849;}
	.st41{fill:#55B966;}
	.st42{fill-rule:evenodd;clip-rule:evenodd;fill:#4B4A4B;}
	.st43{fill:#577D87;}
	.st44{fill:#58595A;}
	.st45{fill:#BBBCBB;}
	.st46{fill-rule:evenodd;clip-rule:evenodd;fill:#E84849;}
	.st47{fill:#202121;}
	.st48{fill:#F06668;}
	.st49{fill:#BFBEBE;}
	.st50{fill-rule:evenodd;clip-rule:evenodd;fill:#82725A;}
	.st51{fill:#231F20;}
	.st52{fill:#F2BE3E;}
	.st53{fill:#F2DE62;}
	.st54{fill:#F2EF8F;}
	.st55{fill:#F4E028;}
	.st56{fill:#5A5B5D;}
	.st57{fill-rule:evenodd;clip-rule:evenodd;fill:#B5B2B3;}
	.st58{opacity:0.4;clip-path:url(#SVGID_4_);fill:url(#SVGID_5_);}
	.st59{fill:#5B4F3F;}
	.st60{fill:#F6A2A3;}
	.st61{fill:#F6F6E7;}
	.st62{fill:#F7D98B;}
	.st63{fill:#5E8492;}
	.st64{fill:#F9F29A;}
	.st65{fill:#969595;}
	.st66{fill:#988534;}
	.st67{fill:#99999A;}
	.st68{fill:#FDF2F7;}
	.st69{fill:#FDF7FA;}
	.st70{fill:#2F6E77;}
	.st71{fill:#2F8442;}
	.st72{fill:#606060;}
	.st73{fill:#60C3B6;}
	.st74{fill-rule:evenodd;clip-rule:evenodd;fill:#F06668;}
	.st75{fill:none;stroke:#818282;stroke-miterlimit:10;}
	.st76{fill:#FFFFFF;}
	.st77{fill:#626463;}
	.st78{fill:#63BD6E;}
	.st79{fill-rule:evenodd;clip-rule:evenodd;fill:#245861;}
	.st80{fill:none;}
	.st81{fill:#9A866F;}
	.st82{clip-path:url(#SVGID_2_);fill:#90B9C0;}
	.st83{fill-rule:evenodd;clip-rule:evenodd;fill:#5B4F3F;}
	.st84{fill:#9B7842;}
	.st85{fill:#67B7C3;}
	.st86{fill:#67B8CB;}
	.st87{fill:#CC2027;}
	.st88{fill:#CDCDCE;}
	.st89{fill:#CE2F2E;}
	.st90{fill:#9F77AA;}
	.st91{opacity:0.7;fill:#FFFFFF;}
	.st92{fill-rule:evenodd;clip-rule:evenodd;fill:#C0BEBF;}
	.st93{fill:#333535;}
	.st94{fill:#357180;}
	.st95{opacity:0.4;clip-path:url(#SVGID_10_);fill:url(#SVGID_11_);}
	.st96{clip-path:url(#SVGID_2_);fill:#FFFFFF;}
	.st97{fill:#6CC077;}
	.st98{fill:#6EC2CB;}
	.st99{fill:#020202;}
	.st100{fill:#D32027;}
	.st101{fill:#D4A160;}
	.st102{fill:#D6E4F4;}
	.st103{fill:#D7D7D7;}
	.st104{fill:#D88080;}
	.st105{opacity:0.4;clip-path:url(#SVGID_7_);fill:url(#SVGID_8_);}
	.st106{fill-rule:evenodd;clip-rule:evenodd;fill:#CDCCCB;}
	.st107{fill:#A07238;}
	.st108{fill:#A2D4DE;}
	.st109{fill:#A3D4AA;}
	.st110{fill:#74C59C;}
	.st111{fill-rule:evenodd;clip-rule:evenodd;fill:#357180;}
	.st112{fill:#A4A5A4;}
	.st113{fill:#A5B6B9;}
	.st114{fill:#DAC425;}
	.st115{fill:#DBF0F5;}
	.st116{fill:#0EA24A;}
	.st117{fill:#DDDDDC;}
	.st118{fill:#DDDFDF;}
	.st119{fill:#40BCA3;}
	.st120{fill:#43A0AA;}
]]>
</style>
<g>
	<g>
		<g>
			<circle class="st98" cx="68.417" cy="68.416" r="63.333"/>
		</g>
	</g>
	<g>
		<g>
			<g>
				<path class="st21" d="M102.891,49.054H33.42c-5.136,0-8.366,3.231-8.366,8.364V94.4c0,5.135,3.23,8.367,8.366,8.367h69.471
					c5.136,0,8.368-3.232,8.368-8.367V57.418C111.259,52.286,108.026,49.054,102.891,49.054z M70.153,57.403
					c0.005-0.002,0.022-0.006,0.022-0.006c-0.023,0.018-0.052,0.031-0.076,0.048c-0.055,0.04-0.114,0.073-0.171,0.108
					c-0.102,0.064-0.205,0.122-0.316,0.173c-0.061,0.028-0.123,0.057-0.187,0.081c-0.12,0.049-0.243,0.084-0.368,0.115
					c-0.061,0.016-0.115,0.033-0.175,0.042c-0.189,0.038-0.382,0.06-0.578,0.06c-1.716,0-3.105-1.39-3.105-3.105
					c0-1.715,1.39-3.106,3.105-3.106c1.715,0,3.105,1.391,3.105,3.106C71.41,55.938,70.912,56.834,70.153,57.403z"/>
				<path class="st76" d="M69.058,57.923c-0.06,0.016-0.115,0.033-0.175,0.042C68.942,57.956,68.997,57.938,69.058,57.923z"/>
				<path class="st76" d="M70.1,57.445c-0.055,0.04-0.114,0.073-0.171,0.108C69.985,57.518,70.045,57.485,70.1,57.445z"/>
				<path class="st76" d="M69.612,57.727c-0.061,0.028-0.123,0.059-0.187,0.081C69.489,57.784,69.552,57.755,69.612,57.727z"/>
				<path class="st44" d="M68.305,58.024c0.196,0,0.389-0.022,0.578-0.06c0.06-0.009,0.115-0.026,0.175-0.042
					c0.125-0.031,0.248-0.068,0.368-0.115c0.063-0.022,0.126-0.053,0.187-0.081c0.111-0.051,0.215-0.108,0.316-0.173
					c0.057-0.036,0.116-0.068,0.171-0.108c0.019-0.013,0.035-0.031,0.054-0.042c-0.121,0.024-1.784,0.367-3.044-0.362
					c-1.358-0.789-1.91-2.122-1.91-2.122C65.199,56.634,66.589,58.024,68.305,58.024z"/>
				<path class="st76" d="M68.883,57.965c-0.189,0.038-0.382,0.06-0.578,0.06C68.501,58.024,68.693,58.002,68.883,57.965z"/>
				<path class="st76" d="M70.176,57.397c0,0-0.018,0.004-0.022,0.006c-0.019,0.011-0.035,0.029-0.054,0.042
					C70.124,57.428,70.152,57.415,70.176,57.397z"/>
				<path class="st76" d="M69.426,57.808c-0.12,0.047-0.243,0.084-0.368,0.115C69.183,57.892,69.306,57.856,69.426,57.808z"/>
				<path class="st76" d="M69.929,57.554c-0.102,0.064-0.205,0.122-0.316,0.173C69.724,57.675,69.827,57.618,69.929,57.554z"/>
			</g>
			<g>
				<defs>
					<path id="SVGID_1_" d="M105.925,94.798c0,1.572-1.272,2.842-2.843,2.842H82.598c-1.568,0-2.842-1.271-2.842-2.842V69.43
						c0-1.569,1.273-2.842,2.842-2.842h20.484c1.57,0,2.843,1.273,2.843,2.842V94.798z"/>
				</defs>
				<clipPath id="SVGID_2_">
					<use xlink:href="#SVGID_1_"  style="overflow:visible;"/>
				</clipPath>
				<path class="st82" d="M105.925,94.798c0,1.572-1.272,2.842-2.843,2.842H82.598c-1.568,0-2.842-1.271-2.842-2.842V69.43
					c0-1.569,1.273-2.842,2.842-2.842h20.484c1.57,0,2.843,1.273,2.843,2.842V94.798z"/>
				<path class="st96" d="M94.938,88.598V86.92c2.462-1.065,4.106-3.855,4.404-7.28c0.444-0.194,0.78-0.859,0.78-1.688
					c0-0.946-0.433-1.704-0.976-1.752c-0.754-3.338-3.151-5.058-6.423-5.058c-3.271,0-5.699,1.72-6.465,5.058
					c-0.543,0.044-0.978,0.807-0.978,1.752c0,0.829,0.334,1.492,0.78,1.688c0.298,3.405,1.95,6.186,4.398,7.264V88.6
					c-7.567,0.11-9,0.977-9,6.514v4.147h22.574v-4.147C104.035,89.555,102.559,88.704,94.938,88.598z"/>
			</g>
			<rect x="32.425" y="67.273" class="st59" width="39.142" height="4.451"/>
			<rect x="32.425" y="73.752" class="st59" width="39.142" height="1.899"/>
			<g>
				<rect x="54.477" y="79.525" class="st59" width="17.093" height="3.086"/>
				<rect x="32.425" y="79.525" class="st59" width="17.094" height="3.086"/>
			</g>
		</g>
		<g>
			<g>
				<g>
					<path class="st44" d="M73.814,49.042c0.396-0.783,0.622-1.665,0.622-2.599c0-1.219-2.47-2.138-5.744-2.138
						c-3.276,0-5.746,0.919-5.746,2.138c0,3.167,2.577,5.745,5.745,5.745c0.304,0,0.604-0.024,0.896-0.07
						c0,0,0.345,0.122,0.74,0.457c0.284,0.244,0.593,0.68,0.593,0.68c-0.703,0.223-1.453,0.345-2.229,0.345
						c-4.067,0-7.376-3.31-7.376-7.377c0-2.299,3.705-3.328,7.377-3.328s7.375,1.028,7.375,3.328c0,0.999-0.199,1.95-0.561,2.82
						L73.814,49.042z"/>
					<path class="st44" d="M73.814,49.042c0.396-0.783,0.622-1.665,0.622-2.599c0-1.219-2.47-2.138-5.744-2.138
						c-3.276,0-5.746,0.919-5.746,2.138c0,3.167,2.577,5.745,5.745,5.745c0.304,0,0.604-0.024,0.896-0.07
						c0,0,0.345,0.122,0.74,0.457c0.284,0.244,0.593,0.68,0.593,0.68c-0.703,0.223-1.453,0.345-2.229,0.345
						c-4.067,0-7.376-3.31-7.376-7.377c0-2.299,3.705-3.328,7.377-3.328s7.375,1.028,7.375,3.328c0,0.999-0.199,1.95-0.561,2.82
						L73.814,49.042z"/>
					<path class="st44" d="M73.814,49.042c0.396-0.783,0.622-1.665,0.622-2.599c0-1.219-2.47-2.138-5.744-2.138
						c-3.276,0-5.746,0.919-5.746,2.138c0,3.167,2.577,5.745,5.745,5.745c0.304,0,0.604-0.024,0.896-0.07
						c0,0,0.345,0.122,0.74,0.457c0.284,0.244,0.593,0.68,0.593,0.68c-0.703,0.223-1.453,0.345-2.229,0.345
						c-4.067,0-7.376-3.31-7.376-7.377c0-2.299,3.705-3.328,7.377-3.328s7.375,1.028,7.375,3.328c0,0.999-0.199,1.95-0.561,2.82
						L73.814,49.042z"/>
				</g>
			</g>
			<path class="st89" d="M74.748,44.127c0,0.793-1.234,1.437-2.755,1.437h-6.485c-1.521,0-2.755-0.643-2.755-1.437l0,0
				c0-0.794,1.233-1.437,2.755-1.437h6.485C73.514,42.69,74.748,43.333,74.748,44.127L74.748,44.127z"/>
			<g>
				<path class="st6" d="M69.021,32.561c0.83,4.058,2.04,8.203,3.785,12.187h0.191c7.356-18.206,7.221-32.943,6.793-38.625
					c-3.157-0.573-6.395-0.91-9.695-0.996C70.563,9.132,71.496,20.461,69.021,32.561z"/>
				<path class="st89" d="M65.043,44.748h0.192c1.745-3.984,2.955-8.129,3.786-12.187C66.539,20.427,67.484,9.072,67.95,5.095
					c-3.294,0.024-6.527,0.299-9.684,0.808C57.827,11.418,57.591,26.302,65.043,44.748z"/>
				<path class="st89" d="M65.235,44.748h7.571c-1.745-3.984-2.955-8.129-3.785-12.187C68.19,36.619,66.98,40.763,65.235,44.748z"/>
			</g>
		</g>
		<g>
			<path class="st1" d="M33.339,49.054c-5.136,0-8.366,3.231-8.366,8.364V94.4c0,5.135,3.23,8.367,8.366,8.367H91L37.288,49.054
				H33.339z"/>
			<path class="st103" d="M70.1,57.445c0.024-0.018,0.053-0.031,0.076-0.048c0,0-0.018,0.004-0.022,0.006
				C70.135,57.415,70.118,57.432,70.1,57.445z"/>
		</g>
	</g>
</g>
</svg>
