<?xml version="1.0" encoding="utf-8"?>
<!-- Generator: Adobe Illustrator 16.0.0, SVG Export Plug-In . SVG Version: 6.00 Build 0)  -->
<!DOCTYPE svg PUBLIC "-//W3C//DTD SVG 1.1//EN" "http://www.w3.org/Graphics/SVG/1.1/DTD/svg11.dtd">
<svg version="1.1" id="Layer_1" xmlns="http://www.w3.org/2000/svg" xmlns:xlink="http://www.w3.org/1999/xlink" x="0px" y="0px"
	 width="136.833px" height="136.834px" viewBox="0 0 136.833 136.834" style="enable-background:new 0 0 136.833 136.834;"
	 xml:space="preserve">
<style type="text/css">
<![CDATA[
	.st0{fill:#AAA79B;}
	.st1{fill:#AAAAAA;}
	.st2{fill:#49A0AE;}
	.st3{fill:#AD9030;}
	.st4{fill:#AE7B3E;}
	.st5{fill:#117F4A;}
	.st6{fill:#E03740;}
	.st7{opacity:0.15;fill:#F0EFED;}
	.st8{fill:#E13B3B;}
	.st9{fill:#E1C821;}
	.st10{fill:#E1DEDB;}
	.st11{fill:#E2C448;}
	.st12{fill:#E34F50;}
	.st13{fill:#4ABC96;}
	.st14{fill:#E5E5E5;}
	.st15{fill:#E7E7E7;}
	.st16{fill:#E84849;}
	.st17{fill:#E8E4AA;}
	.st18{fill:#E9C11E;}
	.st19{fill:#E9E9EA;}
	.st20{fill:#B19353;}
	.st21{clip-path:url(#SVGID_2_);fill:#AAAAAA;}
	.st22{fill:#B29C76;}
	.st23{fill:#838383;}
	.st24{fill:#B2B0A6;}
	.st25{fill:#B2B2B2;}
	.st26{fill:#B4B4B5;}
	.st27{fill:#867257;}
	.st28{fill:#86847D;}
	.st29{fill:#1B7A9A;}
	.st30{fill:#B6B3A1;}
	.st31{fill:#B6B6B7;}
	.st32{fill:#B6C2CB;}
	.st33{fill:#1C4C51;}
	.st34{fill:#888888;}
	.st35{fill:#EB9682;}
	.st36{fill:#898579;}
	.st37{fill:#B8D4D8;}
	.st38{fill:#ECE17E;}
	.st39{fill:#B9972F;}
	.st40{fill:#B9A57C;}
	.st41{fill:#B9B9BA;}
	.st42{fill:#EDC92C;}
	.st43{fill:#EDEBE7;}
	.st44{fill:#525252;}
	.st45{opacity:0.15;fill:#FFFFFF;}
	.st46{fill:#565453;}
	.st47{fill:#575656;}
	.st48{fill-rule:evenodd;clip-rule:evenodd;fill:#4B4A4B;}
	.st49{clip-path:url(#SVGID_4_);fill:#AAAAAA;}
	.st50{fill:#BAE2DD;}
	.st51{fill:#BBBCBB;}
	.st52{fill:#BDB36D;}
	.st53{fill:#202121;}
	.st54{clip-path:url(#SVGID_2_);fill:#1B7A9A;}
	.st55{fill:#239563;}
	.st56{fill:#F37C2A;}
	.st57{fill:#255860;}
	.st58{fill:#F3EED5;}
	.st59{fill:#F4E028;}
	.st60{fill:#F4F4EE;}
	.st61{fill:#5ABE8F;}
	.st62{fill:#F6F2E4;}
	.st63{fill:#5C5853;}
	.st64{fill:#5C5C5C;}
	.st65{fill-rule:evenodd;clip-rule:evenodd;fill:#EB6C25;}
	.st66{fill:#2992AD;}
	.st67{fill:#5E5F5E;}
	.st68{fill:#F9F29A;}
	.st69{clip-path:url(#SVGID_2_);}
	.st70{clip-path:url(#SVGID_4_);}
	.st71{fill:#C0BFBC;}
	.st72{fill:#C0C0C0;}
	.st73{fill:#C1914F;}
	.st74{fill:#93793D;}
	.st75{fill:#C3C3C3;}
	.st76{fill:#C3D5C7;}
	.st77{fill:#C4A830;}
	.st78{clip-path:url(#SVGID_4_);fill:#1B7A9A;}
	.st79{fill:#C698C5;}
	.st80{fill:#972627;}
	.st81{fill:#C6C5C5;}
	.st82{fill:#C74A39;}
	.st83{fill:#C84027;}
	.st84{opacity:0.1;}
	.st85{fill:#616161;}
	.st86{fill:#FFCE00;}
	.st87{fill:#FFF5F4;}
	.st88{fill:#FFFFFF;}
	.st89{fill:#63BD6E;}
	.st90{fill-rule:evenodd;clip-rule:evenodd;fill:#F37C2A;}
	.st91{fill:none;}
	.st92{fill:#65A844;}
	.st93{fill:#667580;}
	.st94{fill:#CAE8E4;}
	.st95{fill:#9C9C9C;}
	.st96{fill:#CBBD7D;}
	.st97{fill:#CC4028;}
	.st98{fill:#CCC375;}
	.st99{fill:#CCC788;}
	.st100{fill:#9DDAEC;}
	.st101{fill:#CDAB2D;}
	.st102{fill:#CDCCCB;}
	.st103{fill:#CDCDCE;}
	.st104{fill:#CDE7D5;}
	.st105{fill:#9F77AA;}
	.st106{fill:#CECBCB;}
	.st107{fill:#357180;}
	.st108{fill:#6BA297;}
	.st109{fill:#6EC2CB;}
	.st110{fill:#D0D1D1;}
	.st111{fill:#D1974F;}
	.st112{fill:#D1AFD2;}
	.st113{fill:#D22027;}
	.st114{fill:#D2B63D;}
	.st115{fill:#D2D2D2;}
	.st116{fill:#D32033;}
	.st117{clip-path:url(#SVGID_2_);fill:#CDCDCE;}
	.st118{fill:#D51F31;}
	.st119{fill:#D5C7C3;}
	.st120{fill:#D5D6D5;}
	.st121{fill:#3B3A38;}
	.st122{fill:#3B6DA2;}
	.st123{fill:#D6CB78;}
	.st124{fill:#D73D3D;}
	.st125{fill:#D7B029;}
	.st126{fill:#D8D8D7;}
	.st127{fill:#A03D3D;}
	.st128{fill:#A09592;}
	.st129{fill:#717171;}
	.st130{fill:#A19F9F;}
	.st131{fill:#727172;}
	.st132{fill:#F9F29A;stroke:#E1C821;stroke-miterlimit:10;}
	.st133{fill:#A2D1C9;}
	.st134{fill:#A33B3B;}
	.st135{fill:#A48A47;}
	.st136{fill:#DAC425;}
	.st137{fill:#786547;}
	.st138{fill:#787878;}
	.st139{fill:#A7A8A7;}
	.st140{fill-rule:evenodd;clip-rule:evenodd;fill:#6DABB5;}
	.st141{fill:#DCD99D;}
	.st142{fill:#DD5231;}
	.st143{clip-path:url(#SVGID_4_);fill:#CDCDCE;}
	.st144{fill:#DDDACA;}
	.st145{fill:#DDDCD6;}
	.st146{fill:#DDDDDC;}
	.st147{fill:#404040;}
	.st148{fill:#DEBA24;}
	.st149{fill:#DFBFDB;}
	.st150{fill:#DFD48A;}
	.st151{fill:#DFDFDF;}
	.st152{fill:#444545;}
	.st153{fill:#45423F;}
]]>
</style>
<g>
	<g>
		<circle class="st86" cx="68.417" cy="68.417" r="63.333"/>
		<g>
			<g>
				<g>
					<defs>
						<path id="SVGID_3_" d="M83.962,18.157c1.803,0,3.266,1.461,3.266,3.264v49.656c0,1.803-1.463,3.266-3.266,3.266H54.167
							c-1.801,0-3.264-1.463-3.264-3.266V21.421c0-1.803,1.463-3.264,3.264-3.264H83.962z"/>
					</defs>
					<clipPath id="SVGID_2_">
						<use xlink:href="#SVGID_3_"  style="overflow:visible;"/>
					</clipPath>
					<path class="st54" d="M83.962,18.157c1.803,0,3.266,1.461,3.266,3.264v49.656c0,1.803-1.463,3.266-3.266,3.266H54.167
						c-1.801,0-3.264-1.463-3.264-3.266V21.421c0-1.803,1.463-3.264,3.264-3.264H83.962z"/>
					<g class="st69">
						<path class="st66" d="M61.437,34.124c0,0,0.945,4.568,0.068,6.207c0,0-1.416,1.09-0.201,4.158c0,0,3.236,5.385,6.473,5.453
							c0,0,6.408,1.5,7.285-4.158c0,0-1.955-5.932,0.338-6.684c0,0,2.832-0.203,3.439-0.748c0,0,1.303-0.887,2.088-0.818
							c0,0,2.631,0.613,4.654-0.205c0,0,1.754-0.545,2.293-0.477c0,0-1.482-5.182-6.34-6.818c0,0-3.371-0.955-4.248-1.023
							c0,0-3.91-1.363-5.125-1.705c0,0-3.643-1.227-3.17,0.818c0,0-1.35,1.432-2.359,2.455
							C65.62,31.601,61.776,33.579,61.437,34.124z"/>
						<path class="st66" d="M66.497,29.556l-5.26,5.729c0,0-1.082-1.227-1.688-0.818c-0.607,0.408,0.201,1.295,0.201,2.045
							s0.607,1.773,0.068,2.182s-0.404,0.684-0.068,1.092c0.338,0.408,0.879,1.158,0.539,1.227c-0.336,0.07-0.201,1.295-0.539,1.363
							c-0.336,0.068-1.279-0.203-1.078,0.41c0.201,0.611,0.877,1.5,1.215,1.637c0.336,0.135,1.35,0.613,1.35,1.09
							c0,0.479,0.268,1.705-0.137,1.91c-0.404,0.203-1.754,0.613-2.158,0.203c-0.406-0.408,0.021-2.41-0.471-2.316
							c-0.494,0.092-1.582,0.328-1.734,0.025c-0.154-0.299-1.908-1.117-2.109-1.662c-0.203-0.545,0.539-1.979,0.066-2.18
							c0,0-1.416-0.07-1.619,0.201c-0.201,0.273-0.809,0.479-0.742,0.955c0.068,0.479,0.541,0.682,0.742,0.344
							c0.203-0.344,1.012-0.617,1.012-0.412s0.137,2.047-0.336,2.113c-0.473,0.068-1.619-0.203-2.023-0.816
							c-0.404-0.615-0.338-1.91-0.135-2.32c0.201-0.408-0.203-0.885-0.541-1.021c-0.336-0.137-1.467,1.938-1.467,2.553
							c0,0,1.209-16.16,17.727-18.934c0,0-5.672,1.721-6.008,2.881c0,0,0.404,0.613,0.336,1.021c-0.066,0.41-1.35,2.455-1.01,2.592
							c0.336,0.137,1.482-0.955,1.617-2.113s0.271-1.229,0.877-1.297c0.607-0.066,1.551-0.271,2.158-0.135
							C65.89,27.237,67.71,28.056,66.497,29.556z"/>
						<path class="st66" d="M54.493,46.466c0,0,0.336,0.545,0.809,0.818c0.471,0.273,0.875,0.273,0.875,0.273
							s0.203-0.348,0.203-0.695c0-0.35-0.338-1.283-0.809-1.283C55.099,45.579,54.493,46.466,54.493,46.466z"/>
						<path class="st66" d="M50.446,47.284c0,0,1.955,1.637,2.158,2.453c0.203,0.82,0.875,2.182,1.146,2.523
							c0.27,0.342-0.203,1.5-0.742,0.818c-0.541-0.682-1.752-2.521-1.889-2.113c-0.135,0.408,1.146,2.25,1.688,3
							c0.537,0.75,1.346,1.363,1.887,1.703c0.539,0.344,1.955,0.273,2.227,1.023c0.268,0.75,1.615,4.023,2.563,5.115
							c0.943,1.09,1.641,2.264,2.584,2.742c0.945,0.477-1.508-0.242-2.41-0.662c0,0-5.164-2.9-8.4-9.514
							C51.257,54.374,49.974,49.329,50.446,47.284z"/>
						<path class="st66" d="M74.185,66.374c0,0-3.641,0.684-3.98-0.066c-0.338-0.752-0.406-0.977,0.271-1.637s1.82-1.568,2.428-1.91
							c0.607-0.34,1.348-1.568,1.82-1.568s1.619,0.273,2.158,0c0.541-0.271,0.607-0.682,0.877-1.295
							c0.268-0.613,0.674-1.773,1.281-2.455s1.348-1.635,2.156-1.43c0.811,0.201,2.027,0.611,2.496,0.477
							c0.473-0.137,1.281-0.615,1.619-0.07c0.338,0.547,0.27,0.955,0.875,0.889c0.609-0.07,2.494-0.752,2.832-0.957
							C89.019,56.351,85.401,64.851,74.185,66.374z"/>
						<path class="st66" d="M66.69,65.444c-0.471-0.137-2.832-0.479-2.832-0.068c2.953,0.799,2.914,0.771,5.125,1.092"/>
					</g>
					<path class="st21" d="M77.212,59.218c0.832,0,1.508,0.4,1.508,0.893v9.064c0,0.492-0.676,0.893-1.508,0.893l0,0
						c-0.832,0-1.506-0.4-1.506-0.893V60.11C75.706,59.618,76.38,59.218,77.212,59.218L77.212,59.218z"/>
					<path class="st21" d="M77.212,46.796c0.832,0,1.508,0.4,1.508,0.893v9.066c0,0.492-0.676,0.891-1.508,0.891l0,0
						c-0.832,0-1.506-0.398-1.506-0.891v-9.066C75.706,47.196,76.38,46.796,77.212,46.796L77.212,46.796z"/>
					<path class="st21" d="M77.212,34.468c0.832,0,1.508,0.4,1.508,0.893v9.066c0,0.49-0.676,0.893-1.508,0.893l0,0
						c-0.832,0-1.506-0.402-1.506-0.893V35.36C75.706,34.868,76.38,34.468,77.212,34.468L77.212,34.468z"/>
					<path class="st21" d="M77.212,22.241c0.834,0,1.514,0.4,1.514,0.896v9.09c0,0.494-0.68,0.893-1.514,0.893l0,0
						c-0.834,0-1.51-0.398-1.51-0.893v-9.09C75.702,22.642,76.378,22.241,77.212,22.241L77.212,22.241z"/>
					<g class="st69">
						<rect x="61.78" y="59.509" class="st51" width="1.121" height="9.674"/>
						<rect x="59.774" y="59.509" class="st51" width="0.943" height="9.674"/>
						<g>
							<path class="st103" d="M62.577,65.577c0.602,0,1.09-0.523,1.09-1.168c0-0.648-0.488-1.172-1.09-1.172h-3.863v2.34H62.577z"/>
							<path class="st51" d="M57.415,65.44v2.41c0,0.736,0.557,1.332,1.242,1.332h0.057v-3.605h-0.797
								C57.735,65.577,57.565,65.524,57.415,65.44z"/>
							<path class="st51" d="M58.657,59.509c-0.686,0-1.242,0.596-1.242,1.33v2.535c0.15-0.084,0.32-0.137,0.502-0.137h0.797v-3.729
								H58.657z"/>
							<path class="st103" d="M57.415,63.374v2.066c0.15,0.084,0.32,0.137,0.502,0.137h0.797v-2.34h-0.797
								C57.735,63.237,57.565,63.29,57.415,63.374z"/>
						</g>
						<path class="st51" d="M64.089,69.183c0.684,0,1.24-0.596,1.24-1.332v-7.012c0-0.734-0.557-1.33-1.24-1.33h-0.127v9.674H64.089
							z"/>
						<rect x="58.714" y="59.509" class="st103" width="1.061" height="9.674"/>
						<rect x="60.718" y="59.509" class="st103" width="1.063" height="9.674"/>
						<rect x="62.901" y="59.509" class="st103" width="1.061" height="9.674"/>
					</g>
					<path class="st117" d="M54.257,29.757c0,1.764,0.674,3.375,1.771,4.584c-0.973,1.15-1.561,2.637-1.561,4.262
						c0,3.65,2.957,6.607,6.607,6.607s6.607-2.957,6.607-6.607c0-1.625-0.59-3.111-1.561-4.262c1.1-1.209,1.77-2.82,1.77-4.584
						c0-3.766-3.051-6.816-6.816-6.816C57.312,22.94,54.257,25.991,54.257,29.757z M65.599,25.231
						c1.158,1.16,1.873,2.76,1.873,4.525c0,1.643-0.619,3.137-1.637,4.27c-0.223-0.232-0.465-0.451-0.721-0.65v1.342
						c-0.201,0.164-0.414,0.316-0.633,0.453v-2.23c-0.234-0.141-0.482-0.27-0.736-0.381v3.012c-0.203,0.094-0.416,0.178-0.633,0.248
						v-3.502c-0.238-0.076-0.482-0.141-0.732-0.191v3.893c-0.209,0.045-0.42,0.078-0.633,0.1v-4.086
						c-0.223-0.023-0.447-0.035-0.672-0.035c-0.021,0-0.043,0-0.063,0v4.156c-0.215-0.004-0.426-0.016-0.635-0.035v-4.084
						c-0.248,0.025-0.494,0.066-0.734,0.119v3.838c-0.215-0.049-0.426-0.107-0.631-0.178v-3.488
						c-0.252,0.084-0.498,0.182-0.736,0.293v2.893c-0.217-0.105-0.428-0.225-0.631-0.354v-2.203
						c-0.258,0.158-0.502,0.334-0.736,0.521v1.135c-0.123-0.105-0.242-0.215-0.359-0.328c-1.156-1.162-1.873-2.76-1.873-4.525
						s0.717-3.365,1.873-4.525c1.16-1.156,2.76-1.871,4.525-1.871C62.843,23.36,64.438,24.075,65.599,25.231z M66.054,22.919
						c-0.129,0.133-0.195,0.297-0.195,0.484c0,0.189,0.066,0.352,0.195,0.484c0.127,0.133,0.291,0.199,0.488,0.199
						c0.189,0,0.348-0.066,0.477-0.199c0.131-0.133,0.195-0.295,0.195-0.484c0-0.188-0.064-0.352-0.195-0.484
						c-0.129-0.133-0.287-0.201-0.477-0.201C66.345,22.718,66.181,22.786,66.054,22.919z M66.942,23.009
						c0.111,0.109,0.166,0.24,0.166,0.395s-0.055,0.287-0.166,0.4c-0.111,0.111-0.244,0.168-0.4,0.168
						c-0.172,0-0.311-0.057-0.418-0.168c-0.109-0.113-0.162-0.246-0.162-0.4s0.053-0.285,0.162-0.395
						c0.107-0.107,0.246-0.162,0.418-0.162C66.698,22.847,66.831,22.901,66.942,23.009z M66.351,23.093
						c-0.139,0-0.207,0.096-0.207,0.285v0.281h0.785v-0.115h-0.334v-0.121l0.334-0.195v-0.135L66.567,23.3
						C66.567,23.163,66.497,23.093,66.351,23.093z M66.476,23.417v0.127h-0.229v-0.166c0-0.111,0.035-0.168,0.104-0.168
						C66.435,23.21,66.476,23.278,66.476,23.417z"/>
				</g>
			</g>
			<g>
				<path class="st0" d="M91.896,111.71c0,3.631-8.256,8.158-23.006,8.158s-22.99-4.527-22.99-8.158V52.491
					c0-3.629,2.941-6.57,6.57-6.57h32.854c3.631,0,6.572,2.941,6.572,6.57V111.71z"/>
				<path class="st24" d="M68.89,119.869c-14.75,0-22.99-4.527-22.99-8.158V52.491c0-3.629,2.941-6.57,6.57-6.57h16.42V119.869z"/>
				<path class="st104" d="M88.062,67.249c0,3.023-2.451,3.285-5.477,3.285H55.208c-3.023,0-5.477-0.262-5.477-3.285V55.327
					c0-3.023,2.453-3.793,5.477-3.793h27.377c3.025,0,5.477,0.77,5.477,3.793V67.249z"/>
				<path class="st76" d="M88.062,67.249c0,3.023-2.451,3.285-5.477,3.285H55.208c-3.023,0-5.477-0.262-5.477-3.285l38.33-11.922
					V67.249z"/>
				<g>
					<path class="st28" d="M60.739,84.386c0,0.713-0.576,1.293-1.291,1.293h-7.859c-0.713,0-1.291-0.58-1.291-1.293v-6.852
						c0-0.715,0.578-1.293,1.291-1.293h7.859c0.715,0,1.291,0.579,1.291,1.293V84.386z"/>
					<path class="st28" d="M88.257,84.386c0,0.713-0.578,1.293-1.291,1.293h-7.859c-0.713,0-1.291-0.58-1.291-1.293v-6.852
						c0-0.715,0.578-1.293,1.291-1.293h7.859c0.713,0,1.291,0.579,1.291,1.293V84.386z"/>
					<path class="st28" d="M74.521,84.386c0,0.713-0.578,1.293-1.291,1.293H65.37c-0.713,0-1.291-0.58-1.291-1.293v-6.852
						c0-0.715,0.578-1.293,1.291-1.293h7.859c0.713,0,1.291,0.579,1.291,1.293V84.386z"/>
					<g>
						<path class="st28" d="M60.739,96.734c0,0.715-0.576,1.291-1.291,1.291h-7.859c-0.713,0-1.291-0.576-1.291-1.291V89.88
							c0-0.713,0.578-1.291,1.291-1.291h7.859c0.715,0,1.291,0.578,1.291,1.291V96.734z"/>
						<path class="st28" d="M88.257,96.734c0,0.715-0.578,1.291-1.291,1.291h-7.859c-0.713,0-1.291-0.576-1.291-1.291V89.88
							c0-0.713,0.578-1.291,1.291-1.291h7.859c0.713,0,1.291,0.578,1.291,1.291V96.734z"/>
						<path class="st28" d="M74.521,96.734c0,0.715-0.578,1.291-1.291,1.291H65.37c-0.713,0-1.291-0.576-1.291-1.291V89.88
							c0-0.713,0.578-1.291,1.291-1.291h7.859c0.713,0,1.291,0.578,1.291,1.291V96.734z"/>
					</g>
					<g>
						<path class="st28" d="M60.739,109.029c0,0.713-0.576,1.291-1.291,1.291h-7.859c-0.713,0-1.291-0.578-1.291-1.291v-6.854
							c0-0.715,0.578-1.293,1.291-1.293h7.859c0.715,0,1.291,0.578,1.291,1.293V109.029z"/>
						<path class="st28" d="M88.257,109.029c0,0.713-0.578,1.291-1.291,1.291h-7.859c-0.713,0-1.291-0.578-1.291-1.291v-6.854
							c0-0.715,0.578-1.293,1.291-1.293h7.859c0.713,0,1.291,0.578,1.291,1.293V109.029z"/>
						<path class="st28" d="M74.521,109.029c0,0.713-0.578,1.291-1.291,1.291H65.37c-0.713,0-1.291-0.578-1.291-1.291v-6.854
							c0-0.715,0.578-1.293,1.291-1.293h7.859c0.713,0,1.291,0.578,1.291,1.293V109.029z"/>
					</g>
				</g>
				<g>
					<path class="st145" d="M60.364,83.886c0,0.713-0.576,1.293-1.291,1.293h-7.859c-0.713,0-1.291-0.58-1.291-1.293v-6.852
						c0-0.715,0.578-1.293,1.291-1.293h7.859c0.715,0,1.291,0.578,1.291,1.293V83.886z"/>
					<path class="st145" d="M87.882,83.886c0,0.713-0.578,1.293-1.291,1.293h-7.859c-0.713,0-1.291-0.58-1.291-1.293v-6.852
						c0-0.715,0.578-1.293,1.291-1.293h7.859c0.713,0,1.291,0.578,1.291,1.293V83.886z"/>
					<path class="st145" d="M74.146,83.886c0,0.713-0.578,1.293-1.291,1.293h-7.859c-0.713,0-1.291-0.58-1.291-1.293v-6.852
						c0-0.715,0.578-1.293,1.291-1.293h7.859c0.713,0,1.291,0.578,1.291,1.293V83.886z"/>
					<g>
						<path class="st145" d="M60.364,96.234c0,0.715-0.576,1.291-1.291,1.291h-7.859c-0.713,0-1.291-0.576-1.291-1.291V89.38
							c0-0.713,0.578-1.291,1.291-1.291h7.859c0.715,0,1.291,0.578,1.291,1.291V96.234z"/>
						<path class="st145" d="M87.882,96.234c0,0.715-0.578,1.291-1.291,1.291h-7.859c-0.713,0-1.291-0.576-1.291-1.291V89.38
							c0-0.713,0.578-1.291,1.291-1.291h7.859c0.713,0,1.291,0.578,1.291,1.291V96.234z"/>
						<path class="st145" d="M74.146,96.234c0,0.715-0.578,1.291-1.291,1.291h-7.859c-0.713,0-1.291-0.576-1.291-1.291V89.38
							c0-0.713,0.578-1.291,1.291-1.291h7.859c0.713,0,1.291,0.578,1.291,1.291V96.234z"/>
					</g>
					<g>
						<path class="st145" d="M60.364,108.529c0,0.713-0.576,1.291-1.291,1.291h-7.859c-0.713,0-1.291-0.578-1.291-1.291v-6.854
							c0-0.715,0.578-1.293,1.291-1.293h7.859c0.715,0,1.291,0.578,1.291,1.293V108.529z"/>
						<path class="st145" d="M87.882,108.529c0,0.713-0.578,1.291-1.291,1.291h-7.859c-0.713,0-1.291-0.578-1.291-1.291v-6.854
							c0-0.715,0.578-1.293,1.291-1.293h7.859c0.713,0,1.291,0.578,1.291,1.293V108.529z"/>
						<path class="st145" d="M74.146,108.529c0,0.713-0.578,1.291-1.291,1.291h-7.859c-0.713,0-1.291-0.578-1.291-1.291v-6.854
							c0-0.715,0.578-1.293,1.291-1.293h7.859c0.713,0,1.291,0.578,1.291,1.293V108.529z"/>
					</g>
				</g>
			</g>
		</g>
	</g>
</g>
</svg>
