<?xml version="1.0" encoding="utf-8"?>
<!-- Generator: Adobe Illustrator 16.0.0, SVG Export Plug-In . SVG Version: 6.00 Build 0)  -->
<!DOCTYPE svg PUBLIC "-//W3C//DTD SVG 1.1//EN" "http://www.w3.org/Graphics/SVG/1.1/DTD/svg11.dtd">
<svg version="1.1" id="Layer_1" xmlns="http://www.w3.org/2000/svg" xmlns:xlink="http://www.w3.org/1999/xlink" x="0px" y="0px"
	 width="136.914px" height="136.914px" viewBox="0 0 136.914 136.914" enable-background="new 0 0 136.914 136.914"
	 xml:space="preserve">
<g>
	<g>
		<g>
			<g>
				<g>
					<circle fill="#A2D4DE" cx="68.457" cy="68.457" r="63.333"/>
				</g>
			</g>
		</g>
	</g>
	<g>
		<g>
			<g>
				<g>
					<path fill="#5B4F3F" d="M42.48,64.122l-9.651,5.427l9.651,5.425c1.335,0.751,2.003,2.101,2.003,4.049
						c0,1.238-0.289,2.322-0.865,3.25c-0.579,0.931-1.294,1.395-2.144,1.395c-0.396,0-0.792-0.109-1.186-0.331l-17.1-9.612
						c-1.641-0.928-2.462-2.32-2.462-4.175c0-1.856,0.821-3.249,2.462-4.177l17.1-9.612c0.394-0.22,0.79-0.331,1.186-0.331
						c0.85,0,1.564,0.465,2.144,1.393c0.576,0.93,0.865,2.015,0.865,3.253C44.483,62.021,43.815,63.37,42.48,64.122z"/>
				</g>
			</g>
			<g>
				<g>
					<path fill="#5B4F3F" d="M92.481,60.074c0-1.238,0.289-2.323,0.865-3.253c0.578-0.928,1.293-1.393,2.144-1.393
						c0.396,0,0.791,0.111,1.186,0.331l17.1,9.612c1.641,0.928,2.462,2.32,2.462,4.177c0,1.854-0.821,3.247-2.462,4.175l-17.1,9.612
						c-0.395,0.222-0.79,0.331-1.186,0.331c-0.851,0-1.565-0.464-2.144-1.395c-0.576-0.928-0.865-2.012-0.865-3.25
						c0-1.948,0.667-3.298,2.003-4.049l9.65-5.425l-9.65-5.427C93.148,63.37,92.481,62.021,92.481,60.074z"/>
				</g>
			</g>
			<g>
				<path fill="#5B4F3F" d="M72.868,88.734c-0.866,1.888-3.1,2.714-4.986,1.848l0,0c-1.887-0.866-2.714-3.099-1.848-4.986
					l17.181-37.407c0.865-1.888,3.097-2.714,4.984-1.848l0,0c1.889,0.866,2.715,3.1,1.848,4.985L72.868,88.734z"/>
			</g>
		</g>
	</g>
</g>
</svg>
