<?xml version="1.0" encoding="utf-8"?>
<!-- Generator: Adobe Illustrator 16.0.0, SVG Export Plug-In . SVG Version: 6.00 Build 0)  -->
<!DOCTYPE svg PUBLIC "-//W3C//DTD SVG 1.1//EN" "http://www.w3.org/Graphics/SVG/1.1/DTD/svg11.dtd">
<svg version="1.1" id="Layer_1" xmlns="http://www.w3.org/2000/svg" xmlns:xlink="http://www.w3.org/1999/xlink" x="0px" y="0px"
	 width="136.913px" height="136.914px" viewBox="0 0 136.913 136.914" enable-background="new 0 0 136.913 136.914"
	 xml:space="preserve">
<g>
	<g>
		<g>
			<g>
				<g>
					<circle fill="#4ABC96" cx="68.457" cy="68.457" r="63.333"/>
				</g>
			</g>
		</g>
	</g>
	<g>
		<g>
			<g>
				<defs>
					<path id="SVGID_13_" d="M117.19,46.223c0-5.996-4.861-10.859-10.861-10.859h-72.85c-5.998,0-10.859,4.863-10.859,10.859v45.175
						c0,5.997,4.861,10.859,10.859,10.859h72.85c6,0,10.861-4.862,10.861-10.859V46.223z"/>
				</defs>
				<clipPath id="SVGID_2_">
					<use xlink:href="#SVGID_13_"  overflow="visible"/>
				</clipPath>
				<g clip-path="url(#SVGID_2_)">
					<path fill="#E0E4E3" d="M117.19,46.223c0-5.996-4.861-10.859-10.861-10.859h-72.85c-5.998,0-10.859,4.863-10.859,10.859v45.175
						c0,5.997,4.861,10.859,10.859,10.859h72.85c6,0,10.861-4.862,10.861-10.859V46.223z"/>
					<g>
						<path fill="#D1D3D3" d="M117.12,45.019c-0.6-5.429-5.198-9.656-10.791-9.656h-72.85c-5.998,0-10.859,4.863-10.859,10.859
							v2.196h94.5V45.019z"/>
					</g>
				</g>
				<g clip-path="url(#SVGID_2_)">
					<g>
						<circle fill="#E84849" cx="31.285" cy="41.691" r="2.376"/>
					</g>
					<g>
						<circle fill="#EFC849" cx="40.285" cy="41.691" r="2.374"/>
					</g>
					<g>
						<circle fill="#37B34C" cx="49.285" cy="41.691" r="2.376"/>
					</g>
				</g>
			</g>
		</g>
		<g>
			<g>
				<path fill="#DDA027" d="M98.403,92.417c0.129,1.988-0.248,3.644-1.373,3.744s-7.021-6.008-8.789-5.851
					c-1.768,0.158-6.125,7.639-7.6,7.318c-1.477-0.32-1.715-1.468-1.846-3.456l1.154-21.826c-0.129-1.988,1.49-3.753,3.621-3.945
					l6.748-0.605c2.131-0.189,3.963,1.269,4.092,3.255L98.403,92.417z"/>
			</g>
			<g>
				<path fill="#DA9027" d="M95.101,91.522c0.025,2.001-1.775,4.633-2.898,4.712c-1.125,0.078-5.326-7.155-7.092-7.033
					c-1.766,0.124-6.488,7.553-7.939,7.201s-1.625-1.508-1.652-3.508l2.285-21.908c-0.025-2,1.678-3.742,3.807-3.891l6.74-0.473
					c2.127-0.148,3.873,1.352,3.9,3.352L95.101,91.522z"/>
			</g>
			<g>
				<path fill="#DEBA24" d="M93.69,92.754c-0.102,1.997-0.668,3.609-1.793,3.594c-1.127-0.015-6.252-6.713-8.021-6.737
					c-1.77-0.022-6.957,6.998-8.381,6.526c-1.424-0.471-1.523-1.639-1.424-3.637l3.691-21.66c0.104-1.997,1.914-3.593,4.045-3.565
					l6.754,0.087c2.131,0.027,3.777,1.668,3.674,3.666L93.69,92.754z"/>
			</g>
			<g>
				<path fill="#CC3432" d="M100.173,67.264c0,2.43-1.969,4.398-4.398,4.398H77.45c-2.428,0-4.396-1.969-4.396-4.398V48.939
					c0-2.428,1.969-4.396,4.396-4.396h18.324c2.43,0,4.398,1.969,4.398,4.396V67.264z"/>
			</g>
			<g>
				<path fill="#CC3432" d="M89.724,74.169c-1.719,1.718-4.504,1.718-6.221,0L70.546,61.212c-1.717-1.719-1.717-4.503,0-6.219
					l12.957-12.958c1.717-1.717,4.502-1.717,6.221,0l12.957,12.958c1.717,1.716,1.717,4.5,0,6.219L89.724,74.169z"/>
			</g>
			<g>
				<circle fill="#DDA027" cx="86.612" cy="58.102" r="12.094"/>
			</g>
			<g>
				<circle fill="#DEBA24" cx="86.613" cy="58.102" r="9.528"/>
			</g>
		</g>
	</g>
</g>
</svg>
