<?xml version="1.0" encoding="utf-8"?>
<!-- Generator: Adobe Illustrator 16.0.0, SVG Export Plug-In . SVG Version: 6.00 Build 0)  -->
<!DOCTYPE svg PUBLIC "-//W3C//DTD SVG 1.1//EN" "http://www.w3.org/Graphics/SVG/1.1/DTD/svg11.dtd">
<svg version="1.1" id="Layer_1" xmlns="http://www.w3.org/2000/svg" xmlns:xlink="http://www.w3.org/1999/xlink" x="0px" y="0px"
	 width="136.914px" height="136.913px" viewBox="0 0 136.914 136.913" enable-background="new 0 0 136.914 136.913"
	 xml:space="preserve">
<g>
	<g>
		<g>
			<circle fill="#4ABC96" cx="68.457" cy="68.457" r="63.333"/>
		</g>
	</g>
	<g>
		<g>
			<path fill="#357180" d="M70.616,112.689c-1.377-0.643-2.221-1.088-2.221-2.066c0-0.871,0.423-1.295,1.291-1.295
				c0.914,0,1.361,0.432,1.649,1.592l0.108,0.432h1.564l-0.314-3.574l-0.484-0.033c-0.33-0.021-0.659-0.088-0.989-0.152
				c-0.456-0.092-0.926-0.184-1.417-0.184c-2.453,0-4.232,1.518-4.232,3.611c0,2.596,1.891,3.467,3.411,4.166
				c1.242,0.574,1.945,0.939,1.945,1.752c0,0.373,0,1.516-1.687,1.516c-0.617,0-1.567-0.33-1.751-0.699
				c-0.14-0.281-0.392-0.895-0.511-1.844l-0.087-0.684l-1.571,0.52l0.212,3.354l0.22,0.156c0.914,0.654,2.466,0.949,3.597,0.949
				c2.59,0,4.398-1.646,4.398-4.002C73.748,114.152,72.013,113.342,70.616,112.689z"/>
		</g>
		<g>
			<path fill="#357180" d="M26.905,64.434l1.466,0.25l-1.742,5.551L24.88,64.68l1.406-0.25v-1.607h-5.47v1.605l1.39,0.254
				c-0.104,0.352-0.246,0.74-0.407,1.182l-1.396,4.359L18.83,64.68l1.368-0.252v-1.605h-5.466v1.586l1.349,0.305l3.013,10.629h1.683
				l2.393-7.092l2.256,7.092h1.671l3.414-10.637l1.19-0.311v-1.572h-4.795V64.434z"/>
		</g>
		<g>
			<path fill="#357180" d="M71.488,19.834l1.466,0.281v5.854l-6.726-7.73h-3.927v1.592l1.408,0.283v8.518l-1.408,0.227v1.615h5.246
				v-1.625l-1.573-0.227v-6.367c1.126,1.266,2.7,3.057,4.102,4.652c1.396,1.59,2.625,2.988,3.081,3.49l0.168,0.188h1.894V20.113
				l1.407-0.283v-1.592h-5.138V19.834z"/>
		</g>
		<g>
			<path fill="#357180" d="M116.363,71.219l-0.617,1.631h-3.325v-3.133l1.793,0.037L114.499,71h1.603l-0.082-0.637
				c-0.11-0.861-0.11-2.266,0-3.066l0.089-0.645h-1.604l-0.283,1.184h-1.8v-2.865h2.395l0.445,1.465h1.55l-0.326-3.613h-8.413v1.605
				l1.521,0.279v8.523l-1.521,0.279v1.545h9.066l0.966-3.836H116.363z"/>
		</g>
	</g>
	<g>
		<g>
			<g>
				<path fill="#357180" d="M70.839,50.719l2.975-0.016l-2.987-12.326c-0.032-0.189-0.079-0.369-0.131-0.539l-0.007-0.025l0,0
					c-0.265-0.842-0.81-1.455-1.912-1.455c-1.381,0-1.891,0.955-2.065,2.127l-3.334,12.273l3.297-0.016L70.839,50.719z"/>
			</g>
			<g>
				<path fill="#B0DFE3" d="M68.776,36.357c-1.381,0-1.891,0.955-2.065,2.127l-3.334,12.273l5.356-0.057L68.776,36.357z"/>
			</g>
		</g>
		<g>
			<g>
				<path fill="#357180" d="M86.436,70.912l0.015,2.977l12.329-2.986c0.189-0.031,0.366-0.078,0.541-0.131l0.023-0.008l0,0
					c0.842-0.262,1.456-0.811,1.456-1.912c0-1.383-0.958-1.891-2.128-2.064l-12.273-3.334l0.016,3.299L86.436,70.912z"/>
			</g>
			<g>
				<path fill="#B0DFE3" d="M100.8,68.852c0-1.383-0.958-1.891-2.128-2.064l-12.273-3.334l0.055,5.357L100.8,68.852z"/>
			</g>
		</g>
		<g>
			<g>
				<path fill="#357180" d="M66.52,86.629l-2.977,0.018l2.987,12.326c0.032,0.191,0.079,0.369,0.131,0.541l0.009,0.025l0,0
					c0.265,0.842,0.81,1.455,1.912,1.455c1.381,0,1.892-0.957,2.065-2.131l3.334-12.271l-3.3,0.018L66.52,86.629z"/>
			</g>
			<g>
				<path fill="#B0DFE3" d="M68.582,100.994c1.381,0,1.892-0.957,2.065-2.131l3.334-12.271l-5.356,0.057L68.582,100.994z"/>
			</g>
		</g>
		<g>
			<g>
				<path fill="#357180" d="M50.699,66.771l-0.016-2.977l-12.326,2.988c-0.192,0.031-0.371,0.076-0.543,0.131l-0.023,0.008l0,0
					c-0.843,0.266-1.454,0.811-1.454,1.91c0,1.385,0.954,1.893,2.126,2.066l12.275,3.336l-0.018-3.301L50.699,66.771z"/>
			</g>
			<g>
				<path fill="#B0DFE3" d="M36.337,68.832c0,1.385,0.954,1.893,2.126,2.066l12.275,3.336l-0.059-5.357L36.337,68.832z"/>
			</g>
		</g>
		<g>
			<g>
				<path fill="#357180" d="M68.625,49.881c-10.427,0-18.876,8.451-18.876,18.875c0,10.422,8.449,18.873,18.876,18.873
					c10.422,0,18.872-8.451,18.872-18.873C87.497,58.332,79.047,49.881,68.625,49.881z M68.625,85.156
					c-9.06,0-16.403-7.346-16.403-16.4c0-9.059,7.344-16.402,16.403-16.402c9.057,0,16.399,7.344,16.399,16.402
					C85.024,77.811,77.682,85.156,68.625,85.156z"/>
			</g>
		</g>
	</g>
</g>
</svg>
