<?xml version="1.0" encoding="utf-8"?>
<!-- Generator: Adobe Illustrator 16.0.0, SVG Export Plug-In . SVG Version: 6.00 Build 0)  -->
<!DOCTYPE svg PUBLIC "-//W3C//DTD SVG 1.1//EN" "http://www.w3.org/Graphics/SVG/1.1/DTD/svg11.dtd">
<svg version="1.1" id="Layer_1" xmlns="http://www.w3.org/2000/svg" xmlns:xlink="http://www.w3.org/1999/xlink" x="0px" y="0px"
	 width="136.913px" height="136.914px" viewBox="0 0 136.913 136.914" enable-background="new 0 0 136.913 136.914"
	 xml:space="preserve">
<g>
	<g>
		<g>
			<g>
				<g>
					<circle fill="#EDC92C" cx="68.457" cy="68.458" r="63.333"/>
				</g>
			</g>
		</g>
	</g>
	<g>
		<g>
			<g>
				<g>
					<linearGradient id="SVGID_2_" gradientUnits="userSpaceOnUse" x1="52.645" y1="92.0166" x2="74.8149" y2="92.0166">
						<stop  offset="0" style="stop-color:#959397"/>
						<stop  offset="0.2344" style="stop-color:#A6A4AA"/>
						<stop  offset="0.7312" style="stop-color:#C4C2CC"/>
						<stop  offset="1" style="stop-color:#D0CED9"/>
					</linearGradient>
					<path fill="url(#SVGID_2_)" d="M74.815,98.903c0,0.682-0.556,0.526-1.239,0.526h-19.69c-0.686,0-1.24,0.155-1.24-0.526v-0.845
						l2.896-4.354l-0.054-7.879c0-0.684,0.554-1.238,1.239-1.238h14.008c0.684,0,1.24,0.555,1.24,1.238l-0.05,7.903l2.891,4.329
						V98.903z"/>
					<linearGradient id="SVGID_3_" gradientUnits="userSpaceOnUse" x1="63.73" y1="83.8779" x2="63.73" y2="98.6021">
						<stop  offset="0.1152" style="stop-color:#959397"/>
						<stop  offset="0.1422" style="stop-color:#99989B"/>
						<stop  offset="0.3725" style="stop-color:#BABAB7"/>
						<stop  offset="0.497" style="stop-color:#C6C7C2"/>
						<stop  offset="0.6242" style="stop-color:#78767C"/>
						<stop  offset="1" style="stop-color:#97969E"/>
					</linearGradient>
					<path fill="url(#SVGID_3_)" d="M74.815,98.059c0,0.684-0.556,0.528-1.239,0.528h-19.69c-0.686,0-1.24,0.155-1.24-0.528
						l2.896-5.064l-0.054-7.878c0-0.686,0.554-1.238,1.239-1.238h14.008c0.684,0,1.24,0.553,1.24,1.238l-0.05,7.903L74.815,98.059z"
						/>
				</g>
				<g>
					<g>
						<linearGradient id="SVGID_4_" gradientUnits="userSpaceOnUse" x1="24.7124" y1="59.9839" x2="102.7476" y2="59.9839">
							<stop  offset="0" style="stop-color:#959397"/>
							<stop  offset="0.2344" style="stop-color:#A6A4AA"/>
							<stop  offset="0.7312" style="stop-color:#C4C2CC"/>
							<stop  offset="1" style="stop-color:#D0CED9"/>
						</linearGradient>
						<path fill="url(#SVGID_4_)" d="M102.748,82.986c0,2.573-2.086,4.658-4.658,4.658H29.371c-2.573,0-4.658-2.085-4.658-4.658
							V36.981c0-2.572,2.085-4.658,4.658-4.658h68.719c2.572,0,4.658,2.086,4.658,4.658V82.986z"/>
					</g>
					<g>
						<path fill-rule="evenodd" clip-rule="evenodd" fill="#08090B" d="M65.055,79.499c0.073,0.396-0.116,0.721-0.32,0.938
							c-0.177,0.19-0.412,0.34-0.74,0.321c-0.064-0.69,0.485-1.172,1.052-1.26C65.051,79.499,65.052,79.499,65.055,79.499z"/>
						<path fill-rule="evenodd" clip-rule="evenodd" fill="#08090B" d="M66.061,81.347c-0.36,0.257-0.619,0.595-0.578,1.166
							c0.034,0.487,0.352,0.818,0.729,0.994c-0.088,0.257-0.191,0.483-0.32,0.69c-0.169,0.269-0.411,0.664-0.77,0.74
							c-0.41,0.084-0.667-0.233-1.116-0.2c-0.342,0.026-0.649,0.308-0.995,0.191c-0.166-0.058-0.342-0.236-0.454-0.37
							c-0.35-0.419-0.676-1.07-0.759-1.696c-0.071-0.538,0.001-1.005,0.218-1.363c0.227-0.372,0.65-0.729,1.212-0.664
							c0.141,0.016,0.281,0.065,0.408,0.114c0.109,0.042,0.254,0.125,0.389,0.125c0.128-0.002,0.29-0.09,0.416-0.135
							c0.146-0.053,0.299-0.109,0.456-0.122C65.467,80.765,65.814,81.046,66.061,81.347z"/>
					</g>
					<g>
						<defs>
							<path id="SVGID_7_" d="M102.748,82.986c0,2.573-2.086,4.658-4.658,4.658H29.371c-2.573,0-4.658-2.085-4.658-4.658V36.981
								c0-2.572,2.085-4.658,4.658-4.658h68.719c2.572,0,4.658,2.086,4.658,4.658V82.986z"/>
						</defs>
						<clipPath id="SVGID_5_">
							<use xlink:href="#SVGID_7_"  overflow="visible"/>
						</clipPath>
						<g clip-path="url(#SVGID_5_)">
							<path fill="#08090B" d="M102.748,36.981c0-2.572-2.086-4.658-4.658-4.658H86.237l-2.188,3.131h15.206v38.792H56.939
								l-2.195,3.142h48.004V36.981z"/>
							<g>
								<polygon fill="none" points="99.255,74.246 99.255,35.454 84.049,35.454 56.939,74.246 								"/>
								<path fill="#08090B" d="M28.062,74.246V35.454h55.987l2.188-3.131H29.371c-2.573,0-4.658,2.086-4.658,4.658v40.406h30.031
									l2.195-3.142H28.062z"/>
								<polygon fill="#676767" points="28.062,74.246 56.939,74.246 84.049,35.454 28.062,35.454 								"/>
								
									<linearGradient id="SVGID_6_" gradientUnits="userSpaceOnUse" x1="-849.7905" y1="462.1055" x2="-756.2711" y2="462.1055" gradientTransform="matrix(0.4028 0.2815 -1.1042 1.58 925.2264 -439.1808)">
									<stop  offset="0" style="stop-color:#959397"/>
									<stop  offset="0.2344" style="stop-color:#A6A4AA"/>
									<stop  offset="0.7312" style="stop-color:#C4C2CC"/>
									<stop  offset="1" style="stop-color:#D0CED9"/>
								</linearGradient>
								<path opacity="0.3" fill="url(#SVGID_6_)" d="M98.089,32.323H86.237l-2.188,3.131h15.206v38.792H56.939l-2.195,3.142h48.004
									V36.981C102.748,34.409,100.662,32.323,98.089,32.323z"/>
							</g>
							<polygon fill="#676767" points="99.255,74.246 99.255,35.454 84.049,35.454 56.939,74.246 							"/>
							
								<linearGradient id="SVGID_8_" gradientUnits="userSpaceOnUse" x1="-849.7896" y1="461.8203" x2="-756.2726" y2="461.8203" gradientTransform="matrix(0.4028 0.2815 -1.1042 1.58 925.2264 -439.1808)">
								<stop  offset="0" style="stop-color:#959397"/>
								<stop  offset="0.2344" style="stop-color:#A6A4AA"/>
								<stop  offset="0.7312" style="stop-color:#C4C2CC"/>
								<stop  offset="1" style="stop-color:#D0CED9"/>
							</linearGradient>
							<polygon opacity="0.3" fill="url(#SVGID_8_)" points="99.255,74.246 99.255,35.454 84.049,35.454 56.939,74.246 							"/>
						</g>
					</g>
				</g>
			</g>
		</g>
		<g>
			<g>
				<path fill="#202121" d="M111.111,100.153c0,3.914-1.992,5.906-5.906,5.904l-20.078,0.002c-3.914,0-5.906-1.992-5.906-5.906
					V51.73c0-3.913,1.992-5.904,5.906-5.904h20.078c3.914,0,5.906,1.991,5.906,5.904V100.153z"/>
			</g>
			<g>
				<g>
					<circle fill="#121212" cx="95.252" cy="101.925" r="2.362"/>
				</g>
				<g>
					<path fill="#202121" d="M95.601,102.929h-0.697c-0.176,0-0.34-0.068-0.463-0.193c-0.125-0.125-0.191-0.29-0.189-0.465v-0.693
						c0-0.36,0.293-0.654,0.652-0.654h0.697c0.361,0,0.654,0.294,0.654,0.654v0.695C96.255,102.635,95.962,102.929,95.601,102.929z
						 M94.904,101.423c-0.086,0-0.152,0.067-0.152,0.154v0.695c0,0.043,0.016,0.081,0.043,0.11c0.029,0.029,0.068,0.046,0.109,0.046
						h0.697c0.086,0,0.154-0.07,0.154-0.156v-0.695c0-0.087-0.066-0.154-0.154-0.154H94.904z"/>
				</g>
			</g>
			<g>
				<path d="M98.906,50.254c0,0.38-0.309,0.688-0.689,0.688h-6.102c-0.379,0-0.689-0.309-0.689-0.688l0,0
					c0-0.381,0.311-0.688,0.689-0.688h6.102C98.597,49.565,98.906,49.873,98.906,50.254L98.906,50.254z"/>
			</g>
			<g>
				<rect x="80.699" y="53.354" fill="#676767" width="28.789" height="43.994"/>
			</g>
		</g>
	</g>
</g>
</svg>
