<?xml version="1.0" encoding="utf-8"?>
<!-- Generator: Adobe Illustrator 16.0.0, SVG Export Plug-In . SVG Version: 6.00 Build 0)  -->
<!DOCTYPE svg PUBLIC "-//W3C//DTD SVG 1.1//EN" "http://www.w3.org/Graphics/SVG/1.1/DTD/svg11.dtd">
<svg version="1.1" id="Layer_1" xmlns="http://www.w3.org/2000/svg" xmlns:xlink="http://www.w3.org/1999/xlink" x="0px" y="0px"
	 width="136.833px" height="136.834px" viewBox="0 0 136.833 136.834" style="enable-background:new 0 0 136.833 136.834;"
	 xml:space="preserve">
<style type="text/css">
<![CDATA[
	.st0{fill:#4699A1;}
	.st1{fill:#473C30;}
	.st2{fill:#AAAAAA;}
	.st3{fill-rule:evenodd;clip-rule:evenodd;fill:#D7AF8F;}
	.st4{fill:#49596B;}
	.st5{fill:#7D3719;}
	.st6{fill:#49A0AE;}
	.st7{fill:#AFAFA3;}
	.st8{fill:#E3AA24;}
	.st9{fill:#4ABC96;}
	.st10{fill:#181E1D;}
	.st11{fill:#E6BE20;}
	.st12{fill:#E79E2D;}
	.st13{fill:#E7E7D6;}
	.st14{fill:#E84849;}
	.st15{fill:#E9C29C;}
	.st16{fill:#E9E9EA;}
	.st17{fill:#807F7F;}
	.st18{fill:#809598;}
	.st19{fill:#81725B;}
	.st20{fill:#B1D4D7;}
	.st21{fill:#83CECA;}
	.st22{fill:#B58755;}
	.st23{fill:#B6B6B7;}
	.st24{fill:#1D8D45;}
	.st25{fill:#1D9E49;}
	.st26{fill:#ECE1D0;}
	.st27{fill:#ECEDEA;}
	.st28{fill:#B9B9BA;}
	.st29{fill:#EDC92C;}
	.st30{fill:#1FA85B;}
	.st31{fill:#526B70;}
	.st32{fill:#575757;}
	.st33{fill:#BB5538;}
	.st34{fill:#8C402B;}
	.st35{fill:#8C5228;}
	.st36{fill:#BC992F;}
	.st37{fill:#8D8D8D;}
	.st38{fill-rule:evenodd;clip-rule:evenodd;fill:#E8C790;}
	.st39{fill:#8E6E52;}
	.st40{fill:#202121;}
	.st41{fill:#202B2D;}
	.st42{fill-rule:evenodd;clip-rule:evenodd;fill:#E9C29C;}
	.st43{fill:#BF8A67;}
	.st44{fill:#21AC4B;}
	.st45{fill:#BFBEBE;}
	.st46{fill:#BFC1A9;}
	.st47{fill:#242D2B;}
	.st48{fill:#F37C2A;}
	.st49{fill:#27636D;}
	.st50{fill:#5B4F3F;}
	.st51{fill:#28333B;}
	.st52{fill:#F6DA66;}
	.st53{fill-rule:evenodd;clip-rule:evenodd;fill:#ECE1D0;}
	.st54{fill:#5E5F5E;}
	.st55{fill:url(#SVGID_1_);}
	.st56{fill:#C48F2C;}
	.st57{fill:#2A3633;}
	.st58{fill:#2A646E;}
	.st59{fill:#C5C3AE;}
	.st60{fill:#2B2B2A;}
	.st61{fill:#606060;}
	.st62{fill-rule:evenodd;clip-rule:evenodd;fill:#BEBEBE;}
	.st63{fill:#FFFFFF;}
	.st64{fill-rule:evenodd;clip-rule:evenodd;fill:#F2E8D3;}
	.st65{fill:#65A844;}
	.st66{fill-rule:evenodd;clip-rule:evenodd;fill:#F5DFB5;}
	.st67{fill:#CBCBC5;}
	.st68{fill:#9E7C5A;}
	.st69{fill:#9E9F9F;}
	.st70{fill:#CDCCCB;}
	.st71{fill:#CDCDCE;}
	.st72{fill:#9F77AA;}
	.st73{fill:#327477;}
	.st74{fill:#333738;}
	.st75{fill:#343433;}
	.st76{fill:#344E5D;}
	.st77{fill:#357180;}
	.st78{fill:#36454F;}
	.st79{fill:#383939;}
	.st80{fill:#6C533E;}
	.st81{fill:#6CC077;}
	.st82{fill:#6D5D49;}
	.st83{fill:#6EC2CB;}
	.st84{fill:#6F8284;}
	.st85{fill:#028CA3;}
	.st86{fill:#D1962A;}
	.st87{fill:#D1AFD2;}
	.st88{fill:#036A7B;}
	.st89{fill:#039A88;}
	.st90{fill:#D3E8E9;}
	.st91{fill:#D5CEA9;}
	.st92{fill:#3B7F89;}
	.st93{fill:#D62127;}
	.st94{fill:#3C4D5B;}
	.st95{fill:#D7AE29;}
	.st96{fill:#D7B129;}
	.st97{fill:#D7D7BF;}
	.st98{fill:#D7D7D7;}
	.st99{fill:#D7DABA;}
	.st100{fill:#70BFC8;}
	.st101{fill:#A2D4DE;}
	.st102{fill:#A480B1;}
	.st103{fill:#A48A75;}
	.st104{fill:#786451;}
	.st105{fill:#DBF0F5;}
	.st106{fill:#797979;}
	.st107{fill:#DCDCC6;}
	.st108{fill:#DCDCD2;}
	.st109{fill:#DCDDD8;}
	.st110{fill:#DDDDDC;}
	.st111{fill:#DFBA24;}
	.st112{fill:#DFDFDF;}
	.st113{fill:#435364;}
	.st114{fill:#43B665;}
]]>
</style>
<g>
	<circle class="st9" cx="68.417" cy="68.417" r="63.333"/>
	<g>
		<path class="st77" d="M112.62,98.147c0,0.646-0.522,1.167-1.167,1.167H28.005c-0.644,0-1.166-0.521-1.166-1.167V38.982
			c0-0.643,0.522-1.166,1.166-1.166h83.448c0.644,0,1.167,0.523,1.167,1.166V98.147z"/>
		<rect x="67.421" y="37.816" class="st49" width="4.721" height="61.498"/>
		<polygon class="st97" points="69.729,40.812 29.993,40.812 29.993,96.318 69.729,96.318 109.466,96.318 109.466,40.812 		"/>
		<rect x="67.506" y="40.812" class="st59" width="4.549" height="55.466"/>
		<polygon class="st13" points="69.729,96.318 31.569,94.669 31.569,39.002 69.729,40.812 		"/>
		<polygon class="st13" points="107.89,94.669 69.729,96.318 69.729,40.812 107.89,39.002 		"/>
		<rect x="69.524" y="42.114" class="st109" width="0.512" height="54.164"/>
		<g>
			<path class="st28" d="M66.726,48.714c0,0.715-0.557,1.276-1.244,1.254L36.02,49.027c-0.687-0.022-1.244-0.619-1.244-1.334l0,0
				c0-0.716,0.558-1.277,1.244-1.255l29.462,0.941C66.168,47.402,66.726,47.999,66.726,48.714L66.726,48.714z"/>
			<path class="st28" d="M66.726,54.015c0,0.715-0.557,1.277-1.244,1.255L36.02,54.329c-0.687-0.022-1.244-0.62-1.244-1.335l0,0
				c0-0.715,0.558-1.276,1.244-1.254l29.462,0.941C66.168,52.704,66.726,53.3,66.726,54.015L66.726,54.015z"/>
			<path class="st28" d="M66.726,59.167c0,0.716-0.557,1.277-1.244,1.255L36.02,59.481c-0.687-0.022-1.244-0.619-1.244-1.335l0,0
				c0-0.715,0.558-1.276,1.244-1.254l29.462,0.941C66.168,57.856,66.726,58.453,66.726,59.167L66.726,59.167z"/>
			<path class="st28" d="M66.726,64.468c0,0.716-0.557,1.278-1.244,1.256L36.02,64.783c-0.687-0.022-1.244-0.62-1.244-1.336l0,0
				c0-0.715,0.558-1.275,1.244-1.253l29.462,0.941C66.168,63.158,66.726,63.753,66.726,64.468L66.726,64.468z"/>
			<path class="st28" d="M66.726,69.845c0,0.714-0.557,1.276-1.244,1.254L36.02,70.158c-0.687-0.022-1.244-0.62-1.244-1.334l0,0
				c0-0.715,0.558-1.275,1.244-1.253l29.462,0.941C66.168,68.535,66.726,69.13,66.726,69.845L66.726,69.845z"/>
			<path class="st28" d="M66.726,75.146c0,0.715-0.557,1.276-1.244,1.254L36.02,75.458c-0.687-0.022-1.244-0.619-1.244-1.334l0,0
				c0-0.714,0.558-1.276,1.244-1.254l29.462,0.941C66.168,73.834,66.726,74.432,66.726,75.146L66.726,75.146z"/>
			<path class="st28" d="M66.726,80.298c0,0.715-0.557,1.277-1.244,1.255L36.02,80.612c-0.687-0.022-1.244-0.62-1.244-1.335l0,0
				c0-0.714,0.558-1.275,1.244-1.253l29.462,0.941C66.168,78.988,66.726,79.584,66.726,80.298L66.726,80.298z"/>
			<path class="st28" d="M66.726,85.599c0,0.716-0.557,1.277-1.244,1.255L36.02,85.913c-0.687-0.022-1.244-0.619-1.244-1.335l0,0
				c0-0.713,0.558-1.275,1.244-1.253l29.462,0.941C66.168,84.289,66.726,84.886,66.726,85.599L66.726,85.599z"/>
		</g>
		<g>
			<path class="st28" d="M72.942,48.714c0,0.715,0.557,1.276,1.244,1.254l29.462-0.941c0.687-0.022,1.244-0.619,1.244-1.334l0,0
				c0-0.716-0.558-1.277-1.244-1.255l-29.462,0.941C73.5,47.402,72.942,47.999,72.942,48.714L72.942,48.714z"/>
			<path class="st28" d="M72.942,54.015c0,0.715,0.557,1.277,1.244,1.255l29.462-0.941c0.687-0.022,1.244-0.62,1.244-1.335l0,0
				c0-0.715-0.558-1.276-1.244-1.254l-29.462,0.941C73.5,52.704,72.942,53.3,72.942,54.015L72.942,54.015z"/>
			<path class="st28" d="M72.942,59.167c0,0.716,0.557,1.277,1.244,1.255l29.462-0.941c0.687-0.022,1.244-0.619,1.244-1.335l0,0
				c0-0.715-0.558-1.276-1.244-1.254l-29.462,0.941C73.5,57.856,72.942,58.453,72.942,59.167L72.942,59.167z"/>
			<path class="st28" d="M72.942,64.468c0,0.716,0.557,1.278,1.244,1.256l29.462-0.941c0.687-0.022,1.244-0.62,1.244-1.336l0,0
				c0-0.715-0.558-1.275-1.244-1.253l-29.462,0.941C73.5,63.158,72.942,63.753,72.942,64.468L72.942,64.468z"/>
			<path class="st28" d="M72.942,69.845c0,0.714,0.557,1.276,1.244,1.254l29.462-0.941c0.687-0.022,1.244-0.62,1.244-1.334l0,0
				c0-0.715-0.558-1.275-1.244-1.253l-29.462,0.941C73.5,68.535,72.942,69.13,72.942,69.845L72.942,69.845z"/>
			<path class="st28" d="M72.942,75.146c0,0.715,0.557,1.276,1.244,1.254l29.462-0.941c0.687-0.022,1.244-0.619,1.244-1.334l0,0
				c0-0.714-0.558-1.276-1.244-1.254l-29.462,0.941C73.5,73.834,72.942,74.432,72.942,75.146L72.942,75.146z"/>
			<path class="st28" d="M72.942,80.298c0,0.715,0.557,1.277,1.244,1.255l29.462-0.941c0.687-0.022,1.244-0.62,1.244-1.335l0,0
				c0-0.714-0.558-1.275-1.244-1.253l-29.462,0.941C73.5,78.988,72.942,79.584,72.942,80.298L72.942,80.298z"/>
			<path class="st28" d="M72.942,85.599c0,0.716,0.557,1.277,1.244,1.255l29.462-0.941c0.687-0.022,1.244-0.619,1.244-1.335l0,0
				c0-0.713-0.558-1.275-1.244-1.253l-29.462,0.941C73.5,84.289,72.942,84.886,72.942,85.599L72.942,85.599z"/>
		</g>
	</g>
</g>
</svg>
