<?xml version="1.0" encoding="utf-8"?>
<!-- Generator: Adobe Illustrator 16.0.0, SVG Export Plug-In . SVG Version: 6.00 Build 0)  -->
<!DOCTYPE svg PUBLIC "-//W3C//DTD SVG 1.1//EN" "http://www.w3.org/Graphics/SVG/1.1/DTD/svg11.dtd">
<svg version="1.1" id="Layer_1" xmlns="http://www.w3.org/2000/svg" xmlns:xlink="http://www.w3.org/1999/xlink" x="0px" y="0px"
	 width="136.914px" height="136.913px" viewBox="0 0 136.914 136.913" enable-background="new 0 0 136.914 136.913"
	 xml:space="preserve">
<g>
	<g>
		<g>
			<g>
				<g>
					<circle fill="#D1AFD2" cx="68.457" cy="68.457" r="63.333"/>
				</g>
			</g>
		</g>
	</g>
	<g>
		<g>
			<path fill="#597C7C" d="M44.584,113.92c-1.4,1.398-3.673,1.398-5.073,0L24.715,99.123c-1.4-1.4-1.4-3.672,0-5.074l9.25-9.25
				c1.401-1.4,3.672-1.4,5.073,0l14.796,14.797c1.4,1.4,1.401,3.672,0,5.072L44.584,113.92z"/>
		</g>
		<g>
			<path fill="#597C7C" d="M54.121,104.383c-1.399,1.398-3.673,1.398-5.073,0L34.252,89.586c-1.4-1.4-1.4-3.672,0-5.074
				l24.351-48.193l43.714,43.713L54.121,104.383z"/>
		</g>
		<g>
			<g>
				<path fill="#597C7C" d="M86.239,80.09c-7.316-7.316-19.178-7.316-26.493,0c-7.313,7.316-7.313,19.176,0.001,26.492
					c7.315,7.316,19.177,7.316,26.492,0S93.555,87.406,86.239,80.09z M65.045,101.283c-4.389-4.389-4.39-11.506,0-15.895
					c4.391-4.391,11.506-4.389,15.895,0c4.391,4.389,4.391,11.506,0,15.895C76.551,105.672,69.436,105.674,65.045,101.283z"/>
			</g>
		</g>
		<g>
			<path fill="#78A4A4" d="M84.679,43.367c-1.379,0-2.499-1.117-2.499-2.5V19.213c0-1.383,1.12-2.5,2.499-2.5
				c1.381,0,2.501,1.119,2.499,2.5l0.002,21.654C87.18,42.248,86.06,43.365,84.679,43.367"/>
		</g>
		<g>
			<path fill="#78A4A4" d="M89.272,49.168c-0.975-0.977-0.977-2.559,0-3.535l15.312-15.313c0.977-0.977,2.561-0.977,3.535,0
				c0.979,0.977,0.977,2.559,0,3.533L92.808,49.168C91.83,50.143,90.25,50.143,89.272,49.168"/>
		</g>
		<g>
			<path fill="#78A4A4" d="M94.594,53.281c0-1.379,1.118-2.5,2.499-2.5h21.656c1.38,0,2.5,1.121,2.499,2.5
				c0,1.381-1.119,2.498-2.499,2.498H97.093C95.713,55.779,94.594,54.662,94.594,53.281"/>
		</g>
		<g>
			<path fill="#78A4A4" d="M55.94,36.635c2.348-2.352,6.164-2.355,8.514-0.002l36.891,36.889c2.351,2.352,2.351,6.17,0,8.518
				c-2.354,2.352-6.164,2.348-8.514,0L55.94,45.148C53.59,42.799,53.588,38.986,55.94,36.635"/>
		</g>
		<g>
			<path fill="#3D5353" d="M44.584,113.92c-1.4,1.398-3.673,1.398-5.073,0L24.715,99.123c-1.4-1.4-1.4-3.672,0-5.074l9.25-9.25
				c1.401-1.4,21.271,18.469,19.869,19.869L44.584,113.92z"/>
		</g>
	</g>
</g>
</svg>
