<?xml version="1.0" encoding="utf-8"?>
<!-- Generator: Adobe Illustrator 16.0.0, SVG Export Plug-In . SVG Version: 6.00 Build 0)  -->
<!DOCTYPE svg PUBLIC "-//W3C//DTD SVG 1.1//EN" "http://www.w3.org/Graphics/SVG/1.1/DTD/svg11.dtd">
<svg version="1.1" id="Layer_1" xmlns="http://www.w3.org/2000/svg" xmlns:xlink="http://www.w3.org/1999/xlink" x="0px" y="0px"
	 width="136.914px" height="136.914px" viewBox="0 0 136.914 136.914" enable-background="new 0 0 136.914 136.914"
	 xml:space="preserve">
<g>
	<g>
		<g>
			<g>
				<circle fill="#65A844" cx="68.457" cy="68.458" r="63.333"/>
			</g>
		</g>
	</g>
	<g>
		<path fill="#E0E0E0" d="M100.611,40.133C92.618,30.792,80.75,24.863,67.49,24.863c-24.069,0-43.583,19.513-43.583,43.583
			c0,13.643,6.272,25.816,16.086,33.808c7.501,6.108,17.069,9.775,27.497,9.775c24.071,0,43.583-19.512,43.583-43.583
			C111.073,57.634,107.129,47.75,100.611,40.133z"/>
		<g>
			<path fill="#FFFFFF" d="M87.58,88.871c13.685-13.685,18.162-32.788,13.031-48.737C92.618,30.792,80.75,24.863,67.49,24.863
				c-24.069,0-43.583,19.513-43.583,43.583c0,13.643,6.272,25.816,16.086,33.808C55.704,106.814,74.224,102.228,87.58,88.871z"/>
		</g>
		<g>
			<path fill="#3A3A39" d="M43.717,46.537c0,0,5.838-9.072,13.827-11.227c0,0,7.066-0.462,14.902,5.846
				c0,0-2.919,14.606-3.84,15.836c0,0-17.054,3.998-17.976,4.46C50.631,61.452,45.253,53.917,43.717,46.537z"/>
			<path fill="#3A3A39" d="M88.887,30.543v8.458c0,0,9.679,7.227,11.829,13.686l7.681,0.615
				C108.396,53.302,103.943,38.695,88.887,30.543z"/>
			<path fill="#3A3A39" d="M81.511,70.832l15.672-1.999c0,0,3.687,6.458,3.687,15.838c0,0-6.913,9.382-12.906,11.689l-12.597-7.537
				L81.511,70.832z"/>
			<path fill="#3A3A39" d="M44.485,78.674c0,0,6.913,9.686,12.137,13.838l-4.454,10.61c0,0-9.373-1.076-13.98-4.921
				c0,0-5.379-6.458-5.379-15.837L44.485,78.674z"/>
			<path fill="#3A3A39" d="M23.59,67.295h2.613c0,0,0.767-10.612,5.529-17.224v-6.92C31.732,43.152,24.819,51.304,23.59,67.295z"/>
			<path fill="#3A3A39" d="M64.949,111.973l0.122-1.008c0,0,13.981-1.846,18.745-4.614l1.924,1.685
				C85.74,108.036,77.115,112.703,64.949,111.973z"/>
			<path fill="#3A3A39" d="M52.935,27.161l4.302,0.153l3.921-2.028C61.157,25.286,56.776,25.777,52.935,27.161z"/>
			<g>
				<path fill="#3A3A39" d="M72.047,41.538l-0.092-0.452c0.515-0.104,12.661-2.507,17.395-2.369l-0.014,0.462
					C84.649,39.026,72.171,41.512,72.047,41.538z"/>
			</g>
			<g>
				<path fill="#3A3A39" d="M97.294,69.198l-0.348-0.302c2.984-3.438,3.625-16.223,3.631-16.352l0.461,0.023
					C101.012,53.099,100.384,65.643,97.294,69.198z"/>
			</g>
			<g>
				<polygon fill="#3A3A39" points="107.637,85.473 100.619,84.905 100.65,84.444 107.845,84.953 				"/>
			</g>
			<g>
				
					<rect x="65.239" y="63.743" transform="matrix(0.677 0.736 -0.736 0.677 71.3459 -34.6174)" fill="#3A3A39" width="19.744" height="0.461"/>
			</g>
			<g>
				<path fill="#3A3A39" d="M83.868,106.913l-0.343-0.308c1.334-1.484,4.358-10.554,4.388-10.646l0.437,0.147
					C88.227,96.484,85.267,105.359,83.868,106.913z"/>
			</g>
			<g>
				<path fill="#3A3A39" d="M56.016,92.918l-0.063-0.455c0.162-0.024,16.358-2.245,19.512-3.898l0.216,0.408
					C72.455,90.663,56.685,92.828,56.016,92.918z"/>
			</g>
			<g>
				<path fill="#3A3A39" d="M44.626,79.2l-0.444-0.123c0.176-0.633,4.318-15.546,6.322-18.017l0.359,0.29
					C48.919,63.747,44.668,79.047,44.626,79.2z"/>
			</g>
			<g>
				<path fill="#3A3A39" d="M65.374,111.367c-7.658-1.995-13.533-8.308-13.593-8.372l0.339-0.313
					c0.059,0.064,5.845,6.279,13.37,8.238L65.374,111.367z"/>
			</g>
			<g>
				<path fill="#3A3A39" d="M32.835,82.649c-7.361-7.217-7.159-15.603-7.155-15.685l0.461,0.015
					c-0.004,0.084-0.194,8.272,7.017,15.34L32.835,82.649z"/>
			</g>
			<g>
				<path fill="#3A3A39" d="M31.464,50.491l-0.277-0.368c0.055-0.04,5.512-4.093,13.342-3.795l-0.019,0.461
					C36.847,46.472,31.518,50.451,31.464,50.491z"/>
			</g>
			<g>
				
					<rect x="53.125" y="31.019" transform="matrix(0.0402 0.9992 -0.9992 0.0402 86.3391 -27.3853)" fill="#3A3A39" width="8.598" height="0.46"/>
			</g>
			<g>
				
					<rect x="37.406" y="97.565" transform="matrix(0.6679 0.7442 -0.7442 0.6679 85.9438 4.7617)" fill="#3A3A39" width="0.461" height="2.239"/>
			</g>
		</g>
		<g>
			<path fill="none" d="M75.646,88.99c-3.025,1.549-16.461,3.486-19.167,3.864l-4.196,9.995c0.194,0.2,0.574,0.577,1.117,1.075
				c10.13-0.263,20.481-3.857,29.276-10.729L75.646,88.99z"/>
			<path fill="none" d="M96.975,68.859c2.96-3.487,3.597-16.186,3.603-16.314l0.084,0.005c-2.047-5.867-10.152-12.3-11.548-13.375
				c-4.388-0.065-14.735,1.907-16.73,2.297c-0.405,2.005-2.679,13.137-3.631,15.249l12.957,14.086L96.975,68.859z"/>
			<path fill="none" d="M81.401,71.152L68.417,57.037c-1.775,0.417-15.548,3.659-17.568,4.333
				c-1.817,2.283-5.612,15.653-6.156,17.592c1.135,1.562,7.092,9.63,11.783,13.428c2.801-0.396,16.12-2.334,18.977-3.818
				L81.401,71.152z"/>
			<path fill="none" d="M43.776,46.783c-7.265-0.044-12.261,3.669-12.313,3.708l-0.011-0.014c-4.511,6.63-5.25,16.818-5.25,16.818
				h-0.06c0.039,1.538,0.582,8.683,6.967,14.974l11.165-3.528c0.641-2.286,4.268-15.041,6.155-17.578
				C49.47,59.758,45.195,53.25,43.776,46.783z"/>
			<path fill="none" d="M98.734,72.395c2.696-6.337,4.02-13.013,3.926-19.553l-1.629-0.13c-0.079,1.463-0.774,12.948-3.688,16.422
				C97.604,69.638,98.148,70.768,98.734,72.395z"/>
			<path fill="#3A3A39" d="M64.952,111.947l-0.003,0.026c12.166,0.729,20.791-3.938,20.791-3.938l-0.01-0.009
				c-5.55,2.563-11.726,4.002-18.24,4.002C66.638,112.029,65.793,111.996,64.952,111.947z"/>
			<path fill="#3A3A39" d="M57.481,26.944l0.01,0.238l3.666-1.896c0,0-4.381,0.491-8.223,1.875l4.101,0.146l-0.014-0.344
				L57.481,26.944z"/>
			<path fill="#3A3A39" d="M72.047,41.538c0.011-0.003,0.13-0.026,0.336-0.066c0.041-0.2,0.063-0.315,0.063-0.315
				c-0.059-0.048-0.116-0.086-0.175-0.133c-0.164,0.032-0.277,0.055-0.316,0.063L72.047,41.538z"/>
			<path fill="#3A3A39" d="M89.113,39.174c0.074,0.002,0.151,0.001,0.223,0.004l0.014-0.462c-0.147-0.004-0.302-0.006-0.463-0.006
				v0.291C88.887,39.001,88.98,39.073,89.113,39.174z"/>
			<path fill="#3A3A39" d="M101.031,52.712c0.003-0.067,0.006-0.121,0.007-0.145l-0.377-0.019c0.016,0.046,0.04,0.092,0.055,0.138
				L101.031,52.712z"/>
			<path fill="#3A3A39" d="M97.294,69.198c0.017-0.02,0.032-0.044,0.05-0.063c-0.103-0.198-0.161-0.302-0.161-0.302l-0.208,0.026
				c-0.01,0.012-0.019,0.026-0.028,0.037L97.294,69.198z"/>
			<path fill="#3A3A39" d="M107.621,85.472l0.016,0.001l0.208-0.521l-0.015-0.001C107.759,85.125,107.693,85.3,107.621,85.472z"/>
			<path fill="#3A3A39" d="M68.752,56.72l-0.154-0.169l-0.339,0.313l0.158,0.173c0.123-0.029,0.189-0.045,0.189-0.045
				C68.65,56.933,68.7,56.835,68.752,56.72z"/>
			<polygon fill="#3A3A39" points="81.963,71.083 81.709,70.806 81.511,70.832 81.401,71.152 81.625,71.395 			"/>
			<path fill="#3A3A39" d="M75.465,88.565c-0.004,0.002-0.009,0.004-0.013,0.006l-0.086,0.252l0.279,0.167
				c0.011-0.005,0.024-0.011,0.035-0.017L75.465,88.565z"/>
			<path fill="#3A3A39" d="M56.476,92.389c-0.317,0.045-0.506,0.071-0.522,0.074l0.063,0.455c0.055-0.008,0.22-0.03,0.463-0.064
				l0.144-0.342C56.574,92.474,56.523,92.428,56.476,92.389z"/>
			<path fill="#3A3A39" d="M50.849,61.37c0.005-0.006,0.01-0.014,0.015-0.02l-0.359-0.29c-0.023,0.029-0.049,0.069-0.073,0.103
				c0.123,0.181,0.2,0.289,0.2,0.289C50.671,61.431,50.751,61.403,50.849,61.37z"/>
			<path fill="#3A3A39" d="M44.275,78.741c-0.049,0.173-0.082,0.292-0.094,0.336l0.444,0.123c0.003-0.01,0.027-0.097,0.066-0.238
				c-0.124-0.171-0.207-0.287-0.207-0.287L44.275,78.741z"/>
			<path fill="#3A3A39" d="M52.282,102.849c-0.092-0.094-0.157-0.162-0.162-0.168l-0.339,0.313c0.004,0.004,0.033,0.035,0.084,0.089
				c0.183,0.024,0.303,0.039,0.303,0.039L52.282,102.849z"/>
			<path fill="#3A3A39" d="M33.157,82.319c-0.017-0.017-0.03-0.033-0.047-0.05l-0.302,0.096c0,0.09,0.009,0.176,0.01,0.266
				c0.006,0.006,0.011,0.013,0.017,0.019L33.157,82.319z"/>
			<path fill="#3A3A39" d="M26.141,66.979l-0.461-0.015c-0.001,0.009-0.002,0.134,0.003,0.331h0.461
				C26.139,67.109,26.14,66.989,26.141,66.979z"/>
			<path fill="#3A3A39" d="M43.776,46.783c0.244,0.002,0.484-0.004,0.733,0.006l0.019-0.461c-0.228-0.009-0.446-0.001-0.669-0.003
				c-0.084,0.124-0.143,0.212-0.143,0.212C43.734,46.619,43.758,46.701,43.776,46.783z"/>
			<path fill="#3A3A39" d="M31.453,50.477c0.093-0.136,0.184-0.272,0.279-0.405v-0.317c-0.345,0.22-0.536,0.36-0.546,0.368
				L31.453,50.477z"/>
			<path fill="#3A3A39" d="M57.827,35.535l-0.009-0.231c-0.173,0.002-0.274,0.007-0.274,0.007c-0.063,0.017-0.122,0.043-0.184,0.061
				l0.007,0.184L57.827,35.535z"/>
			<polygon fill="#3A3A39" points="57.491,27.182 57.481,26.944 57.021,26.963 57.035,27.307 57.236,27.314 			"/>
			<path fill="#3A3A39" d="M38.315,97.765l-0.276,0.248c0.087,0.113,0.148,0.188,0.148,0.188c0.057,0.048,0.122,0.09,0.181,0.136
				l0.255-0.229L38.315,97.765z"/>
			<g>
				<path fill="#2A2B2A" d="M108.359,53.299c-1.803-4.854-4.443-9.303-7.748-13.166c1.312,4.078,1.986,8.362,2.049,12.709
					L108.359,53.299z"/>
				<path fill="#2A2B2A" d="M98.734,72.395c-2.521,5.925-6.232,11.554-11.154,16.476c-1.566,1.566-3.209,3.001-4.904,4.325
					l5.134,3.072c-0.513,1.518-2.926,8.53-4.165,10.177c-4.423,2.444-15.923,4.15-18.181,4.467
					c-5.442-1.425-9.959-5.062-12.064-6.987c-0.218,0.005-0.437,0.019-0.655,0.021c1.928,1.813,6.588,5.729,12.291,7.319
					l-0.083,0.682c0.841,0.049,1.686,0.082,2.538,0.082c6.515,0,12.69-1.439,18.24-4.002l-1.629-1.426
					c1.415-2.078,3.932-9.542,4.218-10.402c5.364-2.296,11.316-9.901,12.369-11.288l6.933,0.562
					c0.072-0.172,0.138-0.348,0.209-0.521l-6.966-0.492C100.834,79.369,99.729,75.158,98.734,72.395z"/>
			</g>
		</g>
	</g>
</g>
</svg>
