<?xml version="1.0" encoding="utf-8"?>
<!-- Generator: Adobe Illustrator 16.0.0, SVG Export Plug-In . SVG Version: 6.00 Build 0)  -->
<!DOCTYPE svg PUBLIC "-//W3C//DTD SVG 1.1//EN" "http://www.w3.org/Graphics/SVG/1.1/DTD/svg11.dtd">
<svg version="1.1" id="Layer_1" xmlns="http://www.w3.org/2000/svg" xmlns:xlink="http://www.w3.org/1999/xlink" x="0px" y="0px"
	 width="136.833px" height="136.834px" viewBox="0 0 136.833 136.834" style="enable-background:new 0 0 136.833 136.834;"
	 xml:space="preserve">
<style type="text/css">
<![CDATA[
	.st0{fill:#4699A1;}
	.st1{fill:#473C30;}
	.st2{fill:#AAAAAA;}
	.st3{fill-rule:evenodd;clip-rule:evenodd;fill:#D7AF8F;}
	.st4{fill:#49596B;}
	.st5{fill:#7D3719;}
	.st6{fill:#49A0AE;}
	.st7{fill:#AFAFA3;}
	.st8{fill:#E3AA24;}
	.st9{fill:#4ABC96;}
	.st10{fill:#181E1D;}
	.st11{fill:#E6BE20;}
	.st12{fill:#E79E2D;}
	.st13{fill:#E7E7D6;}
	.st14{fill:#E84849;}
	.st15{fill:#E9C29C;}
	.st16{fill:#E9E9EA;}
	.st17{fill:#807F7F;}
	.st18{fill:#809598;}
	.st19{fill:#81725B;}
	.st20{fill:#B1D4D7;}
	.st21{fill:#83CECA;}
	.st22{fill:#B58755;}
	.st23{fill:#B6B6B7;}
	.st24{fill:#1D8D45;}
	.st25{fill:#1D9E49;}
	.st26{fill:#ECE1D0;}
	.st27{fill:#ECEDEA;}
	.st28{fill:#B9B9BA;}
	.st29{fill:#EDC92C;}
	.st30{fill:#1FA85B;}
	.st31{fill:#526B70;}
	.st32{fill:#575757;}
	.st33{fill:#BB5538;}
	.st34{fill:#8C402B;}
	.st35{fill:#8C5228;}
	.st36{fill:#BC992F;}
	.st37{fill:#8D8D8D;}
	.st38{fill-rule:evenodd;clip-rule:evenodd;fill:#E8C790;}
	.st39{fill:#8E6E52;}
	.st40{fill:#202121;}
	.st41{fill:#202B2D;}
	.st42{fill-rule:evenodd;clip-rule:evenodd;fill:#E9C29C;}
	.st43{fill:#BF8A67;}
	.st44{fill:#21AC4B;}
	.st45{fill:#BFBEBE;}
	.st46{fill:#BFC1A9;}
	.st47{fill:#242D2B;}
	.st48{fill:#F37C2A;}
	.st49{fill:#27636D;}
	.st50{fill:#5B4F3F;}
	.st51{fill:#28333B;}
	.st52{fill:#F6DA66;}
	.st53{fill-rule:evenodd;clip-rule:evenodd;fill:#ECE1D0;}
	.st54{fill:#5E5F5E;}
	.st55{fill:url(#SVGID_1_);}
	.st56{fill:#C48F2C;}
	.st57{fill:#2A3633;}
	.st58{fill:#2A646E;}
	.st59{fill:#C5C3AE;}
	.st60{fill:#2B2B2A;}
	.st61{fill:#606060;}
	.st62{fill-rule:evenodd;clip-rule:evenodd;fill:#BEBEBE;}
	.st63{fill:#FFFFFF;}
	.st64{fill-rule:evenodd;clip-rule:evenodd;fill:#F2E8D3;}
	.st65{fill:#65A844;}
	.st66{fill-rule:evenodd;clip-rule:evenodd;fill:#F5DFB5;}
	.st67{fill:#CBCBC5;}
	.st68{fill:#9E7C5A;}
	.st69{fill:#9E9F9F;}
	.st70{fill:#CDCCCB;}
	.st71{fill:#CDCDCE;}
	.st72{fill:#9F77AA;}
	.st73{fill:#327477;}
	.st74{fill:#333738;}
	.st75{fill:#343433;}
	.st76{fill:#344E5D;}
	.st77{fill:#357180;}
	.st78{fill:#36454F;}
	.st79{fill:#383939;}
	.st80{fill:#6C533E;}
	.st81{fill:#6CC077;}
	.st82{fill:#6D5D49;}
	.st83{fill:#6EC2CB;}
	.st84{fill:#6F8284;}
	.st85{fill:#028CA3;}
	.st86{fill:#D1962A;}
	.st87{fill:#D1AFD2;}
	.st88{fill:#036A7B;}
	.st89{fill:#039A88;}
	.st90{fill:#D3E8E9;}
	.st91{fill:#D5CEA9;}
	.st92{fill:#3B7F89;}
	.st93{fill:#D62127;}
	.st94{fill:#3C4D5B;}
	.st95{fill:#D7AE29;}
	.st96{fill:#D7B129;}
	.st97{fill:#D7D7BF;}
	.st98{fill:#D7D7D7;}
	.st99{fill:#D7DABA;}
	.st100{fill:#70BFC8;}
	.st101{fill:#A2D4DE;}
	.st102{fill:#A480B1;}
	.st103{fill:#A48A75;}
	.st104{fill:#786451;}
	.st105{fill:#DBF0F5;}
	.st106{fill:#797979;}
	.st107{fill:#DCDCC6;}
	.st108{fill:#DCDCD2;}
	.st109{fill:#DCDDD8;}
	.st110{fill:#DDDDDC;}
	.st111{fill:#DFBA24;}
	.st112{fill:#DFDFDF;}
	.st113{fill:#435364;}
	.st114{fill:#43B665;}
]]>
</style>
<g>
	<g>
		<g>
			<g>
				<g>
					<g>
						<g>
							<g>
								<circle class="st9" cx="68.416" cy="68.416" r="63.333"/>
							</g>
						</g>
					</g>
				</g>
			</g>
		</g>
	</g>
	<g>
		<g>
			<g>
				<g>
					<g>
						<g>
							<path class="st19" d="M68.89,30.454c-1.447,0-2.621,1.173-2.621,2.621v59.796c0,1.447,1.174,2.621,2.621,2.621
								s2.621-1.174,2.621-2.621V33.075C71.511,31.627,70.337,30.454,68.89,30.454z"/>
						</g>
					</g>
				</g>
			</g>
		</g>
		<g>
			<g>
				<g>
					<g>
						<g>
							<path class="st19" d="M67.812,92.1c-0.799,0.798-0.799,2.093,0,2.891l17.039,17.039c0.799,0.799,2.094,0.799,2.893,0
								s0.799-2.094,0-2.893L70.704,92.1C69.905,91.301,68.61,91.301,67.812,92.1z"/>
						</g>
					</g>
				</g>
			</g>
		</g>
		<g>
			<g>
				<g>
					<g>
						<g>
							<path class="st19" d="M70.151,92.1c0.799,0.798,0.799,2.093,0,2.891l-17.037,17.039c-0.799,0.799-2.094,0.799-2.891,0
								c-0.801-0.799-0.801-2.094,0-2.893L67.261,92.1C68.058,91.301,69.354,91.301,70.151,92.1z"/>
						</g>
					</g>
				</g>
			</g>
		</g>
		<g>
			<g>
				<g>
					<g>
						<g>
							<path class="st79" d="M105.708,79.949c0,5.423-4.396,1.637-9.818,1.637H42.708c-5.422,0-9.818,3.786-9.818-1.637V39.041
								c0-5.423,4.396-2.455,9.818-2.455H95.89c5.422,0,9.818-2.968,9.818,2.455V79.949z"/>
						</g>
					</g>
				</g>
			</g>
		</g>
		<g>
			<g>
				<g>
					<g>
						<g>
							<path class="st19" d="M109.39,35.534c0,1.355-1.539,2.454-3.439,2.454H31.827c-1.898,0-3.438-1.099-3.438-2.454l0,0
								c0-1.356,1.539-2.454,3.438-2.454h74.123C107.851,33.08,109.39,34.178,109.39,35.534L109.39,35.534z"/>
						</g>
					</g>
				</g>
			</g>
		</g>
		<g>
			<g>
				<g>
					<g>
						<g>
							<path class="st19" d="M109.39,81.002c0,1.355-1.539,2.455-3.439,2.455H31.827c-1.898,0-3.438-1.1-3.438-2.455l0,0
								c0-1.355,1.539-2.454,3.438-2.454h74.123C107.851,78.548,109.39,79.646,109.39,81.002L109.39,81.002z"/>
						</g>
					</g>
				</g>
			</g>
		</g>
		<g>
			<g>
				<g>
					<g>
						<g>
							<g>
								<path class="st98" d="M54.489,63.286c-0.645,0.501-1.268,0.877-1.869,1.128c-0.604,0.251-1.277,0.376-2.027,0.376
									c-0.684,0-1.283-0.135-1.801-0.405s-0.916-0.637-1.197-1.099c-0.279-0.462-0.42-0.964-0.42-1.504
									c0-0.729,0.232-1.351,0.693-1.865c0.463-0.515,1.098-0.859,1.904-1.035c0.17-0.039,0.59-0.127,1.26-0.264
									c0.672-0.137,1.246-0.262,1.725-0.376s0.998-0.252,1.557-0.415c-0.031-0.703-0.174-1.219-0.424-1.548
									c-0.252-0.329-0.77-0.493-1.559-0.493c-0.676,0-1.186,0.095-1.527,0.283s-0.635,0.472-0.879,0.85s-0.418,0.627-0.518,0.747
									c-0.102,0.12-0.318,0.181-0.65,0.181c-0.299,0-0.559-0.096-0.775-0.288c-0.219-0.192-0.328-0.438-0.328-0.737
									c0-0.469,0.166-0.925,0.498-1.367s0.85-0.808,1.553-1.094s1.58-0.43,2.627-0.43c1.172,0,2.094,0.139,2.764,0.415
									c0.672,0.276,1.145,0.715,1.422,1.313c0.275,0.599,0.414,1.394,0.414,2.383c0,0.625-0.002,1.155-0.004,1.592
									c-0.004,0.437-0.008,0.921-0.016,1.455c0,0.501,0.084,1.023,0.25,1.567s0.248,0.894,0.248,1.05
									c0,0.273-0.129,0.522-0.385,0.747c-0.258,0.225-0.549,0.337-0.875,0.337c-0.273,0-0.543-0.129-0.811-0.386
									C55.073,64.147,54.79,63.774,54.489,63.286z M54.313,59.429c-0.391,0.144-0.959,0.295-1.703,0.454
									c-0.746,0.159-1.262,0.276-1.549,0.352c-0.285,0.075-0.559,0.222-0.82,0.439c-0.26,0.218-0.391,0.522-0.391,0.913
									c0,0.403,0.154,0.747,0.459,1.03c0.307,0.283,0.707,0.425,1.201,0.425c0.527,0,1.014-0.114,1.461-0.347
									c0.445-0.231,0.773-0.529,0.98-0.893c0.242-0.404,0.361-1.068,0.361-1.993V59.429z"/>
							</g>
						</g>
					</g>
				</g>
			</g>
			<g>
				<g>
					<g>
						<g>
							<g>
								<path class="st98" d="M67.097,51.509v4.072c0.502-0.521,1.014-0.92,1.533-1.196c0.521-0.276,1.166-0.415,1.934-0.415
									c0.887,0,1.662,0.21,2.33,0.63c0.666,0.42,1.184,1.028,1.553,1.826c0.367,0.798,0.551,1.743,0.551,2.837
									c0,0.808-0.102,1.548-0.307,2.222s-0.504,1.258-0.895,1.753s-0.863,0.877-1.42,1.147s-1.17,0.405-1.842,0.405
									c-0.41,0-0.795-0.049-1.156-0.146s-0.67-0.227-0.924-0.386s-0.471-0.324-0.648-0.493c-0.18-0.169-0.416-0.423-0.709-0.762
									v0.264c0,0.501-0.119,0.881-0.361,1.138c-0.24,0.257-0.547,0.386-0.918,0.386c-0.377,0-0.678-0.129-0.902-0.386
									s-0.338-0.637-0.338-1.138V51.626c0-0.54,0.109-0.948,0.328-1.226c0.217-0.276,0.521-0.415,0.912-0.415
									c0.41,0,0.727,0.132,0.947,0.396C66.987,50.645,67.097,51.021,67.097,51.509z M67.224,59.429
									c0,1.062,0.242,1.877,0.729,2.446c0.484,0.569,1.121,0.854,1.908,0.854c0.672,0,1.248-0.291,1.734-0.874
									c0.484-0.583,0.727-1.418,0.727-2.505c0-0.703-0.1-1.309-0.303-1.816c-0.201-0.508-0.488-0.9-0.859-1.177
									s-0.803-0.415-1.299-0.415c-0.508,0-0.959,0.139-1.357,0.415c-0.396,0.276-0.709,0.677-0.938,1.201
									C67.339,58.083,67.224,58.706,67.224,59.429z"/>
							</g>
						</g>
					</g>
				</g>
			</g>
			<g>
				<g>
					<g>
						<g>
							<g>
								<path class="st98" d="M91.696,61.489c0,0.332-0.1,0.687-0.297,1.064c-0.199,0.378-0.502,0.737-0.908,1.079
									c-0.408,0.342-0.92,0.617-1.539,0.825c-0.617,0.208-1.314,0.313-2.09,0.313c-1.646,0-2.932-0.48-3.857-1.44
									c-0.924-0.96-1.387-2.248-1.387-3.862c0-1.094,0.213-2.061,0.635-2.9c0.424-0.84,1.035-1.489,1.836-1.948
									s1.758-0.688,2.871-0.688c0.691,0,1.324,0.101,1.9,0.303s1.064,0.462,1.465,0.781s0.705,0.659,0.918,1.021
									c0.211,0.361,0.316,0.698,0.316,1.011c0,0.319-0.119,0.589-0.355,0.811c-0.238,0.222-0.525,0.332-0.865,0.332
									c-0.221,0-0.404-0.057-0.551-0.171s-0.311-0.298-0.494-0.552c-0.324-0.495-0.666-0.866-1.02-1.113
									c-0.355-0.247-0.807-0.371-1.354-0.371c-0.787,0-1.422,0.308-1.904,0.923c-0.48,0.615-0.723,1.457-0.723,2.524
									c0,0.501,0.063,0.962,0.186,1.382c0.125,0.42,0.303,0.778,0.537,1.074s0.518,0.521,0.85,0.674s0.697,0.229,1.094,0.229
									c0.535,0,0.992-0.124,1.373-0.371s0.717-0.625,1.01-1.133c0.164-0.3,0.34-0.534,0.527-0.703
									c0.189-0.169,0.42-0.254,0.693-0.254c0.326,0,0.596,0.124,0.811,0.371S91.696,61.209,91.696,61.489z"/>
							</g>
						</g>
					</g>
				</g>
			</g>
		</g>
	</g>
</g>
</svg>
