<?xml version="1.0" encoding="utf-8"?>
<!-- Generator: Adobe Illustrator 16.0.0, SVG Export Plug-In . SVG Version: 6.00 Build 0)  -->
<!DOCTYPE svg PUBLIC "-//W3C//DTD SVG 1.1//EN" "http://www.w3.org/Graphics/SVG/1.1/DTD/svg11.dtd">
<svg version="1.1" id="Layer_1" xmlns="http://www.w3.org/2000/svg" xmlns:xlink="http://www.w3.org/1999/xlink" x="0px" y="0px"
	 width="136.833px" height="136.834px" viewBox="0 0 136.833 136.834" style="enable-background:new 0 0 136.833 136.834;"
	 xml:space="preserve">
<style type="text/css">
<![CDATA[
	.st0{fill:#AA7243;}
	.st1{fill:#49A0AE;}
	.st2{fill:#E0E4E0;}
	.st3{fill:#E17A2D;}
	.st4{fill:#E3A93F;}
	.st5{fill:#E3AA24;}
	.st6{fill:#E3B071;}
	.st7{fill:#4ABC96;}
	.st8{fill:#E5F2E6;}
	.st9{fill:#E79E2D;}
	.st10{fill:#E7DD7F;}
	.st11{fill:#E84849;}
	.st12{fill:#E9B634;}
	.st13{fill:#E9C29C;}
	.st14{fill:#E9E9EA;}
	.st15{fill:#818282;}
	.st16{fill:#B17B48;}
	.st17{fill:#B25E27;}
	.st18{fill:#EADEDF;}
	.st19{fill:#EAE744;}
	.st20{fill:#ECB050;}
	.st21{fill:#EDAF1E;}
	.st22{fill:#EDC92C;}
	.st23{opacity:0.15;fill:#FFFFFF;}
	.st24{fill:#8AB53F;}
	.st25{fill:#202121;}
	.st26{fill:#BEB8B1;}
	.st27{fill:#BF2626;}
	.st28{fill:#F06668;}
	.st29{fill:#F1E85F;}
	.st30{fill:#F37C2A;}
	.st31{fill:#F3C9A1;}
	.st32{fill:#F3EA83;}
	.st33{fill:#F3ED73;}
	.st34{fill:#F4E028;}
	.st35{fill:#F4F5F5;}
	.st36{fill:#5B4F3F;}
	.st37{fill:#F6A2A3;}
	.st38{fill:#F8CC19;}
	.st39{fill:#F8D12E;}
	.st40{fill:#F8D958;}
	.st41{fill:#5E5F5E;}
	.st42{fill:#F9EED1;}
	.st43{fill:#908985;}
	.st44{fill:#C02026;}
	.st45{opacity:0.2;fill:#FFFFFF;}
	.st46{fill:#C2C4C1;}
	.st47{fill:#2D6370;}
	.st48{fill:#996B39;}
	.st49{fill:#99CA41;}
	.st50{opacity:0.8;}
	.st51{fill:#614C32;}
	.st52{fill:#FFC10D;}
	.st53{fill:#FFFFFF;}
	.st54{fill:#626463;}
	.st55{fill:none;}
	.st56{fill:#CA7B29;}
	.st57{fill:#69C6D4;}
	.st58{fill:#9DDAEC;}
	.st59{fill:#9F2322;}
	.st60{fill:#343433;}
	.st61{fill:#344E5D;}
	.st62{fill:#367180;}
	.st63{fill:#D1E8F8;}
	.st64{fill:#3A3A3A;}
	.st65{fill:#D62127;}
	.st66{fill:#D7D7D7;}
	.st67{fill:#3D3B3B;}
	.st68{fill:#D89F29;}
	.st69{fill:#70BFC8;}
	.st70{fill:#A19F9F;}
	.st71{fill:#D62127;stroke:#D62127;stroke-width:2;stroke-linecap:round;stroke-linejoin:round;stroke-miterlimit:10;}
	.st72{fill:#A2D4DE;}
	.st73{fill:#A3DADA;}
	.st74{fill:#DA8727;}
	.st75{fill:#A6D0EE;}
	.st76{fill:#DB4A4B;}
	.st77{fill:#DBB626;}
	.st78{fill:#DDD555;}
	.st79{fill:#DDDDDC;}
]]>
</style>
<g>
	<g>
		<circle class="st1" cx="68.416" cy="68.417" r="63.333"/>
	</g>
	<g>
		<g>
			<g>
				<path class="st65" d="M115.067,79.149c0,3.232-6.768,5.853-9.998,5.853l-24.303-0.091V51.093c0-2.75,6.146-2.934,10.156-3.009
					c4.012-0.075,13.727-0.451,16.553,2.134C115.31,57.386,115.067,79.149,115.067,79.149z"/>
				<path class="st65" d="M80.935,86.288H28.183c-4.293,0-4.965-3.482-4.965-7.775v-3.836c0-4.295,3.482-5.718,7.775-5.718h49.941
					V86.288z"/>
				<path class="st65" d="M116.474,81.715c0,2.524-2.047,4.572-4.572,4.572H85.417c-2.525,0-4.572-2.048-4.572-4.572V69.47
					c0-2.524,2.047-4.572,4.572-4.572l26.484,2.978c2.525,0,4.572,2.049,4.572,4.572V81.715z"/>
				<path class="st44" d="M116.433,84.098c0,1.333-1.082,2.414-2.414,2.414H26.017c-1.332,0-2.412-1.081-2.412-2.414v-1.339
					c0-1.332,92.828-1.332,92.828,0V84.098z"/>
				<g>
					<g>
						<circle class="st25" cx="45.24" cy="85.728" r="8.071"/>
					</g>
					<circle class="st41" cx="45.241" cy="85.728" r="4.803"/>
					<circle class="st70" cx="45.24" cy="85.728" r="1.796"/>
				</g>
				<g>
					<g>
						<circle class="st25" cx="101.619" cy="85.728" r="8.071"/>
					</g>
					<circle class="st41" cx="101.62" cy="85.728" r="4.803"/>
					<circle class="st70" cx="101.619" cy="85.728" r="1.796"/>
				</g>
			</g>
			<path class="st58" d="M92.601,63.336c0,0.739-0.6,1.341-1.342,1.341h-6.953c-0.74,0-1.34-0.602-1.34-1.341V52.353
				c0-0.741,0.6-1.341,1.34-1.341h6.953c0.742,0,1.342,0.6,1.342,1.341V63.336z"/>
			<path class="st58" d="M109.093,64.677H95.89c-0.74,0-1.34-0.602-1.34-1.341V52.353c0-0.741,0.6-1.341,1.34-1.341h8.379
				C107.769,51.012,112.019,64.677,109.093,64.677z"/>
			<rect x="23.046" y="73.542" class="st65" width="93.471" height="2.7"/>
		</g>
	</g>
	<g>
		<path class="st21" d="M111.499,38.907c-0.141-0.604-0.748-0.979-1.352-0.835L39.612,54.798c-0.605,0.143-0.98,0.749-0.838,1.353
			c0.145,0.604,0.75,0.979,1.354,0.835l70.535-16.725C111.267,40.119,111.644,39.511,111.499,38.907z"/>
		<path class="st21" d="M40.872,55.177c-0.379-0.492-1.086-0.582-1.576-0.202l-14.141,9.62c-0.492,0.379-0.584,1.087-0.203,1.577
			c0.379,0.491,1.084,0.583,1.574,0.203l14.141-9.619C41.159,56.376,41.253,55.669,40.872,55.177z"/>
	</g>
	<g>
		<path class="st52" d="M111.499,40.885c-0.141-0.604-0.748-0.979-1.352-0.835L39.612,56.777c-0.605,0.143-0.98,0.749-0.838,1.353
			c0.145,0.604,0.75,0.979,1.354,0.835l70.535-16.725C111.267,42.097,111.644,41.49,111.499,40.885z"/>
		<path class="st52" d="M40.872,57.156c-0.379-0.492-1.086-0.582-1.576-0.202l-14.141,9.62c-0.492,0.379-0.584,1.087-0.203,1.577
			c0.379,0.491,1.084,0.583,1.574,0.203l14.141-9.619C41.159,58.355,41.253,57.648,40.872,57.156z"/>
	</g>
	<g>
		<path class="st22" d="M101.517,48.344h-4v-3.333c0-1.105,0.895-2.002,2-2.002l0,0c1.105,0,2,0.896,2,2.002V48.344z"/>
		<path class="st30" d="M99.579,48.344h-2.063v-3.333c0-1.105,0.895-2.002,2-2.002l0,0L99.579,48.344z"/>
	</g>
	<polygon class="st71" points="44.376,68.968 34.185,68.968 26.851,63.677 26.851,61.343 44.185,60.344 	"/>
</g>
</svg>
