<?xml version="1.0" encoding="utf-8"?>
<!-- Generator: Adobe Illustrator 19.1.0, SVG Export Plug-In . SVG Version: 6.00 Build 0)  -->
<svg version="1.1" id="Layer_1" xmlns="http://www.w3.org/2000/svg" xmlns:xlink="http://www.w3.org/1999/xlink" x="0px" y="0px"
	 viewBox="-159 397.3 44 46.6" style="enable-background:new -159 397.3 44 46.6;" xml:space="preserve">
<style type="text/css">
	.st0{fill:#E23053;}
	.st1{fill:#93C01F;}
	.st2{fill:#009EE2;}
	.st3{fill:#F8B133;}
	.st4{fill:#1D1D1B;}
</style>
<g>
	<g>
		<circle class="st0" cx="-152.9" cy="413.8" r="5.1"/>
		<circle class="st1" cx="-152.9" cy="425.5" r="5.1"/>
		<circle class="st1" cx="-142.3" cy="425.5" r="5.1"/>
		<circle class="st2" cx="-152.9" cy="437.2" r="5.1"/>
		<circle class="st2" cx="-142.3" cy="437.2" r="5.1"/>
		<circle class="st2" cx="-131.6" cy="437.2" r="5.1"/>
		<circle class="st0" cx="-142.3" cy="413.8" r="5.1"/>
		<circle class="st0" cx="-131.6" cy="413.8" r="5.1"/>
		<circle class="st3" cx="-131.6" cy="402.4" r="5.1"/>
		<circle class="st3" cx="-142.3" cy="402.4" r="5.1"/>
		<circle class="st3" cx="-152.9" cy="402.4" r="5.1"/>
		<circle class="st1" cx="-131.6" cy="425.5" r="5.1"/>
		<circle class="st2" cx="-120.8" cy="437.2" r="5.1"/>
		<circle class="st3" cx="-120.8" cy="402.4" r="5.1"/>
		<circle class="st1" cx="-120.8" cy="425.5" r="5.1"/>
		<circle class="st0" cx="-120.8" cy="413.8" r="5.1"/>
	</g>
	<g>
		<path class="st4" d="M-92.3,438.9h5.8v4.2h-16.1v-4.2h5.8V402h-5.8v-4.2h18.5c3.7,0,7.4,0.6,10.5,2.9c3.3,2.5,5.2,6.5,5.2,10.7
			c0,3.9-1.5,7.5-4.4,10.2c-3.2,3.1-6.7,3.6-10.9,3.6h-8.6V438.9z M-84.1,421c2.9,0,5.4-0.2,7.7-2.1c2.3-1.9,3.5-4.5,3.5-7.4
			s-1.4-5.6-3.6-7.4c-2.4-1.8-4.7-2.2-7.6-2.2h-8.1v19h8.1V421z"/>
		<path class="st4" d="M-30.8,433.7c-2.8,6.2-9,10.2-15.9,10.2c-9.5,0-17.3-7.6-17.3-17.2c0-9.4,7.5-17.6,17.1-17.6
			c9.9,0,17.5,7.7,17.5,17.5v1.3h-30.4c0.4,6.8,6.2,12.2,13.1,12.2c4.8,0,9.1-2.3,11.5-6.5h4.4V433.7z M-33.3,424.5
			c-1-6.8-6.8-11.5-13.6-11.5c-6.4,0-12.1,5.3-12.9,11.5H-33.3z"/>
		<path class="st4" d="M-14.8,417.2c2.7-4.9,7.5-8,13.2-8c9.7,0,17.4,7.7,17.4,17.4c0,3.6-1.3,7-2.8,9.5c-2.3,3.9-8,7.8-14.1,7.8
			c-5.7,0-10.8-2.8-13.7-7.8v6.9h-9.8v-3.9h5.6v-37.4h-5.6v-3.9h9.8L-14.8,417.2L-14.8,417.2z M11.7,426.4c0-7.2-5.9-13.1-13.2-13.1
			c-7.5,0-13.4,5.7-13.4,13.3c0,7.5,6.1,13.1,13.5,13.1C5.8,439.7,11.7,433.7,11.7,426.4z"/>
		<path class="st4" d="M29.6,417.2c2.7-4.9,7.5-8,13.2-8c9.7,0,17.4,7.7,17.4,17.4c0,3.6-1.3,7-2.8,9.5c-2.3,3.9-8,7.8-14.1,7.8
			c-5.7,0-10.8-2.8-13.7-7.8v6.9h-9.8v-3.9h5.6v-37.4h-5.6v-3.9h9.8L29.6,417.2L29.6,417.2z M56,426.4c0-7.2-5.9-13.1-13.2-13.1
			c-7.5,0-13.4,5.7-13.4,13.3c0,7.5,6.1,13.1,13.5,13.1C50.2,439.7,56,433.7,56,426.4z"/>
		<path class="st4" d="M74.4,439.1h5.5v3.9H64.2v-3.9h6v-37.4h-5.6v-3.9h9.8V439.1z"/>
		<path class="st4" d="M117.6,433.7c-2.8,6.2-9,10.2-15.9,10.2c-9.6,0-17.4-7.7-17.4-17.2c0-9.4,7.5-17.6,17.1-17.6
			c9.9,0,17.5,7.7,17.5,17.5v1.3H88.5c0.4,6.8,6.2,12.2,13.1,12.2c4.8,0,9.1-2.3,11.5-6.5h4.5V433.7z M115.1,424.5
			c-1-6.8-6.8-11.5-13.6-11.5c-6.4,0-12.1,5.3-12.9,11.5H115.1z"/>
	</g>
</g>
</svg>
