<?xml version="1.0" encoding="utf-8"?>
<!-- Generator: Adobe Illustrator 19.1.0, SVG Export Plug-In . SVG Version: 6.00 Build 0)  -->
<svg version="1.1" id="Layer_2" xmlns="http://www.w3.org/2000/svg" xmlns:xlink="http://www.w3.org/1999/xlink" x="0px" y="0px"
	 viewBox="-1033 2735.3 200 200" style="enable-background:new -1033 2735.3 200 200;" xml:space="preserve">
<style type="text/css">
	.st0{fill:#BDCCD4;}
	.st1{opacity:0.1;}
	.st2{fill:#222120;}
	.st3{fill:#FFFFFF;}
</style>
<g>
	<path class="st0" d="M-841,2836.3c0,50.3-40.7,91-91,91l0,0c-50.3,0-91-40.7-91-91l0,0c0-50.3,40.7-91,91-91l0,0
		C-881.7,2745.3-841,2786-841,2836.3L-841,2836.3z"/>
</g>
<g class="st1">
	<path class="st2" d="M-868.2,2771.2L-868.2,2771.2c35.8,35.3,36.3,92.9,1,128.7l0,0c-35.3,35.8-92.9,36.3-128.7,1l0,0"/>
</g>
<circle class="st3" cx="-932" cy="2834.1" r="55"/>
<g>
	<path class="st0" d="M-922,2793.9c0-1.7-1-3.1-2.4-3.1h-14.2c-1.4,0-2.4,1.4-2.4,3.1v80.9c0,1.7,1,3.5,2.4,3.5h14.2
		c1.4,0,2.3-1.8,2.3-3.5v-80.9H-922z"/>
	<path class="st0" d="M-972,2824.8c-1.7,0-3,1.1-3,2.6v14.4c0,1.4,1.3,2.5,3,2.5h80.7c1.7,0,3.3-1.1,3.3-2.5v-14.4
		c0-1.4-1.6-2.5-3.3-2.5L-972,2824.8z"/>
</g>
<g class="st1">
	<path d="M-922,2793.9c0-1.7-1-3.1-2.4-3.1h-14.2c-1.4,0-2.4,1.4-2.4,3.1v80.9c0,1.7,1,3.5,2.4,3.5h14.2c1.4,0,2.3-1.8,2.3-3.5
		v-80.9H-922z"/>
	<path d="M-972,2824.8c-1.7,0-3,1.1-3,2.6v14.4c0,1.4,1.3,2.5,3,2.5h80.7c1.7,0,3.3-1.1,3.3-2.5v-14.4c0-1.4-1.6-2.5-3.3-2.5
		L-972,2824.8z"/>
</g>
</svg>
