<?xml version="1.0" encoding="utf-8"?>
<!-- Generator: Adobe Illustrator 19.1.0, SVG Export Plug-In . SVG Version: 6.00 Build 0)  -->
<svg version="1.1" id="Layer_2_1_" xmlns="http://www.w3.org/2000/svg" xmlns:xlink="http://www.w3.org/1999/xlink" x="0px" y="0px"
	 viewBox="-1033 2735.3 200 200" style="enable-background:new -1033 2735.3 200 200;" xml:space="preserve">
<style type="text/css">
	.st0{fill:#F9A534;}
	.st1{opacity:0.1;}
	.st2{fill:#222120;}
	.st3{fill:#FFFFFF;}
	.st4{fill:none;stroke:#C1272D;}
</style>
<g>
	<path class="st0" d="M-841.8,2835.3c0,50.3-40.7,91-91,91l0,0c-50.3,0-91-40.7-91-91l0,0c0-50.3,40.7-91,91-91l0,0
		C-882.5,2744.3-841.8,2785-841.8,2835.3L-841.8,2835.3z"/>
</g>
<g class="st1">
	<path class="st2" d="M-869,2770.2L-869,2770.2c35.8,35.3,36.3,92.9,1,128.7l0,0c-35.3,35.8-92.9,36.3-128.7,1l0,0"/>
</g>
<polygon class="st3" points="-972.9,2793.5 -962.1,2793.5 -958.6,2783.2 -948.2,2786.5 -941.7,2777.9 -932.9,2784.2 -924.1,2777.9 
	-917.6,2786.7 -907.4,2783.4 -903.9,2793.7 -893.1,2793.9 -893.1,2804.7 -882.8,2808.2 -886.1,2818.5 -877.4,2825 -883.7,2833.8 
	-877.5,2842.7 -886.2,2849.1 -883.1,2859.5 -893.3,2862.9 -893.5,2873.7 -904.3,2873.8 -907.8,2884 -918.1,2880.8 -924.6,2889.4 
	-933.4,2883 -942.3,2889.3 -948.7,2880.6 -959,2883.8 -962.4,2873.5 -973.2,2873.3 -973.3,2862.5 -983.6,2859 -980.3,2848.7 
	-989,2842.2 -982.7,2833.4 -988.9,2824.5 -980.2,2818.1 -983.3,2807.7 -973.1,2804.4 "/>
<circle class="st0" cx="-933" cy="2833.8" r="41"/>
<circle class="st3" cx="-933" cy="2833.8" r="38.2"/>
<g>
	<path class="st0" d="M-935.5,2817.1h-0.1l-8.4,4.5l-1.3-5l10.6-5.6h5.6v48.3h-6.3V2817.1z"/>
</g>
<g>
	<path class="st0" d="M-926.8,2821c0.6,0.4,1.6,0.7,2.5,0.7c1.4,0,2-0.7,2-1.6c0-0.9-0.6-1.4-1.9-1.9c-1.9-0.6-2.7-1.7-2.7-2.9
		c0-1.6,1.4-3.1,3.6-3.1c1.1,0,2,0.3,2.6,0.6l-0.5,1.4c-0.4-0.3-1.1-0.6-2.1-0.6c-1.1,0-1.7,0.6-1.7,1.4c0,0.9,0.6,1.2,2,1.8
		c1.8,0.7,2.7,1.6,2.7,3.1c0,1.8-1.4,3.1-3.9,3.1c-1.1,0-2.2-0.3-2.9-0.7L-926.8,2821z"/>
	<path class="st0" d="M-915.8,2809.5v3h2.7v1.4h-2.7v5.6c0,1.3,0.4,2,1.4,2c0.5,0,0.9-0.1,1.1-0.1l0.1,1.4c-0.4,0.1-0.9,0.3-1.6,0.3
		c-0.9,0-1.6-0.3-2-0.8c-0.6-0.6-0.7-1.5-0.7-2.7v-5.6h-1.6v-1.4h1.6v-2.5L-915.8,2809.5z"/>
</g>
<path class="st4" d="M-875.8,2810.6"/>
</svg>
