<?xml version="1.0" encoding="utf-8"?>
<!-- Generator: Adobe Illustrator 19.1.0, SVG Export Plug-In . SVG Version: 6.00 Build 0)  -->
<svg version="1.1" id="Layer_3" xmlns="http://www.w3.org/2000/svg" xmlns:xlink="http://www.w3.org/1999/xlink" x="0px" y="0px"
	 viewBox="-1033 2735.3 200 200" style="enable-background:new -1033 2735.3 200 200;" xml:space="preserve">
<style type="text/css">
	.st0{fill:#22B573;}
	.st1{opacity:0.1;}
	.st2{fill:#222120;}
	.st3{fill:#FFFFFF;}
	.st4{fill:#2ECC71;}
	.st5{font-family:'Arial-BoldMT';}
	.st6{font-size:35px;}
</style>
<g>
	<path class="st0" d="M-842,2834.3c0,50.3-40.7,91-91,91h0c-50.3,0-91-40.7-91-91v0c0-50.3,40.7-91,91-91h0
		C-882.7,2743.3-842,2784-842,2834.3L-842,2834.3z"/>
</g>
<g class="st1">
	<path class="st2" d="M-869.2,2769.2L-869.2,2769.2c35.8,35.3,36.3,92.9,1,128.7l0,0c-35.3,35.8-92.9,36.3-128.7,1l0,0"/>
</g>
<rect x="-1009" y="2804.1" transform="matrix(-0.7071 0.7071 -0.7071 -0.7071 409.3912 5495.6558)" class="st3" width="151" height="57"/>
<path class="st4" d="M-965.3,2896.3l95.5-95.5l-8-6.6c-4.9,4.9-12.9,4.9-17.9,0c-4.9-4.9-4.9-12.9,0-17.9l-5.9-7.3l-95.5,95.5
	l6.9,6.4c4.9-4.9,12.9-4.9,17.9,0c4.9,4.9,4.9,12.9,0,17.9l7.3,8"/>
<path class="st3" d="M-924.3,2819.7c8.5,6.6,8.5,19.2,0,25.8c-5.8,4.5-14,4.5-19.8,0c-8.5-6.6-8.5-19.2,0-25.8
	C-938.3,2815.2-930.1,2815.3-924.3,2819.7z"/>
<text transform="matrix(0.711 -0.7032 0.7032 0.711 -933.0979 2847.553)" class="st0 st5 st6">£</text>
</svg>
