<?xml version="1.0" encoding="utf-8"?>
<!-- Generator: Adobe Illustrator 19.1.0, SVG Export Plug-In . SVG Version: 6.00 Build 0)  -->
<svg version="1.1" id="Layer_3" xmlns="http://www.w3.org/2000/svg" xmlns:xlink="http://www.w3.org/1999/xlink" x="0px" y="0px"
	 viewBox="-1033 2735.3 200 200" style="enable-background:new -1033 2735.3 200 200;" xml:space="preserve">
<style type="text/css">
	.st0{fill:#E04F86;}
	.st1{opacity:0.1;}
	.st2{fill:#222120;}
	.st3{fill:#F291B9;}
	.st4{fill:#FFFFFF;}
</style>
<g>
	<path class="st0" d="M-842,2834.3c0,50.3-40.7,91-91,91h0c-50.3,0-91-40.7-91-91v0c0-50.3,40.7-91,91-91h0
		C-882.7,2743.3-842,2784-842,2834.3L-842,2834.3z"/>
</g>
<g class="st1">
	<path class="st2" d="M-869.2,2769.2L-869.2,2769.2c35.8,35.3,36.3,92.9,1,128.7l0,0c-35.3,35.8-92.9,36.3-128.7,1l0,0"/>
</g>
<g>
	<circle class="st3" cx="-933.2" cy="2833.4" r="15"/>
	<ellipse class="st4" cx="-932.9" cy="2792.1" rx="11.3" ry="19.7"/>
	
		<ellipse transform="matrix(0.7071 0.7071 -0.7071 0.7071 1718.2426 1460.2231)" class="st4" cx="-903.5" cy="2804.2" rx="11.3" ry="19.7"/>
	<ellipse class="st4" cx="-891.3" cy="2833.5" rx="19.7" ry="11.3"/>
	
		<ellipse transform="matrix(-0.7071 0.7071 -0.7071 -0.7071 482.0667 5526.1787)" class="st4" cx="-903.4" cy="2862.9" rx="11.3" ry="19.7"/>
	<ellipse class="st4" cx="-932.8" cy="2875.1" rx="11.3" ry="19.7"/>
	
		<ellipse transform="matrix(-0.7071 -0.7071 0.7071 -0.7071 -3666.9346 4207.1504)" class="st4" cx="-962.1" cy="2863" rx="11.3" ry="19.7"/>
	<ellipse class="st4" cx="-974.3" cy="2833.7" rx="19.7" ry="11.3"/>
	
		<ellipse transform="matrix(0.7071 -0.7071 0.7071 0.7071 -2264.7854 140.9634)" class="st4" cx="-962.2" cy="2804.3" rx="11.3" ry="19.7"/>
</g>
</svg>
