<?xml version="1.0" encoding="utf-8"?>
<!-- Generator: Adobe Illustrator 16.0.0, SVG Export Plug-In . SVG Version: 6.00 Build 0)  -->
<!DOCTYPE svg PUBLIC "-//W3C//DTD SVG 1.1//EN" "http://www.w3.org/Graphics/SVG/1.1/DTD/svg11.dtd">
<svg version="1.1" id="Layer_1" xmlns="http://www.w3.org/2000/svg" xmlns:xlink="http://www.w3.org/1999/xlink" x="0px" y="0px"
	 width="136.914px" height="136.914px" viewBox="0 0 136.914 136.914" enable-background="new 0 0 136.914 136.914"
	 xml:space="preserve">
<g>
	<g>
		<g>
			<g>
				<g>
					<circle fill="#4ABC96" cx="68.457" cy="68.457" r="63.333"/>
				</g>
			</g>
		</g>
	</g>
	<g>
		<g>
			<g>
				<path fill="#A07238" d="M37.566,107.743c-1.484,1.482-3.892,1.482-5.375,0l0,0c-1.485-1.487-1.485-3.893,0-5.376l27.821-27.824
					c1.483-1.479,3.89-1.479,5.375,0.004l0,0c1.483,1.48,1.483,3.887-0.002,5.373L37.566,107.743z"/>
			</g>
			<g>
				<path fill="#D4A160" d="M41.283,108.763c-1.301,1.297-4.616,0.088-7.407-2.704l0,0c-2.793-2.793-4.003-6.11-2.704-7.407
					l29.546-29.551c1.301-1.298,4.618-0.086,7.409,2.705l0,0c2.793,2.788,4.004,6.105,2.704,7.41L41.283,108.763z"/>
			</g>
			<g>
				<path fill="#A07238" d="M59.351,70.336l-3.886,3.885c0,0,3.549,7.84,11.182,9.044l2.82-2.818v-3.646L59.351,70.336z"/>
			</g>
		</g>
		<g>
			<g>
				<circle fill="#60C3B6" cx="83.369" cy="56.563" r="27.326"/>
			</g>
			<g>
				<circle fill="#83CECA" cx="84.982" cy="59.197" r="21.467"/>
			</g>
			<g>
				<path fill="#EBEDEF" d="M62.186,35.38c-11.701,11.699-11.701,30.669,0,42.366c11.702,11.702,30.668,11.702,42.369,0.003
					c11.698-11.7,11.698-30.67,0-42.369C92.854,23.68,73.888,23.68,62.186,35.38z M99.214,72.408c-8.748,8.75-22.937,8.751-31.688,0
					c-8.752-8.749-8.752-22.939,0-31.688c8.751-8.751,22.939-8.751,31.688-0.002C107.969,49.471,107.965,63.659,99.214,72.408z"/>
			</g>
			<g opacity="0.7">
				<path fill="#FFFFFF" d="M68.541,53.633c-0.56,1.222-0.026,2.679,1.195,3.24c1.227,0.57,2.682,0.027,3.245-1.189
					c0,0,0.023-0.058,0.142-0.271c0.847-1.552,4.932-8.138,13.568-8.941c1.048-0.103,1.873-0.847,2.128-1.809
					c0.071-0.271,0.099-0.56,0.069-0.859c-0.134-1.342-1.323-2.33-2.667-2.195C73.489,42.918,68.667,53.386,68.541,53.633z"/>
			</g>
			<g>
				<path fill="#357180" d="M85.992,58.83c-0.004,0-0.008,0.002-0.011,0.002c0.002,0.049,0.014,0.097,0.014,0.146
					c0,1.693-1.374,3.066-3.065,3.066c-1.346,0-2.476-0.87-2.889-2.074c-1.744,0.415-3.477,0.864-4.814,1.21l-1.187,0.307
					c-1.449,0.369-2.753,0.733-3.95,1.144c0.275,0.46,0.443,0.991,0.443,1.566c0,1.693-1.373,3.066-3.065,3.066
					c-1.25,0-2.322-0.75-2.8-1.825c-0.449,0.352-0.887,0.743-1.319,1.164c1.05,2.093,2.432,4.061,4.178,5.806
					c8.751,8.751,22.939,8.75,31.688,0c6.684-6.682,8.247-16.531,4.721-24.714c-0.787,0.689-1.585,1.535-2.446,2.45
					c-0.181,0.192-0.362,0.385-0.548,0.58c0.198,0.407,0.319,0.857,0.319,1.34c0,1.691-1.372,3.065-3.065,3.065
					c-0.563,0-1.083-0.164-1.537-0.427"/>
			</g>
			<g>
				<circle fill="#FDF2F7" cx="67.467" cy="64.197" r="3.066"/>
			</g>
			<g>
				<circle fill="#FDF2F7" cx="82.929" cy="58.979" r="3.066"/>
			</g>
			<g>
				<circle fill="#FDF2F7" cx="98.194" cy="52.064" r="3.066"/>
			</g>
			<g>
				<path fill="#FDF7FA" d="M74.075,61.631l1.181-0.304c3.045-0.79,8.143-2.11,10.75-2.35c8.063-0.736,12.235-5.169,15.589-8.731
					c0.863-0.917,1.646-1.744,2.403-2.416c-0.124-0.292-0.266-0.578-0.402-0.865c-0.866,0.74-1.732,1.657-2.669,2.651
					c-3.247,3.449-7.289,7.742-15.005,8.446c-2.682,0.246-7.824,1.579-10.896,2.375l-1.177,0.304
					c-4.696,1.197-7.928,2.325-10.853,5.102c0.134,0.293,0.261,0.59,0.408,0.878C66.235,63.93,69.35,62.837,74.075,61.631z"/>
			</g>
		</g>
	</g>
</g>
</svg>
