<?xml version="1.0" encoding="utf-8"?>
<!-- Generator: Adobe Illustrator 16.0.0, SVG Export Plug-In . SVG Version: 6.00 Build 0)  -->
<!DOCTYPE svg PUBLIC "-//W3C//DTD SVG 1.1//EN" "http://www.w3.org/Graphics/SVG/1.1/DTD/svg11.dtd">
<svg version="1.1" id="Layer_1" xmlns="http://www.w3.org/2000/svg" xmlns:xlink="http://www.w3.org/1999/xlink" x="0px" y="0px"
	 width="136.833px" height="136.833px" viewBox="0 0 136.833 136.833" style="enable-background:new 0 0 136.833 136.833;"
	 xml:space="preserve">
<style type="text/css">
<![CDATA[
	.st0{fill:#49A0AE;}
	.st1{fill:#ADADAD;}
	.st2{fill:#AF8233;}
	.st3{fill:#AFAFAF;}
	.st4{fill:#E2E2E2;}
	.st5{fill:#4ABC96;}
	.st6{fill:#E95E5D;}
	.st7{fill:#4F9F47;}
	.st8{fill:#846443;}
	.st9{fill:#EA8500;}
	.st10{fill:#B72D4C;}
	.st11{fill:#EB4424;}
	.st12{fill:#EB5453;}
	.st13{fill:#B8972F;}
	.st14{fill:#ED8422;}
	.st15{fill:#EDB20F;}
	.st16{fill:#EE4344;}
	.st17{fill:#EF0012;}
	.st18{fill:#EF4F31;}
	.st19{fill:#51B0B9;}
	.st20{fill:#53ADB5;}
	.st21{fill:#F0AC1E;}
	.st22{fill:#F2AC0F;}
	.st23{fill:#F2B408;}
	.st24{fill:#F47C2C;}
	.st25{fill:#F4F4E9;}
	.st26{fill:#5BB352;}
	.st27{fill:#F6E568;}
	.st28{fill:#F6EBD3;}
	.st29{fill:#5C524A;}
	.st30{fill:#F8B43C;}
	.st31{fill:#C0355A;}
	.st32{fill:#C0DD19;}
	.st33{fill:#C1C1C1;}
	.st34{fill:#937048;}
	.st35{fill:#C48F2C;}
	.st36{fill:#951D38;}
	.st37{fill:#C4A12E;}
	.st38{fill:#2D444F;}
	.st39{fill:#996B07;}
	.st40{fill:#99999A;}
	.st41{fill:#FCB830;}
	.st42{fill:#FCC288;}
	.st43{fill:#C90018;}
	.st44{opacity:0.4;}
	.st45{fill:#FFC50B;}
	.st46{fill:#FFF800;}
	.st47{fill:#CA842A;}
	.st48{fill:#CBCBC5;}
	.st49{fill:#CC3432;}
	.st50{fill:#344E5D;}
	.st51{fill:#008593;}
	.st52{fill:#D04646;}
	.st53{fill-rule:evenodd;clip-rule:evenodd;fill:#FFC50B;}
	.st54{fill:#D62127;}
	.st55{fill:#D64747;}
	.st56{fill:#D69A07;}
	.st57{fill:#3CB881;}
	.st58{fill:#D89205;}
	.st59{fill:#A0BF19;}
	.st60{fill:#DA494A;}
	.st61{fill:#A8213B;}
	.st62{fill:#DC494A;}
	.st63{fill:#DDA027;}
	.st64{fill:#DFDFDF;}
]]>
</style>
<g>
	<g>
		<circle class="st45" cx="68.417" cy="68.417" r="63.333"/>
	</g>
	<g>
		<path class="st11" d="M111.158,21.685L80.826,69.552l-3.512-2.508l7,5l33.463-43.291C115.75,26.234,113.541,23.867,111.158,21.685
			z"/>
		<path class="st18" d="M80.826,69.552l30.332-47.867c-2.279-2.086-4.711-4.009-7.277-5.747L77.314,67.044L80.826,69.552z"/>
		<path class="st11" d="M60.939,67.044l-3.51,2.508L26.587,20.881c-2.439,2.149-4.719,4.477-6.805,6.974l34.156,44.189
			L60.939,67.044z"/>
		<path class="st18" d="M57.429,69.552l3.51-2.508L34.017,15.251c-2.617,1.695-5.1,3.577-7.43,5.63L57.429,69.552z"/>
	</g>
	<g>
		<circle class="st9" cx="68.982" cy="86.544" r="26.5"/>
		<circle class="st45" cx="68.982" cy="86.544" r="19.5"/>
	</g>
	<path class="st46" d="M81.283,82.796c-0.072-0.223-0.264-0.385-0.496-0.418l-7.895-1.148l-3.535-7.158
		c-0.203-0.415-0.893-0.415-1.098,0l-3.535,7.158l-7.895,1.148c-0.232,0.033-0.422,0.195-0.496,0.418
		c-0.07,0.222-0.014,0.465,0.154,0.627l5.717,5.571l-1.35,7.867c-0.041,0.229,0.055,0.461,0.242,0.599
		c0.189,0.137,0.441,0.155,0.646,0.047l7.064-3.715l7.064,3.715c0.088,0.047,0.188,0.07,0.287,0.07c0.125,0,0.254-0.039,0.359-0.117
		c0.188-0.138,0.283-0.369,0.242-0.599l-1.35-7.867l5.717-5.571C81.294,83.261,81.355,83.018,81.283,82.796z"/>
</g>
</svg>
