<?xml version="1.0" encoding="utf-8"?>
<!-- Generator: Adobe Illustrator 16.0.0, SVG Export Plug-In . SVG Version: 6.00 Build 0)  -->
<!DOCTYPE svg PUBLIC "-//W3C//DTD SVG 1.1//EN" "http://www.w3.org/Graphics/SVG/1.1/DTD/svg11.dtd">
<svg version="1.1" id="Layer_1" xmlns="http://www.w3.org/2000/svg" xmlns:xlink="http://www.w3.org/1999/xlink" x="0px" y="0px"
	 width="136.833px" height="136.834px" viewBox="0 0 136.833 136.834" style="enable-background:new 0 0 136.833 136.834;"
	 xml:space="preserve">
<style type="text/css">
<![CDATA[
	.st0{fill-rule:evenodd;clip-rule:evenodd;fill:#08090B;}
	.st1{fill:#ABD9DF;}
	.st2{fill:#49A0AE;}
	.st3{fill:#ADA495;}
	.st4{fill:#AED1D5;}
	.st5{fill:#E1E0E0;}
	.st6{fill:#E1E2D4;}
	.st7{fill:#E4E1D3;}
	.st8{fill:#E4E4E4;}
	.st9{fill:#4ABC96;}
	.st10{fill:#E5DCD6;}
	.st11{fill:#E79E2D;}
	.st12{fill:#E7E0DC;}
	.st13{fill:#E7E4E2;}
	.st14{fill:#4D4C4C;}
	.st15{fill:#4D4D4D;}
	.st16{fill:#E84849;}
	.st17{fill:#E8C638;}
	.st18{fill:#B0DFE5;}
	.st19{fill:#B19353;}
	.st20{fill:#83725E;}
	.st21{fill:#B2B2B2;}
	.st22{fill:#83CECA;}
	.st23{fill:#B3932F;}
	.st24{fill:#1A7877;}
	.st25{fill:#868787;}
	.st26{fill:#87BCC0;}
	.st27{fill:#EB9682;}
	.st28{fill:#EBEDEF;}
	.st29{fill:#EBF3F6;}
	.st30{fill:#EDAC80;}
	.st31{fill:#1FA85B;}
	.st32{fill:#EFEAE9;}
	.st33{fill:#EFEDEC;}
	.st34{fill:#5399AA;}
	.st35{fill:#575757;}
	.st36{fill:#BAADAB;}
	.st37{fill:#BABEB5;}
	.st38{fill:#8BBEC0;}
	.st39{fill:#8BBEC3;}
	.st40{fill:#8CC3CC;}
	.st41{fill:#594E3C;}
	.st42{fill:#BDC0A7;}
	.st43{fill:#8FB5B6;}
	.st44{fill:#BF5537;}
	.st45{fill:#228080;}
	.st46{fill:#F1A977;}
	.st47{fill:#24986B;}
	.st48{opacity:0.5;fill:#FFFFFF;}
	.st49{fill:#F3F0ED;}
	.st50{fill:#F5B78C;}
	.st51{fill:#F5EE7D;}
	.st52{fill:#5B5B5B;}
	.st53{fill:#28898E;}
	.st54{fill:#5EACB4;}
	.st55{fill:#5F5E5E;}
	.st56{fill:#909090;}
	.st57{fill:#917C60;}
	.st58{fill:#C0B8AA;}
	.st59{fill:#C0C0C0;}
	.st60{fill:#C1AA9A;}
	.st61{fill:#C1D1B0;}
	.st62{fill:url(#SVGID_1_);}
	.st63{fill:url(#SVGID_2_);}
	.st64{fill:url(#SVGID_3_);}
	.st65{fill:url(#SVGID_4_);}
	.st66{fill:url(#SVGID_5_);}
	.st67{fill:#C2C099;}
	.st68{fill:#C3C3C3;}
	.st69{fill:#94C5C5;}
	.st70{fill:#958469;}
	.st71{fill:#95C3CC;}
	.st72{fill:#969595;}
	.st73{fill:#2C8484;}
	.st74{fill:#FBBF96;}
	.st75{fill:#98C7C8;}
	.st76{fill:#98C8D0;}
	.st77{fill:#99CA41;}
	.st78{fill:#C9C9C8;}
	.st79{fill:#FDD6B2;}
	.st80{opacity:0.7;}
	.st81{fill:#60C3B6;}
	.st82{fill:#616262;}
	.st83{fill:#FFFFFF;}
	.st84{fill:none;}
	.st85{fill:#9A856A;}
	.st86{fill:#9A8671;}
	.st87{fill:#676767;}
	.st88{fill:#67B8CB;}
	.st89{fill:#CADCBA;}
	.st90{fill:#CAE7DA;}
	.st91{fill:#CB774C;}
	.st92{fill:#9CD2D2;}
	.st93{fill:#CCC9B9;}
	.st94{fill:#9DC3C5;}
	.st95{fill:#CDC6C3;}
	.st96{fill:#CDCCCB;}
	.st97{fill:#CDCDCE;}
	.st98{fill:#9ECAD2;}
	.st99{fill:#30898E;}
	.st100{fill:#308A8E;}
	.st101{opacity:0.7;fill:#FFFFFF;}
	.st102{fill:#343433;}
	.st103{fill:#344E5D;}
	.st104{fill:#357180;}
	.st105{fill:#6A7872;}
	.st106{fill:#37848C;}
	.st107{fill:#37919B;}
	.st108{fill:#6C6C6B;}
	.st109{fill:#38A37C;}
	.st110{fill:#6CC077;}
	.st111{fill:#6D6868;}
	.st112{fill:#D0D1D1;}
	.st113{fill:#D0E3E5;}
	.st114{opacity:0.15;fill:#E3F3F7;}
	.st115{fill:#D4A160;}
	.st116{fill:#D4E1C4;}
	.st117{fill:#D5CEC9;}
	.st118{fill:#3B3838;}
	.st119{fill:#08090B;}
	.st120{fill:#3CB881;}
	.st121{fill:#D7B528;}
	.st122{fill:#D7D7D7;}
	.st123{fill:#3D4040;}
	.st124{fill:#D8D1CE;}
	.st125{fill:none;stroke:#75A9AB;stroke-linecap:round;stroke-linejoin:round;stroke-miterlimit:10;}
	.st126{fill:#A07238;}
	.st127{opacity:0.5;fill:#AED1D5;}
	.st128{fill:#A2D4DE;}
	.st129{fill:#74726A;}
	.st130{fill:#A69071;}
	.st131{fill:#776850;}
	.st132{fill:#A6CED1;}
	.st133{fill:#A78F7E;}
	.st134{fill:#787878;}
	.st135{fill:#DBD6D4;}
	.st136{fill:#DBDBDA;}
	.st137{fill:#DCB127;}
	.st138{fill:#DCD2CC;}
	.st139{fill:#DDD3CC;}
	.st140{fill:#DDDDDC;}
	.st141{fill:#418068;}
	.st142{fill:#41979F;}
]]>
</style>
<g>
	<g>
		<g>
			<circle class="st128" cx="68.417" cy="68.417" r="63.333"/>
		</g>
	</g>
	<g>
		<g>
			<path class="st76" d="M61.414,63.762H40.628V24.952c0-1.407,1.141-2.547,2.546-2.547h15.693c1.405,0,2.546,1.14,2.546,2.547
				V63.762z"/>
			<path class="st39" d="M40.628,24.952c0-1.407,1.141-2.547,2.546-2.547h15.693c1.405,0,2.546,1.14,2.546,2.547H40.628z"/>
			<path class="st5" d="M44.293,62.852c-0.171,0-0.31-0.137-0.31-0.309v-1.91c0-0.17,0.139-0.31,0.31-0.31h4.411
				c0.172,0,0.311,0.14,0.311,0.31v1.91c0,0.172-0.139,0.309-0.311,0.309H44.293z"/>
			<path class="st5" d="M53.337,62.852c-0.17,0-0.309-0.137-0.309-0.309v-1.91c0-0.17,0.139-0.31,0.309-0.31h4.413
				c0.169,0,0.308,0.14,0.308,0.31v1.91c0,0.172-0.139,0.309-0.308,0.309H53.337z"/>
			<g>
				<path class="st5" d="M53.337,57.763c-0.17,0-0.309-0.138-0.309-0.31v-1.91c0-0.17,0.139-0.309,0.309-0.309h1.125
					c0.17,0,0.31,0.139,0.31,0.309v1.91c0,0.172-0.14,0.31-0.31,0.31H53.337z"/>
				<path class="st5" d="M56.625,57.763c-0.171,0-0.309-0.138-0.309-0.31v-1.91c0-0.17,0.138-0.309,0.309-0.309h1.126
					c0.169,0,0.308,0.139,0.308,0.309v1.91c0,0.172-0.139,0.31-0.308,0.31H56.625z"/>
				<path class="st5" d="M44.289,57.763c-0.171,0-0.311-0.138-0.311-0.31v-1.91c0-0.17,0.14-0.309,0.311-0.309h1.124
					c0.171,0,0.31,0.139,0.31,0.309v1.91c0,0.172-0.139,0.31-0.31,0.31H44.289z"/>
				<path class="st5" d="M47.576,57.763c-0.169,0-0.31-0.138-0.31-0.31v-1.91c0-0.17,0.141-0.309,0.31-0.309h1.125
					c0.171,0,0.311,0.139,0.311,0.309v1.91c0,0.172-0.14,0.31-0.311,0.31H47.576z"/>
			</g>
			<g>
				<path class="st5" d="M53.337,51.188c-0.17,0-0.309-0.139-0.309-0.309v-1.91c0-0.17,0.139-0.31,0.309-0.31h1.125
					c0.17,0,0.31,0.14,0.31,0.31v1.91c0,0.17-0.14,0.309-0.31,0.309H53.337z"/>
				<path class="st5" d="M56.625,51.188c-0.171,0-0.309-0.139-0.309-0.309v-1.91c0-0.17,0.138-0.31,0.309-0.31h1.126
					c0.169,0,0.308,0.14,0.308,0.31v1.91c0,0.17-0.139,0.309-0.308,0.309H56.625z"/>
				<path class="st5" d="M44.289,51.188c-0.171,0-0.311-0.139-0.311-0.309v-1.91c0-0.17,0.14-0.31,0.311-0.31h1.124
					c0.171,0,0.31,0.14,0.31,0.31v1.91c0,0.17-0.139,0.309-0.31,0.309H44.289z"/>
				<path class="st5" d="M47.576,51.188c-0.169,0-0.31-0.139-0.31-0.309v-1.91c0-0.17,0.141-0.31,0.31-0.31h1.125
					c0.171,0,0.311,0.14,0.311,0.31v1.91c0,0.17-0.14,0.309-0.311,0.309H47.576z"/>
			</g>
			<g>
				<path class="st5" d="M53.337,44.614c-0.17,0-0.309-0.141-0.309-0.31v-1.909c0-0.17,0.139-0.311,0.309-0.311h1.125
					c0.17,0,0.31,0.141,0.31,0.311v1.909c0,0.169-0.14,0.31-0.31,0.31H53.337z"/>
				<path class="st5" d="M56.625,44.614c-0.171,0-0.309-0.141-0.309-0.31v-1.909c0-0.17,0.138-0.311,0.309-0.311h1.126
					c0.169,0,0.308,0.141,0.308,0.311v1.909c0,0.169-0.139,0.31-0.308,0.31H56.625z"/>
				<path class="st5" d="M44.289,44.614c-0.171,0-0.311-0.141-0.311-0.31v-1.909c0-0.17,0.14-0.311,0.311-0.311h1.124
					c0.171,0,0.31,0.141,0.31,0.311v1.909c0,0.169-0.139,0.31-0.31,0.31H44.289z"/>
				<path class="st5" d="M47.576,44.614c-0.169,0-0.31-0.141-0.31-0.31v-1.909c0-0.17,0.141-0.311,0.31-0.311h1.125
					c0.171,0,0.311,0.141,0.311,0.311v1.909c0,0.169-0.14,0.31-0.311,0.31H47.576z"/>
			</g>
			<g>
				<path class="st5" d="M53.337,38.04c-0.17,0-0.309-0.14-0.309-0.309v-1.91c0-0.17,0.139-0.309,0.309-0.309h1.125
					c0.17,0,0.31,0.139,0.31,0.309v1.91c0,0.169-0.14,0.309-0.31,0.309H53.337z"/>
				<path class="st5" d="M56.625,38.04c-0.171,0-0.309-0.14-0.309-0.309v-1.91c0-0.17,0.138-0.309,0.309-0.309h1.126
					c0.169,0,0.308,0.139,0.308,0.309v1.91c0,0.169-0.139,0.309-0.308,0.309H56.625z"/>
				<path class="st5" d="M44.289,38.04c-0.171,0-0.311-0.14-0.311-0.309v-1.91c0-0.17,0.14-0.309,0.311-0.309h1.124
					c0.171,0,0.31,0.139,0.31,0.309v1.91c0,0.169-0.139,0.309-0.31,0.309H44.289z"/>
				<path class="st5" d="M47.576,38.04c-0.169,0-0.31-0.14-0.31-0.309v-1.91c0-0.17,0.141-0.309,0.31-0.309h1.125
					c0.171,0,0.311,0.139,0.311,0.309v1.91c0,0.169-0.14,0.309-0.311,0.309H47.576z"/>
			</g>
			<g>
				<path class="st5" d="M53.337,31.464c-0.17,0-0.309-0.138-0.309-0.309v-1.909c0-0.172,0.139-0.312,0.309-0.312h1.125
					c0.17,0,0.31,0.14,0.31,0.312v1.909c0,0.171-0.14,0.309-0.31,0.309H53.337z"/>
				<path class="st5" d="M56.625,31.464c-0.171,0-0.309-0.138-0.309-0.309v-1.909c0-0.172,0.138-0.312,0.309-0.312h1.126
					c0.169,0,0.308,0.14,0.308,0.312v1.909c0,0.171-0.139,0.309-0.308,0.309H56.625z"/>
				<path class="st5" d="M44.289,31.464c-0.171,0-0.311-0.138-0.311-0.309v-1.909c0-0.172,0.14-0.312,0.311-0.312h1.124
					c0.171,0,0.31,0.14,0.31,0.312v1.909c0,0.171-0.139,0.309-0.31,0.309H44.289z"/>
				<path class="st5" d="M47.576,31.464c-0.169,0-0.31-0.138-0.31-0.309v-1.909c0-0.172,0.141-0.312,0.31-0.312h1.125
					c0.171,0,0.311,0.14,0.311,0.312v1.909c0,0.171-0.14,0.309-0.311,0.309H47.576z"/>
			</g>
			<g>
				<path class="st39" d="M50.019,60.561c0-0.135,0.111-0.246,0.244-0.246h1.511c0.134,0,0.245,0.111,0.245,0.246v3.201h-2V60.561z"
					/>
				<circle class="st96" cx="50.332" cy="62.049" r="0.125"/>
			</g>
		</g>
		<g>
			<path class="st76" d="M95.929,63.762H75.146V24.952c0-1.407,1.141-2.547,2.545-2.547h15.695c1.405,0,2.543,1.14,2.543,2.547
				V63.762z"/>
			<path class="st39" d="M75.146,24.952c0-1.407,1.141-2.547,2.545-2.547h15.695c1.405,0,2.543,1.14,2.543,2.547H75.146z"/>
			<path class="st5" d="M78.808,62.852c-0.169,0-0.307-0.137-0.307-0.309v-1.91c0-0.17,0.138-0.31,0.307-0.31h4.413
				c0.171,0,0.31,0.14,0.31,0.31v1.91c0,0.172-0.139,0.309-0.31,0.309H78.808z"/>
			<path class="st5" d="M87.855,62.852c-0.172,0-0.311-0.137-0.311-0.309v-1.91c0-0.17,0.139-0.31,0.311-0.31h4.412
				c0.171,0,0.309,0.14,0.309,0.31v1.91c0,0.172-0.138,0.309-0.309,0.309H87.855z"/>
			<g>
				<path class="st5" d="M87.855,57.763c-0.172,0-0.311-0.138-0.311-0.31v-1.91c0-0.17,0.139-0.309,0.311-0.309h1.124
					c0.171,0,0.311,0.139,0.311,0.309v1.91c0,0.172-0.14,0.31-0.311,0.31H87.855z"/>
				<path class="st5" d="M91.141,57.763c-0.169,0-0.31-0.138-0.31-0.31v-1.91c0-0.17,0.141-0.309,0.31-0.309h1.126
					c0.171,0,0.309,0.139,0.309,0.309v1.91c0,0.172-0.138,0.31-0.309,0.31H91.141z"/>
				<path class="st5" d="M78.804,57.763c-0.17,0-0.309-0.138-0.309-0.31v-1.91c0-0.17,0.139-0.309,0.309-0.309h1.127
					c0.169,0,0.309,0.139,0.309,0.309v1.91c0,0.172-0.14,0.31-0.309,0.31H78.804z"/>
				<path class="st5" d="M82.091,57.763c-0.169,0-0.307-0.138-0.307-0.31v-1.91c0-0.17,0.138-0.309,0.307-0.309h1.125
					c0.172,0,0.311,0.139,0.311,0.309v1.91c0,0.172-0.139,0.31-0.311,0.31H82.091z"/>
			</g>
			<g>
				<path class="st5" d="M87.855,51.188c-0.172,0-0.311-0.139-0.311-0.309v-1.91c0-0.17,0.139-0.31,0.311-0.31h1.124
					c0.171,0,0.311,0.14,0.311,0.31v1.91c0,0.17-0.14,0.309-0.311,0.309H87.855z"/>
				<path class="st5" d="M91.141,51.188c-0.169,0-0.31-0.139-0.31-0.309v-1.91c0-0.17,0.141-0.31,0.31-0.31h1.126
					c0.171,0,0.309,0.14,0.309,0.31v1.91c0,0.17-0.138,0.309-0.309,0.309H91.141z"/>
				<path class="st5" d="M78.804,51.188c-0.17,0-0.309-0.139-0.309-0.309v-1.91c0-0.17,0.139-0.31,0.309-0.31h1.127
					c0.169,0,0.309,0.14,0.309,0.31v1.91c0,0.17-0.14,0.309-0.309,0.309H78.804z"/>
				<path class="st5" d="M82.091,51.188c-0.169,0-0.307-0.139-0.307-0.309v-1.91c0-0.17,0.138-0.31,0.307-0.31h1.125
					c0.172,0,0.311,0.14,0.311,0.31v1.91c0,0.17-0.139,0.309-0.311,0.309H82.091z"/>
			</g>
			<g>
				<path class="st5" d="M87.855,44.614c-0.172,0-0.311-0.141-0.311-0.31v-1.909c0-0.17,0.139-0.311,0.311-0.311h1.124
					c0.171,0,0.311,0.141,0.311,0.311v1.909c0,0.169-0.14,0.31-0.311,0.31H87.855z"/>
				<path class="st5" d="M91.141,44.614c-0.169,0-0.31-0.141-0.31-0.31v-1.909c0-0.17,0.141-0.311,0.31-0.311h1.126
					c0.171,0,0.309,0.141,0.309,0.311v1.909c0,0.169-0.138,0.31-0.309,0.31H91.141z"/>
				<path class="st5" d="M78.804,44.614c-0.17,0-0.309-0.141-0.309-0.31v-1.909c0-0.17,0.139-0.311,0.309-0.311h1.127
					c0.169,0,0.309,0.141,0.309,0.311v1.909c0,0.169-0.14,0.31-0.309,0.31H78.804z"/>
				<path class="st5" d="M82.091,44.614c-0.169,0-0.307-0.141-0.307-0.31v-1.909c0-0.17,0.138-0.311,0.307-0.311h1.125
					c0.172,0,0.311,0.141,0.311,0.311v1.909c0,0.169-0.139,0.31-0.311,0.31H82.091z"/>
			</g>
			<g>
				<path class="st5" d="M87.855,38.04c-0.172,0-0.311-0.14-0.311-0.309v-1.91c0-0.17,0.139-0.309,0.311-0.309h1.124
					c0.171,0,0.311,0.139,0.311,0.309v1.91c0,0.169-0.14,0.309-0.311,0.309H87.855z"/>
				<path class="st5" d="M91.141,38.04c-0.169,0-0.31-0.14-0.31-0.309v-1.91c0-0.17,0.141-0.309,0.31-0.309h1.126
					c0.171,0,0.309,0.139,0.309,0.309v1.91c0,0.169-0.138,0.309-0.309,0.309H91.141z"/>
				<path class="st5" d="M78.804,38.04c-0.17,0-0.309-0.14-0.309-0.309v-1.91c0-0.17,0.139-0.309,0.309-0.309h1.127
					c0.169,0,0.309,0.139,0.309,0.309v1.91c0,0.169-0.14,0.309-0.309,0.309H78.804z"/>
				<path class="st5" d="M82.091,38.04c-0.169,0-0.307-0.14-0.307-0.309v-1.91c0-0.17,0.138-0.309,0.307-0.309h1.125
					c0.172,0,0.311,0.139,0.311,0.309v1.91c0,0.169-0.139,0.309-0.311,0.309H82.091z"/>
			</g>
			<g>
				<path class="st5" d="M87.855,31.464c-0.172,0-0.311-0.138-0.311-0.309v-1.909c0-0.172,0.139-0.312,0.311-0.312h1.124
					c0.171,0,0.311,0.14,0.311,0.312v1.909c0,0.171-0.14,0.309-0.311,0.309H87.855z"/>
				<path class="st5" d="M91.141,31.464c-0.169,0-0.31-0.138-0.31-0.309v-1.909c0-0.172,0.141-0.312,0.31-0.312h1.126
					c0.171,0,0.309,0.14,0.309,0.312v1.909c0,0.171-0.138,0.309-0.309,0.309H91.141z"/>
				<path class="st5" d="M78.804,31.464c-0.17,0-0.309-0.138-0.309-0.309v-1.909c0-0.172,0.139-0.312,0.309-0.312h1.127
					c0.169,0,0.309,0.14,0.309,0.312v1.909c0,0.171-0.14,0.309-0.309,0.309H78.804z"/>
				<path class="st5" d="M82.091,31.464c-0.169,0-0.307-0.138-0.307-0.309v-1.909c0-0.172,0.138-0.312,0.307-0.312h1.125
					c0.172,0,0.311,0.14,0.311,0.312v1.909c0,0.171-0.139,0.309-0.311,0.309H82.091z"/>
			</g>
			<g>
				<path class="st39" d="M84.537,60.561c0-0.135,0.109-0.246,0.245-0.246h1.509c0.135,0,0.244,0.111,0.244,0.246v3.201h-1.998
					V60.561z"/>
				<circle class="st96" cx="84.85" cy="62.049" r="0.125"/>
			</g>
		</g>
		<g>
			<path class="st132" d="M82.607,69.913H54.681V17.769c0-1.89,1.531-3.421,3.421-3.421h21.085c1.889,0,3.42,1.531,3.42,3.421
				V69.913z"/>
			<path class="st39" d="M54.681,17.769c0-1.89,1.531-3.421,3.421-3.421h21.085c1.889,0,3.42,1.531,3.42,3.421H54.681z"/>
			<path class="st5" d="M59.605,68.69c-0.229,0-0.415-0.186-0.415-0.415v-2.565c0-0.229,0.187-0.416,0.415-0.416h5.928
				c0.229,0,0.416,0.188,0.416,0.416v2.565c0,0.229-0.187,0.415-0.416,0.415H59.605z"/>
			<path class="st5" d="M71.755,68.69c-0.229,0-0.415-0.186-0.415-0.415v-2.565c0-0.229,0.187-0.416,0.415-0.416h5.929
				c0.229,0,0.416,0.188,0.416,0.416v2.565c0,0.229-0.187,0.415-0.416,0.415H71.755z"/>
			<g>
				<path class="st5" d="M71.755,61.851c-0.229,0-0.415-0.187-0.415-0.415V58.87c0-0.229,0.187-0.416,0.415-0.416h1.513
					c0.229,0,0.415,0.188,0.415,0.416v2.566c0,0.229-0.186,0.415-0.415,0.415H71.755z"/>
				<path class="st5" d="M76.173,61.851c-0.23,0-0.416-0.187-0.416-0.415V58.87c0-0.229,0.186-0.416,0.416-0.416h1.511
					c0.229,0,0.416,0.188,0.416,0.416v2.566c0,0.229-0.187,0.415-0.416,0.415H76.173z"/>
				<path class="st5" d="M59.599,61.851c-0.229,0-0.416-0.187-0.416-0.415V58.87c0-0.229,0.187-0.416,0.416-0.416h1.512
					c0.229,0,0.416,0.188,0.416,0.416v2.566c0,0.229-0.187,0.415-0.416,0.415H59.599z"/>
				<path class="st5" d="M64.015,61.851c-0.229,0-0.416-0.187-0.416-0.415V58.87c0-0.229,0.188-0.416,0.416-0.416h1.511
					c0.23,0,0.417,0.188,0.417,0.416v2.566c0,0.229-0.187,0.415-0.417,0.415H64.015z"/>
			</g>
			<g>
				<path class="st5" d="M71.755,53.018c-0.229,0-0.415-0.186-0.415-0.416v-2.564c0-0.229,0.187-0.416,0.415-0.416h1.513
					c0.229,0,0.415,0.187,0.415,0.416v2.564c0,0.23-0.186,0.416-0.415,0.416H71.755z"/>
				<path class="st5" d="M76.173,53.018c-0.23,0-0.416-0.186-0.416-0.416v-2.564c0-0.229,0.186-0.416,0.416-0.416h1.511
					c0.229,0,0.416,0.187,0.416,0.416v2.564c0,0.23-0.187,0.416-0.416,0.416H76.173z"/>
				<path class="st5" d="M59.599,53.018c-0.229,0-0.416-0.186-0.416-0.416v-2.564c0-0.229,0.187-0.416,0.416-0.416h1.512
					c0.229,0,0.416,0.187,0.416,0.416v2.564c0,0.23-0.187,0.416-0.416,0.416H59.599z"/>
				<path class="st5" d="M64.015,53.018c-0.229,0-0.416-0.186-0.416-0.416v-2.564c0-0.229,0.188-0.416,0.416-0.416h1.511
					c0.23,0,0.417,0.187,0.417,0.416v2.564c0,0.23-0.187,0.416-0.417,0.416H64.015z"/>
			</g>
			<g>
				<path class="st5" d="M71.755,44.185c-0.229,0-0.415-0.187-0.415-0.417v-2.564c0-0.229,0.187-0.416,0.415-0.416h1.513
					c0.229,0,0.415,0.187,0.415,0.416v2.564c0,0.23-0.186,0.417-0.415,0.417H71.755z"/>
				<path class="st5" d="M76.173,44.185c-0.23,0-0.416-0.187-0.416-0.417v-2.564c0-0.229,0.186-0.416,0.416-0.416h1.511
					c0.229,0,0.416,0.187,0.416,0.416v2.564c0,0.23-0.187,0.417-0.416,0.417H76.173z"/>
				<path class="st5" d="M59.599,44.185c-0.229,0-0.416-0.187-0.416-0.417v-2.564c0-0.229,0.187-0.416,0.416-0.416h1.512
					c0.229,0,0.416,0.187,0.416,0.416v2.564c0,0.23-0.187,0.417-0.416,0.417H59.599z"/>
				<path class="st5" d="M64.015,44.185c-0.229,0-0.416-0.187-0.416-0.417v-2.564c0-0.229,0.188-0.416,0.416-0.416h1.511
					c0.23,0,0.417,0.187,0.417,0.416v2.564c0,0.23-0.187,0.417-0.417,0.417H64.015z"/>
			</g>
			<g>
				<path class="st5" d="M71.755,35.352c-0.229,0-0.415-0.188-0.415-0.416V32.37c0-0.229,0.187-0.414,0.415-0.414h1.513
					c0.229,0,0.415,0.186,0.415,0.414v2.566c0,0.229-0.186,0.416-0.415,0.416H71.755z"/>
				<path class="st5" d="M76.173,35.352c-0.23,0-0.416-0.188-0.416-0.416V32.37c0-0.229,0.186-0.414,0.416-0.414h1.511
					c0.229,0,0.416,0.186,0.416,0.414v2.566c0,0.229-0.187,0.416-0.416,0.416H76.173z"/>
				<path class="st5" d="M59.599,35.352c-0.229,0-0.416-0.188-0.416-0.416V32.37c0-0.229,0.187-0.414,0.416-0.414h1.512
					c0.229,0,0.416,0.186,0.416,0.414v2.566c0,0.229-0.187,0.416-0.416,0.416H59.599z"/>
				<path class="st5" d="M64.015,35.352c-0.229,0-0.416-0.188-0.416-0.416V32.37c0-0.229,0.188-0.414,0.416-0.414h1.511
					c0.23,0,0.417,0.186,0.417,0.414v2.566c0,0.229-0.187,0.416-0.417,0.416H64.015z"/>
			</g>
			<g>
				<path class="st5" d="M71.755,26.519c-0.229,0-0.415-0.187-0.415-0.416v-2.565c0-0.229,0.187-0.416,0.415-0.416h1.513
					c0.229,0,0.415,0.187,0.415,0.416v2.565c0,0.229-0.186,0.416-0.415,0.416H71.755z"/>
				<path class="st5" d="M76.173,26.519c-0.23,0-0.416-0.187-0.416-0.416v-2.565c0-0.229,0.186-0.416,0.416-0.416h1.511
					c0.229,0,0.416,0.187,0.416,0.416v2.565c0,0.229-0.187,0.416-0.416,0.416H76.173z"/>
				<path class="st5" d="M59.599,26.519c-0.229,0-0.416-0.187-0.416-0.416v-2.565c0-0.229,0.187-0.416,0.416-0.416h1.512
					c0.229,0,0.416,0.187,0.416,0.416v2.565c0,0.229-0.187,0.416-0.416,0.416H59.599z"/>
				<path class="st5" d="M64.015,26.519c-0.229,0-0.416-0.187-0.416-0.416v-2.565c0-0.229,0.188-0.416,0.416-0.416h1.511
					c0.23,0,0.417,0.187,0.417,0.416v2.565c0,0.229-0.187,0.416-0.417,0.416H64.015z"/>
			</g>
			<g>
				<path class="st39" d="M67.298,65.61c0-0.181,0.148-0.328,0.33-0.328h2.028c0.18,0,0.327,0.147,0.327,0.328v4.303h-2.686V65.61z"
					/>
				<circle class="st96" cx="67.718" cy="67.61" r="0.166"/>
			</g>
		</g>
	</g>
	<g>
		<g>
			<path class="st74" d="M83.893,61.696l-7.638-5.224c0,0-0.971-1.179-4.743-1.462c-5.953-0.445-17.771-3.168-17.771-3.168
				c-7.28,2.162-6.637,8.619-6.637,8.619l19.055,3.646c0,0,8.772-0.682,10.958,0.685c5.312,3.313,7.946-2.154,7.946-2.154
				L83.893,61.696z"/>
			<path class="st79" d="M79.947,58.98l5.094,3.269c0,0-1.148,1.078-2.125,0.935C81.836,63.024,79.558,60.533,79.947,58.98z"/>
			<path class="st30" d="M83.117,63.866l-9.132-2.426l-8.605-1.063l6.112-0.324c0,0,2.506-0.169,4.379,0.828
				C77.319,61.651,83.117,63.866,83.117,63.866z"/>
			<path class="st79" d="M74.597,57.918c-0.164-0.036-0.259-0.199-0.223-0.361l0.338-1.486c0.039-0.164,0.203-0.264,0.361-0.223l0,0
				c0.164,0.038,0.264,0.203,0.225,0.363l-0.338,1.487C74.923,57.862,74.761,57.963,74.597,57.918L74.597,57.918z"/>
			<path class="st79" d="M73.654,56.944c-0.164-0.041-0.262-0.201-0.221-0.365l0.158-0.803c0.036-0.162,0.201-0.26,0.361-0.223l0,0
				c0.165,0.039,0.262,0.204,0.225,0.365l-0.155,0.802C73.98,56.884,73.816,56.982,73.654,56.944L73.654,56.944z"/>
		</g>
		<g>
			<g>
				<g>
					<g>
						<g>
							<g>
								<path class="st74" d="M84.898,97.502c2.217-1.377,8.188-7.399,6.813-9.619l0,0c-1.375-2.215-4.288-2.896-6.504-1.521
									L68.058,96.827c-2.217,1.376-3.313,3.501-1.936,5.715l0,0c1.376,2.218,3.143,2.252,6.137,0.953L84.898,97.502z"/>
								<path class="st30" d="M77.923,91.864l-12.432,8.857c-0.066-2.197,0.93-2.87,2.196-3.655l13.633-8.935
									C81,88.594,78.418,91.523,77.923,91.864z"/>
							</g>
							<path class="st46" d="M64.714,67.934l4.26-3.607l-0.91-7.174l22.675-7.75l21.587,23.021c0,0-5.801,9.125-11.613,14.507
								c-5.812,5.382-16.088,10.735-16.088,10.735L64.714,67.934z"/>
							<g>
								<path class="st46" d="M89.796,84.499c2.215-1.374,2.895-4.285,1.521-6.503l0,0c-1.374-2.218-4.286-2.899-6.503-1.521
									l-24.28,15.062c-2.218,1.375-2.899,4.285-1.523,6.503l0,0c1.374,2.216,4.286,2.897,6.503,1.523L89.796,84.499z"/>
								<path class="st30" d="M69.182,87.35l-10.881,8.291c-0.031-1.86,0.718-3.162,1.985-3.947l9.792-6.314
									C69.758,85.845,69.677,87.014,69.182,87.35z"/>
							</g>
							<g>
								<path class="st46" d="M68.471,75.37c1.903-1.357,8.376-5.002,7.019-6.901l1.258-6.229
									c-1.357-1.901-14.76,7.394-15.831,8.152L36.608,86.993c-2.732,1.954-3.175,4.597-1.815,6.5l0,0
									c1.355,1.901,4,2.342,5.9,0.984L68.471,75.37z"/>
							</g>
							<g>
								<g>
									<path class="st46" d="M84.251,97.157c2.063-0.912,2.691-3.925,1.624-5.656l0,0c-1.064-1.732-3.437-2.202-5.304-1.053
										l-25.849,15.635c-1.864,1.146-2.514,3.48-1.448,5.211l0,0c1.066,1.729,3.361,2.021,4.872,1.227l26.218-15.43"/>
									<path class="st30" d="M78.585,91.749l-12.104,8.082c-1.428,0.848-11.575,6.377-10.507,5.723l26.228-16.328
										C81.927,89.602,79,91.467,78.585,91.749z"/>
								</g>
							</g>
							<g>
								<g>
									<path class="st46" d="M73.205,84.112c2.497-1.219,3.133-4.957,1.74-7.039l0,0c-1.391-2.081-4.337-2.551-6.578-1.051
										L37.263,96.469c-2.244,1.498-2.934,4.4-1.541,6.483l0,0c1.391,2.079,4.23,2.335,6.055,1.284l31.566-20.213"/>
									<path class="st30" d="M65.978,77.715L51.453,88.227c-1.723,1.111-13.957,8.39-12.674,7.533l31.537-21.318
										C69.994,74.918,66.48,77.35,65.978,77.715z"/>
								</g>
							</g>
							<g>
								<g>
									<path class="st46" d="M78.08,90.72c2.358-1.199,2.909-4.771,1.549-6.731l0,0c-1.357-1.959-4.168-2.363-6.281-0.9
										l-29.313,19.95c-2.115,1.459-2.729,4.236-1.371,6.198l0,0c1.357,1.961,4.064,2.158,5.788,1.129l29.757-19.73"/>
									<path class="st30" d="M71.097,84.739L57.421,94.971c-1.621,1.084-13.164,8.201-11.955,7.367L75.18,81.552
										C74.88,82.012,71.57,84.383,71.097,84.739z"/>
								</g>
							</g>
						</g>
					</g>
				</g>
			</g>
		</g>
		<g>
			<g>
				<g>
					<g>
						<g>
							<g>
								<path class="st74" d="M52.552,97.502c-2.217-1.377-8.188-7.399-6.813-9.619l0,0c1.375-2.215,4.287-2.896,6.504-1.521
									l17.148,10.465c2.216,1.376,3.313,3.501,1.936,5.715l0,0c-1.376,2.218-3.144,2.252-6.137,0.953L52.552,97.502z"/>
								<path class="st30" d="M59.527,91.864l12.431,8.857c0.066-2.197-0.93-2.87-2.195-3.655l-13.634-8.935
									C56.449,88.594,59.031,91.523,59.527,91.864z"/>
							</g>
							<path class="st74" d="M72.735,67.934l-4.259-3.607l0.91-7.174l-22.675-7.75L25.125,72.424c0,0,5.801,9.125,11.613,14.507
								c5.812,5.382,16.088,10.735,16.088,10.735L72.735,67.934z"/>
							<g>
								<path class="st74" d="M47.654,84.499c-2.215-1.374-2.895-4.285-1.521-6.503l0,0c1.374-2.218,4.286-2.899,6.503-1.521
									l24.279,15.062c2.219,1.375,2.9,4.285,1.524,6.503l0,0c-1.374,2.216-4.287,2.897-6.503,1.523L47.654,84.499z"/>
								<path class="st30" d="M68.267,87.35l10.882,8.291c0.031-1.86-0.718-3.162-1.985-3.947l-9.792-6.314
									C67.692,85.845,67.773,87.014,68.267,87.35z"/>
							</g>
							<g>
								<path class="st74" d="M68.978,75.37c-1.902-1.357-8.376-5.002-7.018-6.901l-1.258-6.229
									c1.357-1.901,14.758,7.394,15.831,8.152l24.309,16.602c2.731,1.954,3.175,4.597,1.815,6.5l0,0
									c-1.356,1.901-4.001,2.342-5.9,0.984L68.978,75.37z"/>
								<path class="st79" d="M96.466,92.526l1.7,1.209c1.204,0.857,2.931,0.506,3.854-0.787c0.925-1.292,0.696-3.036-0.51-3.893
									l-1.697-1.209c0,0-0.885,0.369-1.98,1.937C96.472,91.725,96.603,91.899,96.466,92.526z"/>
								<g>
									<path class="st79" d="M83.483,83.719c-0.138-0.099-0.168-0.289-0.071-0.426l3.094-4.332c0.1-0.139,0.287-0.174,0.427-0.072
										l0,0c0.136,0.096,0.169,0.289,0.07,0.427l-3.091,4.334C83.812,83.786,83.621,83.817,83.483,83.719L83.483,83.719z"/>
									<path class="st79" d="M83.056,81.716c-0.121-0.085-0.152-0.253-0.063-0.374l1.528-2.145
										c0.087-0.121,0.257-0.15,0.376-0.063l0,0c0.126,0.089,0.149,0.258,0.063,0.378l-1.525,2.143
										C83.346,81.776,83.177,81.806,83.056,81.716L83.056,81.716z"/>
								</g>
							</g>
							<g>
								<g>
									<path class="st74" d="M53.199,97.157c-2.063-0.912-2.691-3.925-1.625-5.656l0,0c1.064-1.732,3.438-2.202,5.305-1.053
										l25.848,15.635c1.865,1.146,2.514,3.48,1.449,5.211l0,0c-1.066,1.729-3.361,2.021-4.873,1.227L53.085,97.09"/>
									<path class="st30" d="M58.865,91.749l12.104,8.082c1.428,0.848,11.575,6.377,10.507,5.723L55.248,89.225
										C55.523,89.602,58.449,91.467,58.865,91.749z"/>
								</g>
								<path class="st79" d="M78.606,110.893l1.547,0.947c1.098,0.672,2.571,0.264,3.299-0.91c0.726-1.176,0.425-2.674-0.673-3.348
									l-1.545-0.945c0,0-0.744,0.372-1.602,1.793C78.566,110.198,78.689,110.337,78.606,110.893z"/>
								<g>
									<path class="st79" d="M67.399,104.542c-0.126-0.077-0.162-0.241-0.081-0.366l2.486-3.903
										c0.078-0.123,0.244-0.16,0.367-0.082l0,0c0.123,0.08,0.158,0.245,0.08,0.366l-2.489,3.903
										C67.683,104.586,67.521,104.623,67.399,104.542L67.399,104.542z"/>
									<path class="st79" d="M66.937,102.823c-0.111-0.069-0.144-0.211-0.073-0.324l1.229-1.928
										c0.07-0.11,0.215-0.143,0.324-0.073l0,0c0.112,0.071,0.141,0.214,0.072,0.324l-1.229,1.93
										C67.193,102.86,67.045,102.895,66.937,102.823L66.937,102.823z"/>
								</g>
							</g>
							<g>
								<g>
									<path class="st74" d="M64.245,84.112c-2.497-1.219-3.133-4.957-1.739-7.039l0,0c1.391-2.081,4.336-2.551,6.578-1.051
										l31.104,20.447c2.243,1.498,2.934,4.4,1.541,6.483l0,0c-1.391,2.079-4.23,2.335-6.055,1.284L64.107,84.024"/>
									<path class="st30" d="M71.472,77.715l14.525,10.512c1.723,1.111,13.957,8.39,12.674,7.533L67.134,74.442
										C67.457,74.918,70.97,77.35,71.472,77.715z"/>
								</g>
								<path class="st79" d="M94.892,102.202l1.859,1.236c1.319,0.879,3.155,0.445,4.104-0.967c0.947-1.414,0.646-3.272-0.676-4.15
									l-1.854-1.238c0,0-0.934,0.422-2.058,2.135C94.872,101.344,95.019,101.521,94.892,102.202z"/>
								<g>
									<path class="st79" d="M81.387,93.864c-0.153-0.104-0.188-0.307-0.087-0.457l3.244-4.689
										c0.103-0.15,0.307-0.188,0.456-0.084l0,0c0.149,0.105,0.187,0.309,0.083,0.455l-3.244,4.691
										C81.735,93.928,81.535,93.967,81.387,93.864L81.387,93.864z"/>
									<path class="st79" d="M80.896,91.725c-0.132-0.092-0.165-0.269-0.072-0.403l1.6-2.318c0.093-0.131,0.275-0.164,0.402-0.075
										l0,0c0.135,0.094,0.163,0.272,0.076,0.405l-1.604,2.319C81.208,91.784,81.025,91.816,80.896,91.725L80.896,91.725z"/>
								</g>
							</g>
							<g>
								<g>
									<path class="st74" d="M59.37,90.72c-2.357-1.199-2.908-4.771-1.549-6.731l0,0c1.357-1.959,4.169-2.363,6.282-0.9
										l29.313,19.95c2.115,1.459,2.729,4.236,1.371,6.198l0,0c-1.357,1.961-4.064,2.158-5.788,1.129l-29.758-19.73"/>
									<path class="st30" d="M66.353,84.739l13.675,10.232c1.622,1.084,13.165,8.201,11.956,7.367L62.27,81.552
										C62.569,82.012,65.88,84.383,66.353,84.739z"/>
								</g>
								<path class="st79" d="M88.287,108.417l1.752,1.207c1.242,0.857,2.997,0.471,3.922-0.857
									c0.924-1.334,0.666-3.109-0.578-3.965l-1.75-1.21c0,0-0.895,0.39-1.99,2.004C88.281,107.599,88.417,107.77,88.287,108.417z"
									/>
								<g>
									<path class="st79" d="M75.55,100.268c-0.143-0.099-0.176-0.294-0.076-0.436l3.162-4.418c0.1-0.142,0.294-0.172,0.434-0.07
										l0,0c0.141,0.1,0.175,0.295,0.072,0.434l-3.16,4.418C75.88,100.337,75.687,100.371,75.55,100.268L75.55,100.268z"/>
									<path class="st79" d="M75.115,98.223c-0.124-0.087-0.154-0.258-0.063-0.383l1.561-2.183
										c0.089-0.124,0.263-0.153,0.384-0.066l0,0c0.126,0.091,0.15,0.262,0.065,0.387L75.5,98.161
										C75.411,98.286,75.238,98.315,75.115,98.223L75.115,98.223z"/>
								</g>
							</g>
						</g>
					</g>
				</g>
				<g>
					<path class="st50" d="M71.538,74.579c-1.052-0.322-1.683-1.319-1.433-2.41c0.15-0.662-0.86-0.987-1.014-0.318
						c-0.377,1.648,0.494,3.243,2.13,3.74C71.875,75.79,72.193,74.778,71.538,74.579L71.538,74.579z"/>
				</g>
				<g>
					<path class="st50" d="M66.679,83.473c-1.748-0.719-2.536-2.468-1.946-4.258c0.215-0.65-0.825-0.856-1.037-0.214
						c-0.729,2.212,0.362,4.54,2.513,5.42C66.835,84.679,67.315,83.731,66.679,83.473L66.679,83.473z"/>
				</g>
				<g>
					<path class="st50" d="M60.832,89.502c-1.244-0.49-1.896-1.768-1.49-3.059c0.203-0.646-0.78-1.041-0.986-0.387
						c-0.58,1.836,0.279,3.723,2.088,4.432C61.08,90.74,61.47,89.751,60.832,89.502L60.832,89.502z"/>
				</g>
				<g>
					<path class="st50" d="M54.636,96.219c-0.908-0.389-1.434-1.336-1.094-2.306c0.223-0.636-0.725-1.118-0.95-0.474
						c-0.521,1.492,0.079,3.092,1.569,3.73C54.788,97.44,55.266,96.492,54.636,96.219L54.636,96.219z"/>
				</g>
			</g>
			<path class="st29" d="M30.84,79.499L9.972,63.258c-1.939-1.512-1.645-5.129,0.658-8.087l14.469-18.594
				c2.301-2.958,5.738-4.132,7.677-2.622l20.87,16.242C55.586,51.706,32.781,81.008,30.84,79.499z"/>
		</g>
		<g>
			<path class="st46" d="M53.557,61.696l7.638-5.224c0,0,0.971-1.179,4.742-1.462c5.954-0.445,17.771-3.168,17.771-3.168
				c7.28,2.162,6.638,8.619,6.638,8.619l-19.055,3.646c0,0-8.773-0.682-10.958,0.685c-5.312,3.313-7.946-2.154-7.946-2.154
				L53.557,61.696z"/>
			<path class="st79" d="M57.503,58.98l-5.094,3.269c0,0,1.148,1.078,2.124,0.935C55.613,63.024,57.892,60.533,57.503,58.98z"/>
			<path class="st30" d="M54.333,63.866l9.132-2.426l8.604-1.063l-6.112-0.324c0,0-2.505-0.169-4.378,0.828
				C60.13,61.651,54.333,63.866,54.333,63.866z"/>
			<path class="st79" d="M62.853,57.918c0.163-0.036,0.259-0.199,0.223-0.361l-0.338-1.486c-0.039-0.164-0.204-0.264-0.362-0.223
				l0,0c-0.164,0.038-0.263,0.203-0.225,0.363l0.339,1.487C62.527,57.862,62.689,57.963,62.853,57.918L62.853,57.918z"/>
			<path class="st79" d="M63.796,56.944c0.164-0.041,0.262-0.201,0.221-0.365l-0.158-0.803c-0.036-0.162-0.201-0.26-0.362-0.223l0,0
				c-0.164,0.039-0.261,0.204-0.224,0.365l0.155,0.802C63.47,56.884,63.633,56.982,63.796,56.944L63.796,56.944z"/>
		</g>
		<path class="st29" d="M108.546,79.499l20.868-16.24c1.939-1.512,1.645-5.129-0.657-8.087l-14.469-18.594
			c-2.302-2.958-5.738-4.132-7.678-2.622L85.742,50.198C83.801,51.706,106.607,81.008,108.546,79.499z"/>
		<g>
			<path class="st34" d="M51.611,47.008L23.716,23.554C13.797,33.437,7.148,46.59,5.498,61.257l21.17,17.801
				C28.775,80.698,53.72,48.645,51.611,47.008z"/>
			<g>
				<g>
					<g>
						<path class="st106" d="M111.45,78.391l19.923-16.844c-1.586-14.707-8.201-27.905-18.098-37.836l-26.771,22.63
							C84.397,47.978,109.342,80.031,111.45,78.391z"/>
					</g>
				</g>
			</g>
		</g>
	</g>
</g>
</svg>
