<?xml version="1.0" encoding="utf-8"?>
<!-- Generator: Adobe Illustrator 16.0.0, SVG Export Plug-In . SVG Version: 6.00 Build 0)  -->
<!DOCTYPE svg PUBLIC "-//W3C//DTD SVG 1.1//EN" "http://www.w3.org/Graphics/SVG/1.1/DTD/svg11.dtd">
<svg version="1.1" id="Layer_1" xmlns="http://www.w3.org/2000/svg" xmlns:xlink="http://www.w3.org/1999/xlink" x="0px" y="0px"
	 width="136.833px" height="136.834px" viewBox="0 0 136.833 136.834" style="enable-background:new 0 0 136.833 136.834;"
	 xml:space="preserve">
<style type="text/css">
<![CDATA[
	.st0{fill-rule:evenodd;clip-rule:evenodd;fill:#08090B;}
	.st1{fill:#7BCCC7;}
	.st2{fill:#48584B;}
	.st3{fill:#AC782B;}
	.st4{fill:#49A0AE;}
	.st5{fill:#121212;}
	.st6{fill:#E1E1E1;}
	.st7{fill:#E3E2E2;}
	.st8{fill:none;stroke:#202121;stroke-width:0.5;stroke-miterlimit:10;}
	.st9{fill:#E4E4E4;}
	.st10{fill:#4ABC96;}
	.st11{fill:#E5E5E5;}
	.st12{fill:#4B4A4B;}
	.st13{fill:#E84849;stroke:#FFFFFF;stroke-width:3;}
	.st14{fill:none;stroke:#121212;stroke-miterlimit:10;}
	.st15{fill:#E79E2D;}
	.st16{fill:#E7E7E7;}
	.st17{fill:#4D4D4D;}
	.st18{fill:#4D8A97;}
	.st19{fill:#E84849;}
	.st20{fill:#807F7F;}
	.st21{fill:#B03738;}
	.st22{fill:#818282;}
	.st23{fill:#81C681;}
	.st24{opacity:0.5;fill:#202121;}
	.st25{fill:#B2B2B2;}
	.st26{fill:#B2D0CC;}
	.st27{fill:#83CECA;}
	.st28{fill:#1A1919;}
	.st29{fill:#B5DBAF;}
	.st30{fill:#EB9682;}
	.st31{fill:#EBEDEF;}
	.st32{fill:#B8B9BA;}
	.st33{fill:#ECA448;}
	.st34{fill:#1E261F;}
	.st35{fill:#ECECEC;}
	.st36{fill:#EDBF00;}
	.st37{fill:#EDC92C;}
	.st38{fill:#EDEEEF;}
	.st39{fill:#505251;}
	.st40{fill:#EFC849;}
	.st41{opacity:0.15;fill:#626463;}
	.st42{opacity:0.3;fill:url(#SVGID_16_);}
	.st43{opacity:0.3;fill:url(#SVGID_17_);}
	.st44{opacity:0.3;fill:url(#SVGID_27_);}
	.st45{opacity:0.3;fill:url(#SVGID_28_);}
	.st46{opacity:0.3;fill:url(#SVGID_33_);}
	.st47{opacity:0.3;fill:url(#SVGID_34_);}
	.st48{opacity:0.3;fill:url(#SVGID_37_);}
	.st49{opacity:0.3;fill:url(#SVGID_38_);}
	.st50{fill:none;stroke:#B8B9BA;stroke-width:0.5;stroke-miterlimit:10;}
	.st51{fill:#202121;}
	.st52{fill:#232C25;}
	.st53{fill:#F28400;}
	.st54{fill:#256533;}
	.st55{fill:#F3F4F5;}
	.st56{fill:#263A45;}
	.st57{fill:#265E67;}
	.st58{fill:#F5E554;}
	.st59{fill:#F6A2A3;}
	.st60{fill:#28302A;}
	.st61{fill:#5CA39B;}
	.st62{fill:#5E7564;}
	.st63{fill-rule:evenodd;clip-rule:evenodd;fill:#EDC92C;}
	.st64{opacity:0.2;fill:#FFFFFF;}
	.st65{fill:url(#SVGID_1_);}
	.st66{fill:url(#SVGID_2_);}
	.st67{fill:url(#SVGID_3_);}
	.st68{fill:url(#SVGID_4_);}
	.st69{fill:url(#SVGID_5_);}
	.st70{fill:url(#SVGID_6_);}
	.st71{fill:url(#SVGID_7_);}
	.st72{fill:#C2DFDD;}
	.st73{fill:#C5E2E5;}
	.st74{fill:#98979B;}
	.st75{fill:#989897;}
	.st76{fill:#989A9A;}
	.st77{fill:#C9C9C8;}
	.st78{fill:#2F3A32;}
	.st79{fill:#2F8442;}
	.st80{opacity:0.7;}
	.st81{fill:#60C3B6;}
	.st82{fill:#FFFFFF;}
	.st83{fill:#626463;}
	.st84{fill:#636463;}
	.st85{fill-rule:evenodd;clip-rule:evenodd;fill:#F37C2A;}
	.st86{fill:none;}
	.st87{fill:#676767;}
	.st88{fill:#676969;}
	.st89{fill:#67B4AD;}
	.st90{fill:#67B8CB;}
	.st91{fill:#CBCBC9;}
	.st92{fill:#CCCBCF;}
	.st93{fill:#CCE9E9;}
	.st94{fill:#CDCCCB;}
	.st95{fill:#CDE9E6;}
	.st96{fill:#30302F;}
	.st97{fill-rule:evenodd;clip-rule:evenodd;fill:#F9C645;}
	.st98{opacity:0.7;fill:#FFFFFF;}
	.st99{fill:#343433;}
	.st100{fill:#343434;}
	.st101{fill:#344E5D;}
	.st102{fill:#357180;}
	.st103{opacity:0.25;fill:#DFF1F5;}
	.st104{fill:#6CC077;}
	.st105{fill:#6EBCB5;}
	.st106{fill:none;stroke:#67B8CB;stroke-width:0.5;stroke-miterlimit:10;}
	.st107{fill:#D2D2D2;}
	.st108{fill:#D3D4E3;}
	.st109{fill:#D4A160;}
	.st110{fill:#08090B;}
	.st111{fill:#3CB881;}
	.st112{fill:#D7DABA;}
	.st113{fill:#3D4040;}
	.st114{fill:url(#SVGID_10_);}
	.st115{fill:url(#SVGID_11_);}
	.st116{fill:url(#SVGID_12_);}
	.st117{fill:url(#SVGID_13_);}
	.st118{fill:url(#SVGID_22_);}
	.st119{fill:url(#SVGID_23_);}
	.st120{fill:url(#SVGID_24_);}
	.st121{fill:url(#SVGID_29_);}
	.st122{fill:url(#SVGID_30_);}
	.st123{fill:url(#SVGID_41_);}
	.st124{opacity:0.1;fill:#FFFFFF;}
	.st125{fill:#A07238;}
	.st126{fill:#717171;}
	.st127{clip-path:url(#SVGID_15_);}
	.st128{clip-path:url(#SVGID_19_);}
	.st129{clip-path:url(#SVGID_21_);}
	.st130{clip-path:url(#SVGID_26_);}
	.st131{clip-path:url(#SVGID_32_);}
	.st132{clip-path:url(#SVGID_36_);}
	.st133{clip-path:url(#SVGID_40_);}
	.st134{fill:#A4A5A4;}
	.st135{fill:#767676;}
	.st136{fill:#767879;}
	.st137{fill:#DBF0F5;}
	.st138{fill:#DC494A;}
	.st139{fill:#DCDBDC;}
	.st140{fill:#0EA24A;}
	.st141{fill:#404040;}
	.st142{fill:#DFDFDF;}
	.st143{fill:#447A74;}
]]>
</style>
<g>
	<g>
		<g>
			<g>
				<circle class="st102" cx="68.417" cy="68.417" r="63.333"/>
			</g>
		</g>
	</g>
	<g>
		<g>
			<g>
				<path class="st55" d="M102.202,107.337c0,3.525-1.981,5.506-5.507,5.506H40.138c-3.526,0-5.507-1.98-5.507-5.506v-77.84
					c0-3.525,1.981-5.508,5.507-5.508h56.557c3.526,0,5.507,1.982,5.507,5.508V107.337z"/>
				<circle class="st126" cx="68.505" cy="27.792" r="0.585"/>
				<linearGradient id="SVGID_1_" gradientUnits="userSpaceOnUse" x1="35.6553" y1="101.0679" x2="101.1787" y2="35.5444">
					<stop  offset="0" style="stop-color:#5C6EB3"/>
					<stop  offset="0.7333" style="stop-color:#3E4280"/>
					<stop  offset="1" style="stop-color:#3E4280"/>
				</linearGradient>
				<rect x="39.75" y="31.448" class="st65" width="57.332" height="73.715"/>
				<rect x="39.75" y="95.511" class="st103" width="57.332" height="9.652"/>
				<path class="st104" d="M53.409,45.972c0,0.764-0.619,1.383-1.383,1.383H47.99c-0.765,0-1.384-0.619-1.384-1.383v-4.037
					c0-0.764,0.619-1.383,1.384-1.383h4.036c0.764,0,1.383,0.619,1.383,1.383V45.972z"/>
				<path class="st58" d="M65.629,45.972c0,0.764-0.619,1.383-1.383,1.383h-4.036c-0.765,0-1.384-0.619-1.384-1.383v-4.037
					c0-0.764,0.62-1.383,1.384-1.383h4.036c0.764,0,1.383,0.619,1.383,1.383V45.972z"/>
				<path class="st29" d="M77.851,45.972c0,0.764-0.62,1.383-1.384,1.383h-4.035c-0.764,0-1.384-0.619-1.384-1.383v-4.037
					c0-0.764,0.62-1.383,1.384-1.383h4.035c0.765,0,1.384,0.619,1.384,1.383V45.972z"/>
				<path class="st59" d="M90.072,45.972c0,0.764-0.62,1.383-1.383,1.383h-4.035c-0.765,0-1.384-0.619-1.384-1.383v-4.037
					c0-0.764,0.62-1.383,1.384-1.383h4.035c0.764,0,1.383,0.619,1.383,1.383V45.972z"/>
				<path class="st104" d="M53.409,102.136c0,0.762-0.619,1.383-1.383,1.383H47.99c-0.765,0-1.384-0.621-1.384-1.383v-4.037
					c0-0.764,0.619-1.383,1.384-1.383h4.036c0.764,0,1.383,0.619,1.383,1.383V102.136z"/>
				<path class="st58" d="M65.629,102.136c0,0.762-0.619,1.383-1.383,1.383h-4.036c-0.765,0-1.384-0.621-1.384-1.383v-4.037
					c0-0.764,0.62-1.383,1.384-1.383h4.036c0.764,0,1.383,0.619,1.383,1.383V102.136z"/>
				<path class="st29" d="M77.851,102.136c0,0.762-0.62,1.383-1.384,1.383h-4.035c-0.764,0-1.384-0.621-1.384-1.383v-4.037
					c0-0.764,0.62-1.383,1.384-1.383h4.035c0.765,0,1.384,0.619,1.384,1.383V102.136z"/>
				<path class="st59" d="M90.072,102.136c0,0.762-0.62,1.383-1.383,1.383h-4.035c-0.765,0-1.384-0.621-1.384-1.383v-4.037
					c0-0.764,0.62-1.383,1.384-1.383h4.035c0.764,0,1.383,0.619,1.383,1.383V102.136z"/>
				<path class="st29" d="M53.409,58.259c0,0.764-0.619,1.383-1.383,1.383H47.99c-0.765,0-1.384-0.619-1.384-1.383v-4.037
					c0-0.764,0.619-1.383,1.384-1.383h4.036c0.764,0,1.383,0.619,1.383,1.383V58.259z"/>
				<path class="st59" d="M65.629,58.259c0,0.764-0.619,1.383-1.383,1.383h-4.036c-0.765,0-1.384-0.619-1.384-1.383v-4.037
					c0-0.764,0.62-1.383,1.384-1.383h4.036c0.764,0,1.383,0.619,1.383,1.383V58.259z"/>
				<path class="st90" d="M77.851,58.259c0,0.764-0.62,1.383-1.384,1.383h-4.035c-0.764,0-1.384-0.619-1.384-1.383v-4.037
					c0-0.764,0.62-1.383,1.384-1.383h4.035c0.765,0,1.384,0.619,1.384,1.383V58.259z"/>
				<path class="st58" d="M90.072,58.259c0,0.764-0.62,1.383-1.383,1.383h-4.035c-0.765,0-1.384-0.619-1.384-1.383v-4.037
					c0-0.764,0.62-1.383,1.384-1.383h4.035c0.764,0,1.383,0.619,1.383,1.383V58.259z"/>
				<path class="st90" d="M53.409,70.544c0,0.762-0.619,1.383-1.383,1.383H47.99c-0.765,0-1.384-0.621-1.384-1.383v-4.037
					c0-0.764,0.619-1.383,1.384-1.383h4.036c0.764,0,1.383,0.619,1.383,1.383V70.544z"/>
				<path class="st58" d="M65.629,70.544c0,0.762-0.619,1.383-1.383,1.383h-4.036c-0.765,0-1.384-0.621-1.384-1.383v-4.037
					c0-0.764,0.62-1.383,1.384-1.383h4.036c0.764,0,1.383,0.619,1.383,1.383V70.544z"/>
				<path class="st104" d="M77.851,70.544c0,0.762-0.62,1.383-1.384,1.383h-4.035c-0.764,0-1.384-0.621-1.384-1.383v-4.037
					c0-0.764,0.62-1.383,1.384-1.383h4.035c0.765,0,1.384,0.619,1.384,1.383V70.544z"/>
				<path class="st29" d="M90.072,70.544c0,0.762-0.62,1.383-1.383,1.383h-4.035c-0.765,0-1.384-0.621-1.384-1.383v-4.037
					c0-0.764,0.62-1.383,1.384-1.383h4.035c0.764,0,1.383,0.619,1.383,1.383V70.544z"/>
				<path class="st59" d="M53.409,82.829c0,0.764-0.619,1.383-1.383,1.383H47.99c-0.765,0-1.384-0.619-1.384-1.383v-4.037
					c0-0.764,0.619-1.383,1.384-1.383h4.036c0.764,0,1.383,0.619,1.383,1.383V82.829z"/>
				<path class="st29" d="M65.629,82.829c0,0.764-0.619,1.383-1.383,1.383h-4.036c-0.765,0-1.384-0.619-1.384-1.383v-4.037
					c0-0.764,0.62-1.383,1.384-1.383h4.036c0.764,0,1.383,0.619,1.383,1.383V82.829z"/>
				<path class="st58" d="M77.851,82.829c0,0.764-0.62,1.383-1.384,1.383h-4.035c-0.764,0-1.384-0.619-1.384-1.383v-4.037
					c0-0.764,0.62-1.383,1.384-1.383h4.035c0.765,0,1.384,0.619,1.384,1.383V82.829z"/>
				<path class="st90" d="M90.072,82.829c0,0.764-0.62,1.383-1.383,1.383h-4.035c-0.765,0-1.384-0.619-1.384-1.383v-4.037
					c0-0.764,0.62-1.383,1.384-1.383h4.035c0.764,0,1.383,0.619,1.383,1.383V82.829z"/>
				<rect x="39.8" y="31.552" class="st24" width="57.096" height="3.584"/>
				<circle class="st82" cx="90.794" cy="33.233" r="0.914"/>
				<circle class="st82" cx="41.994" cy="33.233" r="0.914"/>
				<circle class="st82" cx="94.963" cy="33.233" r="0.914"/>
			</g>
			<g>
				<circle class="st9" cx="68.505" cy="109.069" r="2.047"/>
				<path class="st50" d="M69.157,109.37c0,0.193-0.157,0.352-0.351,0.352h-0.604c-0.193,0-0.35-0.158-0.35-0.352v-0.602
					c0-0.195,0.157-0.354,0.35-0.354h0.604c0.193,0,0.351,0.158,0.351,0.354V109.37z"/>
			</g>
		</g>
	</g>
</g>
</svg>
