<?xml version="1.0" encoding="utf-8"?>
<!-- Generator: Adobe Illustrator 19.1.0, SVG Export Plug-In . SVG Version: 6.00 Build 0)  -->
<svg version="1.0" xmlns="http://www.w3.org/2000/svg" xmlns:xlink="http://www.w3.org/1999/xlink" x="0px" y="0px"
	 viewBox="0 0 200 200" style="enable-background:new 0 0 200 200;" xml:space="preserve">
<style type="text/css">
	.st0{fill:#C69C6D;}
	.st1{opacity:0.1;}
	.st2{fill:#222120;}
	.st3{fill:#F8EC7F;}
	.st4{opacity:0.1;fill:#010202;}
	.st5{fill:#C67BB2;}
	.st6{fill:none;stroke:#A67D52;}
	.st7{fill:#FFFFFF;}
	.st8{opacity:0.3;fill:#010202;}
</style>
<g id="award">
	<g>
		<path class="st0" d="M191,98.8c0,50.3-40.7,91-91,91h0c-50.3,0-91-40.7-91-91v0c0-50.3,40.7-91,91-91h0
			C150.3,7.8,191,48.6,191,98.8L191,98.8z"/>
	</g>
	<g class="st1">
		<path class="st2" d="M163.8,33.9L163.8,33.9c35.8,35.3,36.3,92.9,1,128.7l0,0c-35.3,35.8-92.9,36.3-128.7,1l0,0"/>
	</g>
	<circle class="st3" cx="100" cy="96.8" r="55"/>
	<circle class="st0" cx="100" cy="96.8" r="42.5"/>
	<circle class="st4" cx="100" cy="96.8" r="42.5"/>
	<polygon class="st3" points="100.1,54.4 112.5,79.6 140.3,83.6 120.2,103.2 124.9,130.8 100.1,117.8 75.3,130.8 80.1,103.2 
		60,83.6 87.7,79.6 	"/>
</g>
<g id="Layer_3">
	<g>
		<path class="st5" d="M191,98.8c0,50.3-40.7,91-91,91h0c-50.3,0-91-40.7-91-91v0c0-50.3,40.7-91,91-91h0
			C150.3,7.8,191,48.6,191,98.8L191,98.8z"/>
	</g>
	<g class="st1">
		<path class="st2" d="M163.8,33.9L163.8,33.9c35.8,35.3,36.3,92.9,1,128.7l0,0c-35.3,35.8-92.9,36.3-128.7,1l0,0"/>
	</g>
	<path class="st6" d="M145.2,197.1"/>
	<path class="st6" d="M68.2,119"/>
	<path class="st7" d="M143,141.5c0,7.5-19.5,13.5-43.5,13.5c-24,0-43.5-6.1-43.5-13.5"/>
	<path class="st7" d="M143,142H56l-9.5-87.1c0-9.1,23.7-16.5,53-16.5s53,7.5,53,16.6L143,142z"/>
	<path class="st5" d="M146.3,54.8c0,8-20.9,14.6-46.8,14.6c-25.8,0-46.8-6.5-46.8-14.6s20.9-13.6,46.8-13.6
		C125.3,41.3,146.3,46.8,146.3,54.8z"/>
	<path class="st5" d="M46.5,53.6C44,79.2,62,92.3,88.4,98.5c28.7,6.8,59.4-0.4,66-28.5c1.4-5.9,1.1-12.3-2.1-17l-2.7,2.3
		c2.2,4.3,2.1,9.8,0.9,14.8c-5.7,24.3-33.7,32.1-61.3,25.6C66,90.2,48.4,74.5,49.6,55.5L46.5,53.6z"/>
	<path class="st8" d="M46.5,53.6C44,79.2,62,92.3,88.4,98.5c28.7,6.8,59.4-0.4,66-28.5c1.4-5.9,1.1-12.3-2.1-17l-2.7,2.3
		c2.2,4.3,2.1,9.8,0.9,14.8c-5.7,24.3-33.7,32.1-61.3,25.6C66,90.2,48.4,74.5,49.6,55.5L46.5,53.6z"/>
	<path class="st5" d="M120.8,94.7c0,0,4.4-0.6,9.9-3.2c5-2.3,7.5-4.9,7.5-4.9s1.7,0.5,2.9,2.7c1.2,2.1,0.4,3.3,0.4,3.3
		s-2.8,3.7-7.9,5.7c-7.1,2.7-10.4,2.7-10.4,2.7s0.4-1.7-0.3-3.3C122,95.6,120.8,94.7,120.8,94.7z"/>
</g>
<g id="Layer_2">
</g>
</svg>
