<?xml version="1.0" encoding="UTF-8" standalone="no"?>
<svg
   xmlns:dc="http://purl.org/dc/elements/1.1/"
   xmlns:cc="http://creativecommons.org/ns#"
   xmlns:rdf="http://www.w3.org/1999/02/22-rdf-syntax-ns#"
   xmlns:svg="http://www.w3.org/2000/svg"
   xmlns="http://www.w3.org/2000/svg"
   xmlns:sodipodi="http://sodipodi.sourceforge.net/DTD/sodipodi-0.dtd"
   xmlns:inkscape="http://www.inkscape.org/namespaces/inkscape"
   version="1.1"
   x="0px"
   y="0px"
   viewBox="0 0 16 16"
   enable-background="new 0 0 1133.86 1133.86"
   xml:space="preserve"
   id="svg2"
   inkscape:version="0.48.4 r9939"
   width="100%"
   height="100%"
   sodipodi:docname="info.svg"><metadata
     id="metadata10"><rdf:RDF><cc:Work
         rdf:about=""><dc:format>image/svg+xml</dc:format><dc:type
           rdf:resource="http://purl.org/dc/dcmitype/StillImage" /></cc:Work></rdf:RDF></metadata><defs
     id="defs8" /><sodipodi:namedview
     pagecolor="#ffffff"
     bordercolor="#666666"
     borderopacity="1"
     objecttolerance="10"
     gridtolerance="10"
     guidetolerance="10"
     inkscape:pageopacity="0"
     inkscape:pageshadow="2"
     inkscape:window-width="640"
     inkscape:window-height="480"
     id="namedview6"
     showgrid="false"
     fit-margin-top="0"
     fit-margin-left="0"
     fit-margin-right="0"
     fit-margin-bottom="0"
     inkscape:zoom="1.6651086"
     inkscape:cx="83.130914"
     inkscape:cy="-51.08308"
     inkscape:window-x="0"
     inkscape:window-y="55"
     inkscape:window-maximized="0"
     inkscape:current-layer="svg2" /><path
     d="M 7.8072939,0.38541355 C 3.4954416,0.38541355 0,3.880855 0,8.1927073 0,12.50456 3.4954416,16.000001 7.8072939,16.000001 c 4.3118521,0 7.8072931,-3.495441 7.8072931,-7.8072937 0,-4.3118523 -3.495441,-7.80729375 -7.8072931,-7.80729375 z M 7.6449592,3.1939073 c 0.5475968,0 1.0108728,0.4491746 1.0108728,1.0105979 0,0.5614236 -0.463276,1.0105981 -1.0108728,1.0105981 -0.5471425,0 -1.0103226,-0.4491886 -1.0103226,-1.0105981 0,-0.5614096 0.4631801,-1.0105979 1.0103226,-1.0105979 z M 9.9048507,12.668217 H 5.7923639 V 11.74187 h 0.6454414 c 0.3931947,0 0.5616989,-0.154402 0.5616989,-0.561478 V 7.5872301 C 6.9995042,7.1802086 6.831,7.0258062 6.4378053,7.0258062 H 5.7923639 V 6.0992951 h 2.8634543 v 5.0810829 c 0,0.40709 0.1685044,0.561478 0.5612587,0.561478 h 0.68776 v 0.926361 z"
     id="path4"
     inkscape:connector-curvature="0"
     style="fill:#ffffff" /></svg>