<?xml version="1.0" encoding="utf-8"?>
<!-- Generator: Adobe Illustrator 19.2.1, SVG Export Plug-In . SVG Version: 6.00 Build 0)  -->
<svg version="1.1" id="Layer_1" xmlns="http://www.w3.org/2000/svg" xmlns:xlink="http://www.w3.org/1999/xlink" x="0px" y="0px"
	 viewBox="0 0 374.8 123.7" style="enable-background:new 0 0 374.8 123.7;" xml:space="preserve">
<style type="text/css">
	.st0{clip-path:url(#SVGID_2_);}
	.st1{clip-path:url(#SVGID_4_);fill:#31B093;}
</style>
<g>
	<defs>
		<rect id="SVGID_1_" x="28" y="17.5" width="334.6" height="79.9"/>
	</defs>
	<clipPath id="SVGID_2_">
		<use xlink:href="#SVGID_1_"  style="overflow:visible;"/>
	</clipPath>
	<g class="st0">
		<defs>
			<rect id="SVGID_3_" x="28" y="17.5" width="334.6" height="79.9"/>
		</defs>
		<clipPath id="SVGID_4_">
			<use xlink:href="#SVGID_3_"  style="overflow:visible;"/>
		</clipPath>
		<path class="st1" d="M62.4,72c0,3.9-0.5,7.4-1.5,10.5c-1,3.1-2.5,5.8-4.5,8c-2,2.2-4.4,3.9-7.4,5.1c-3,1.2-6.4,1.8-10.3,1.8
			c-1.8,0-3.6-0.1-5.3-0.3c-1.7-0.2-3.5-0.5-5.4-1l0.7-7.6c0.1-0.7,0.3-1.3,0.8-1.7c0.5-0.4,1.2-0.6,2.1-0.6c0.6,0,1.3,0.1,2.2,0.3
			c0.9,0.2,2.1,0.3,3.5,0.3c1.9,0,3.6-0.3,5-0.8c1.5-0.5,2.7-1.4,3.7-2.5c1-1.1,1.7-2.6,2.2-4.5c0.5-1.8,0.7-4.1,0.7-6.7V27.5h13.4
			V72z"/>
		<path class="st1" d="M98.1,46.8c3.8,0,7.3,0.6,10.4,1.8c3.1,1.2,5.8,2.9,8,5c2.2,2.2,3.9,4.8,5.1,7.9c1.2,3.1,1.8,6.6,1.8,10.5
			c0,3.9-0.6,7.4-1.8,10.5c-1.2,3.1-2.9,5.8-5.1,8c-2.2,2.2-4.8,3.9-8,5.1c-3.1,1.2-6.6,1.8-10.4,1.8c-3.8,0-7.3-0.6-10.4-1.8
			c-3.1-1.2-5.8-2.9-8-5.1c-2.2-2.2-3.9-4.9-5.1-8c-1.2-3.1-1.8-6.6-1.8-10.5c0-3.9,0.6-7.3,1.8-10.5c1.2-3.1,2.9-5.8,5.1-7.9
			c2.2-2.2,4.9-3.8,8-5C90.8,47.4,94.3,46.8,98.1,46.8 M98.1,88.2c4.3,0,7.4-1.4,9.5-4.1c2-2.7,3.1-6.8,3.1-12c0-5.3-1-9.3-3.1-12.1
			c-2-2.8-5.2-4.2-9.5-4.2c-4.3,0-7.5,1.4-9.6,4.2c-2.1,2.8-3.1,6.8-3.1,12.1c0,5.3,1,9.3,3.1,12C90.6,86.9,93.8,88.2,98.1,88.2"/>
		<path class="st1" d="M148,33.3c0,1-0.2,2-0.6,2.9c-0.4,0.9-1,1.7-1.7,2.3c-0.7,0.7-1.6,1.2-2.5,1.6c-1,0.4-2,0.6-3.1,0.6
			c-1.1,0-2.1-0.2-3-0.6c-0.9-0.4-1.8-0.9-2.5-1.6c-0.7-0.7-1.3-1.4-1.7-2.3c-0.4-0.9-0.6-1.8-0.6-2.9c0-1.1,0.2-2,0.6-3
			c0.4-0.9,1-1.7,1.7-2.4c0.7-0.7,1.5-1.2,2.5-1.6c1-0.4,2-0.6,3-0.6c1.1,0,2.1,0.2,3.1,0.6c1,0.4,1.8,0.9,2.5,1.6
			c0.7,0.7,1.3,1.5,1.7,2.4C147.7,31.3,148,32.2,148,33.3 M146.1,96.6h-12.3v-49h12.3V96.6z"/>
		<path class="st1" d="M160,96.6v-49h7.5c1.6,0,2.6,0.7,3.1,2.1l0.8,3.9c1-1,2.1-1.9,3.3-2.8c1.1-0.8,2.4-1.5,3.6-2.1
			c1.3-0.6,2.7-1.1,4.1-1.4c1.5-0.3,3.1-0.5,4.8-0.5c2.8,0,5.3,0.5,7.4,1.4c2.2,0.9,4,2.2,5.4,3.8c1.4,1.6,2.5,3.6,3.3,5.9
			c0.7,2.3,1.1,4.8,1.1,7.5v31.2h-12.3V65.4c0-3-0.7-5.3-2.2-7c-1.4-1.6-3.6-2.5-6.5-2.5c-2.1,0-4.1,0.5-6,1.4
			c-1.9,0.9-3.6,2.2-5.3,3.8v35.5H160z"/>
		<path class="st1" d="M238.6,46.8c3.8,0,7.3,0.6,10.4,1.8c3.1,1.2,5.8,2.9,8,5c2.2,2.2,3.9,4.8,5.1,7.9c1.2,3.1,1.8,6.6,1.8,10.5
			c0,3.9-0.6,7.4-1.8,10.5c-1.2,3.1-2.9,5.8-5.1,8c-2.2,2.2-4.8,3.9-8,5.1c-3.1,1.2-6.6,1.8-10.4,1.8c-3.8,0-7.3-0.6-10.4-1.8
			c-3.1-1.2-5.8-2.9-8-5.1c-2.2-2.2-3.9-4.9-5.1-8c-1.2-3.1-1.8-6.6-1.8-10.5c0-3.9,0.6-7.3,1.8-10.5c1.2-3.1,2.9-5.8,5.1-7.9
			c2.2-2.2,4.9-3.8,8-5C231.3,47.4,234.8,46.8,238.6,46.8 M238.6,88.2c4.3,0,7.4-1.4,9.5-4.1c2-2.7,3.1-6.8,3.1-12
			c0-5.3-1-9.3-3.1-12.1c-2-2.8-5.2-4.2-9.5-4.2c-4.3,0-7.5,1.4-9.6,4.2c-2.1,2.8-3.1,6.8-3.1,12.1c0,5.3,1,9.3,3.1,12
			C231.1,86.9,234.3,88.2,238.6,88.2"/>
		<path class="st1" d="M303.9,57.1c-0.3,0.5-0.7,0.9-1,1.1c-0.4,0.2-0.8,0.3-1.4,0.3c-0.6,0-1.2-0.2-1.9-0.5
			c-0.7-0.3-1.5-0.7-2.4-1.1c-0.9-0.4-1.9-0.8-3.1-1.1c-1.1-0.3-2.5-0.5-4.1-0.5c-2.4,0-4.3,0.5-5.7,1.5c-1.4,1-2.1,2.3-2.1,3.9
			c0,1,0.4,1.9,1.1,2.6c0.7,0.7,1.7,1.3,2.8,1.9c1.2,0.5,2.5,1,4,1.5c1.5,0.4,3,0.9,4.6,1.4c1.6,0.5,3.1,1.1,4.6,1.7
			c1.5,0.7,2.8,1.5,4,2.5c1.2,1,2.1,2.2,2.8,3.6c0.7,1.4,1.1,3.1,1.1,5.1c0,2.4-0.4,4.5-1.3,6.5c-0.9,2-2.2,3.7-3.9,5.2
			c-1.7,1.5-3.9,2.6-6.4,3.4c-2.5,0.8-5.5,1.2-8.8,1.2c-1.8,0-3.5-0.2-5.2-0.5c-1.7-0.3-3.3-0.7-4.8-1.3c-1.5-0.5-3-1.2-4.3-1.9
			c-1.3-0.7-2.5-1.5-3.5-2.4l2.8-4.5c0.4-0.5,0.8-1,1.3-1.2c0.5-0.3,1.1-0.4,1.9-0.4c0.8,0,1.5,0.2,2.2,0.6c0.7,0.4,1.5,0.9,2.4,1.3
			c0.9,0.5,2,0.9,3.2,1.3c1.2,0.4,2.8,0.6,4.6,0.6c1.5,0,2.7-0.2,3.8-0.5c1-0.3,1.9-0.8,2.6-1.3c0.7-0.5,1.2-1.2,1.5-1.9
			c0.3-0.7,0.5-1.5,0.5-2.2c0-1.1-0.4-2.1-1.1-2.8c-0.7-0.7-1.7-1.4-2.8-1.9c-1.2-0.5-2.5-1-4-1.5c-1.5-0.4-3.1-0.9-4.6-1.4
			c-1.6-0.5-3.1-1.1-4.6-1.8c-1.5-0.7-2.9-1.6-4-2.6c-1.2-1.1-2.1-2.3-2.8-3.9c-0.7-1.5-1.1-3.4-1.1-5.5c0-2,0.4-3.9,1.2-5.7
			c0.8-1.8,2.1-3.4,3.7-4.8c1.6-1.4,3.6-2.4,6-3.3c2.4-0.8,5.2-1.2,8.4-1.2c3.5,0,6.7,0.6,9.6,1.7c2.9,1.1,5.3,2.6,7.2,4.4
			L303.9,57.1z"/>
		<path class="st1" d="M348.5,26.1c0,4.7-4,8.5-8.9,8.5c-4.9,0-8.9-3.8-8.9-8.5c0-4.7,4-8.5,8.9-8.5
			C344.5,17.5,348.5,21.3,348.5,26.1"/>
		<path class="st1" d="M348.5,53.1c0,4.7-4,8.5-8.9,8.5c-4.9,0-8.9-3.8-8.9-8.5c0-4.7,4-8.5,8.9-8.5
			C344.5,44.6,348.5,48.4,348.5,53.1"/>
		<path class="st1" d="M353.7,48.1c-4.9,0-8.9-3.8-8.9-8.5c0-4.7,4-8.5,8.9-8.5c4.9,0,8.9,3.8,8.9,8.5
			C362.6,44.3,358.6,48.1,353.7,48.1"/>
		<path class="st1" d="M325.4,48.1c-4.9,0-8.9-3.8-8.9-8.5c0-4.7,4-8.5,8.9-8.5c4.9,0,8.9,3.8,8.9,8.5
			C334.4,44.3,330.4,48.1,325.4,48.1"/>
	</g>
</g>
</svg>
