<?xml version="1.0" encoding="utf-8"?>
<!-- Generator: Adobe Illustrator 19.1.0, SVG Export Plug-In . SVG Version: 6.00 Build 0)  -->
<svg version="1.1" id="Layer_2" xmlns="http://www.w3.org/2000/svg" xmlns:xlink="http://www.w3.org/1999/xlink" x="0px" y="0px"
	 viewBox="-1033 2735.3 200 200" style="enable-background:new -1033 2735.3 200 200;" xml:space="preserve">
<style type="text/css">
	.st0{fill:#4DBCE2;}
	.st1{opacity:0.1;}
	.st2{fill:#222120;}
	.st3{fill:#FFFFFF;}
	.st4{fill:#386E7A;}
	.st5{opacity:0.1;enable-background:new    ;}
</style>
<g>
	<path class="st0" d="M-842,2835.3c0,50.3-40.7,91-91,91l0,0c-50.3,0-91-40.7-91-91l0,0c0-50.3,40.7-91,91-91l0,0
		C-882.7,2744.3-842,2785-842,2835.3L-842,2835.3z"/>
</g>
<g class="st1">
	<path class="st2" d="M-869.2,2770.2L-869.2,2770.2c35.8,35.3,36.3,92.9,1,128.7l0,0c-35.3,35.8-92.9,36.3-128.7,1l0,0"/>
</g>
<polygon class="st3" points="-991,2859 -907.6,2775.6 -876.2,2778.4 -873,2810.2 -956.4,2893.7 "/>
<circle class="st4" cx="-891.7" cy="2793.6" r="7"/>
<circle class="st0" cx="-891.7" cy="2793.6" r="4.5"/>
<path class="st5" d="M-888.5,2790.4c1.8,1.8,1.8,4.6,0,6.4c-1.8,1.8-4.6,1.8-6.4,0"/>
</svg>
