<?xml version="1.0" encoding="utf-8"?>
<!-- Generator: Adobe Illustrator 19.2.1, SVG Export Plug-In . SVG Version: 6.00 Build 0)  -->
<svg version="1.1" id="Layer_1" xmlns="http://www.w3.org/2000/svg" xmlns:xlink="http://www.w3.org/1999/xlink" x="0px" y="0px"
	 viewBox="0 0 110.7 80" style="enable-background:new 0 0 110.7 80;" xml:space="preserve">
<style type="text/css">
	.st0{fill:#555555;}
	.st1{enable-background:new    ;}
	.st2{fill:#FFFF48;}
	.st3{fill:#FFFFFF;}
</style>
<g>
	<path class="st0" d="M95.5,52.3l-3.5-2c-0.5-0.3-1.2-0.3-1.7-0.1c-0.4-0.9-1-1.8-1.6-2.6c1-2.4,1.5-4.9,1.5-7.5c0-11-9-20-20-20
		c-7.3,0-13.9,3.9-17.4,10.2c-7.2,0.9-13.4,5.6-16.1,12.4c-1.2-0.4-2.5-0.5-3.9-0.5c-7.7,0-14,6.3-14,14s6.3,14,14,14h44.8
		c7.7,0,14-6.3,14-14c0-0.5,0-0.9-0.1-1.4l1.9,1.1c0.3,0.2,0.7,0.3,1,0.3c0.7,0,1.4-0.4,1.7-1C96.8,54,96.5,52.8,95.5,52.3z
		 M70.3,24c8.8,0,16,7.2,16,16c0,1.5-0.2,3-0.7,4.5c-2.3-1.6-5-2.5-7.9-2.5c-1.3,0-2.6,0.2-3.9,0.6C71.1,36,65,31.1,57.6,30.2
		C60.7,26.3,65.3,24,70.3,24z M77.7,66H32.9c-5.5,0-10-4.5-10-10s4.5-10,10-10c2.7,0,5.2,1,7.1,2.9c0.8,0.8,2,0.8,2.8,0s0.8-2,0-2.8
		c-0.7-0.7-1.5-1.4-2.4-1.9C42.8,38.1,48.7,34,55.3,34c8.8,0,16,7.2,16,16c0,1.1,0.9,2,2,2s2-0.9,2-2c0-1.2-0.1-2.4-0.3-3.6
		c0.9-0.3,1.8-0.4,2.7-0.4c5.5,0,10,4.5,10,10S83.2,66,77.7,66z M100.3,40c0,1.1-0.9,2-2,2h-4c-1.1,0-2-0.9-2-2s0.9-2,2-2h4
		C99.4,38,100.3,38.9,100.3,40z M89.4,29c-0.6-1-0.2-2.2,0.7-2.7l3.5-2c1-0.6,2.2-0.2,2.7,0.7c0.6,1,0.2,2.2-0.7,2.7l-3.5,2
		c-0.3,0.2-0.7,0.3-1,0.3C90.4,30,89.7,29.6,89.4,29z M80.6,18.2l2-3.5c0.6-1,1.8-1.3,2.7-0.7c1,0.6,1.3,1.8,0.7,2.7l-2,3.5
		c-0.4,0.6-1,1-1.7,1c-0.3,0-0.7-0.1-1-0.3C80.3,20.4,80,19.2,80.6,18.2z M68.3,16v-4c0-1.1,0.9-2,2-2s2,0.9,2,2v4c0,1.1-0.9,2-2,2
		S68.3,17.1,68.3,16z M54.6,16.8c-0.6-1-0.2-2.2,0.7-2.7c1-0.6,2.2-0.2,2.7,0.7l2,3.5c0.6,1,0.2,2.2-0.7,2.7c-0.3,0.2-0.7,0.3-1,0.3
		c-0.7,0-1.4-0.4-1.7-1L54.6,16.8z M44.3,25c0.6-1,1.8-1.3,2.7-0.7l3.5,2c1,0.6,1.3,1.8,0.7,2.7c-0.4,0.6-1,1-1.7,1
		c-0.3,0-0.7-0.1-1-0.3l-3.5-2C44.1,27.2,43.8,26,44.3,25z"/>
</g>
<text transform="matrix(1 0 0 1 5.3333 115)" style="font-family:'HelveticaNeue-Bold'; font-size:5px;">Created by Joel Avery</text>
<text transform="matrix(1 0 0 1 5.3333 120)" style="font-family:'HelveticaNeue-Bold'; font-size:5px;">from the Noun Project</text>
<path class="st2" d="M70.3,24c8.8,0,16,7.2,16,16c0,1.5-0.2,3-0.7,4.5c-2.3-1.6-5-2.5-7.9-2.5c-1.3,0-2.6,0.2-3.9,0.6
	C71.1,36,65,31.1,57.6,30.2C60.7,26.3,65.3,24,70.3,24z"/>
<path class="st3" d="M77.7,66H32.9c-5.5,0-10-4.5-10-10s4.5-10,10-10c2.7,0,5.2,1,7.1,2.9c0.8,0.8,2,0.8,2.8,0s0.8-2,0-2.8
	c-0.7-0.7-1.5-1.4-2.4-1.9C42.8,38.1,48.7,34,55.3,34c8.8,0,16,7.2,16,16c0,1.1,0.9,2,2,2s2-0.9,2-2c0-1.2-0.1-2.4-0.3-3.6
	c0.9-0.3,1.8-0.4,2.7-0.4c5.5,0,10,4.5,10,10S83.2,66,77.7,66z"/>
</svg>
